<?xml version="1.0" encoding="utf-8"?>
<svg viewBox="0 0 100 100" xmlns="http://www.w3.org/2000/svg">
  <g>
    <path d="M33.80985,61.36073c-12.97611,0-17.22348-18.72874-17.65412-28.66778c-0.04129-0.92911,0.6784-1.71468,1.60849-1.75499   c0.85931-0.03245,1.71665,0.67938,1.75401,1.60948c0.42867,9.85842,4.69177,25.44489,14.30538,25.44489   c0.0295,0,0.06096,0,0.09045,0c9.80828-0.10225,14.05761-15.69069,14.43122-25.49307   c0.0354-0.9301,0.82588-1.66159,1.74811-1.61833c0.92813,0.03539,1.65372,0.81703,1.61833,1.74614   c-0.4385,11.48068-5.53141,28.60584-17.76227,28.73169C33.90227,61.35876,33.85704,61.36073,33.80985,61.36073z"/>
    <path d="M1.68322,100C0.75312,100,0,99.24688,0,98.31678C0,87.4565,2.45404,77.54597,6.7309,71.12575   c2.456-3.68105,6.10166-4.24344,9.31865-4.73896c2.66247-0.41097,4.96116-0.76492,6.64045-2.64084   c1.34697-1.43152,1.21325-4.43418,1.06184-7.91073l1.67535-0.21237l1.68125-0.07472   c0.19271,4.37912,0.35395,8.03854-1.93688,10.47488c-2.456,2.74309-5.72412,3.24648-8.60682,3.69088   c-2.89844,0.44833-5.39967,0.83375-7.03176,3.27991C5.614,78.87327,3.36643,88.10343,3.36643,98.31678   C3.36643,99.24688,2.61331,100,1.68322,100z"/>
    <path d="M66.23931,100c-0.9301,0-1.68322-0.75312-1.68322-1.68322c0-10.15829-2.2692-19.38846-6.22554-25.32298   c-1.63209-2.44814-4.12545-2.83354-7.01209-3.27991c-2.87681-0.4444-6.13706-0.94779-8.64418-3.71448   c-2.32622-2.46977-2.10009-6.41235-1.86216-10.58696c0.05309-0.92813,0.8652-1.63799,1.7776-1.5849   c0.92813,0.05309,1.63799,0.84947,1.5849,1.7776c-0.19664,3.43132-0.38148,6.67191,0.97335,8.10933   c1.72648,1.90541,4.02517,2.25937,6.68568,2.67231c3.20716,0.49552,6.84495,1.05791,9.29899,4.73896   c4.31619,6.4733,6.78989,16.3858,6.78989,27.19103C67.92252,99.24688,67.1694,100,66.23931,100z"/>
    <path d="M66.23931,100H1.68322C0.75312,100,0,99.24688,0,98.31678c0-0.93009,0.75312-1.68321,1.68322-1.68321h64.55609   c0.93009,0,1.68321,0.75312,1.68321,1.68321C67.92252,99.24688,67.1694,100,66.23931,100z"/>
    <path d="M17.83895,34.30439c-0.63514,0-1.24471-0.36083-1.52984-0.97532c-3.46672-7.46731-3.626-14.31914-0.4503-19.29407   c3.21502-5.03884,9.63327-7.81339,18.07295-7.81339c0.9301,0,1.68322,0.7541,1.68322,1.6842s-0.75312,1.6842-1.68322,1.6842   c-7.25002,0-12.65952,2.222-15.23547,6.25602c-2.53466,3.97208-2.29673,9.67752,0.66857,16.06528   c0.39131,0.84357,0.02556,1.84446-0.81801,2.23577C18.31678,34.25425,18.07492,34.30439,17.83895,34.30439z"/>
    <path d="M50.02655,34.24737c-0.23597,0-0.47586-0.05014-0.70396-0.15633c-0.84554-0.39032-1.21325-1.39022-0.82194-2.23478   c2.95153-6.38482,3.18749-12.07354,0.66463-16.02006c-2.57399-4.02812-8.00512-6.24619-15.29053-6.24619   c-0.9301,0-1.68322-0.7541-1.68322-1.6842s0.75312-1.6842,1.68322-1.6842c8.47508,0,14.91299,2.77062,18.12801,7.80061   c3.16389,4.94838,3.00462,11.7835-0.44637,19.24786C51.27323,33.88556,50.66365,34.24737,50.02655,34.24737z"/>
    <path d="M25.08504,10.84554c-0.73346,0-1.40792-0.48275-1.61833-1.22309c-0.15338-0.53289-0.23596-1.14246-0.23596-1.71664   C23.23075,3.47262,27.90679,0,33.87474,0c6.00138,0,10.70298,3.47262,10.70298,7.90581c0,0.39524-0.00983,0.79048-0.08849,1.18572   c-0.18287,0.9124-1.06774,1.50329-1.98211,1.32042c-0.9124-0.18189-1.50231-1.06872-1.32141-1.98112   c0.0354-0.17501,0.02557-0.35001,0.02557-0.52502c0-2.45994-3.36053-4.53741-7.33655-4.53741   c-3.94455,0-7.27755,2.07748-7.27755,4.53741c0,0.26349,0.04129,0.55943,0.10618,0.79441   c0.25563,0.89372-0.26153,1.82578-1.15623,2.08043C25.3918,10.82489,25.23646,10.84554,25.08504,10.84554z"/>
    <path d="M33.93177,100c-0.36575,0-0.72953-0.11798-1.03431-0.35395l-10.50044-8.16242   c-0.51519-0.40114-0.75312-1.06577-0.60761-1.70288l0.95173-4.18641l-2.03323-0.54862   c-0.82588-0.22417-1.35483-1.03038-1.22702-1.87788l2.79815-18.55078c0.11798-0.77869,0.76099-1.37253,1.54754-1.42759   c0.77279-0.08849,1.50624,0.44243,1.73041,1.19753l9.98722,33.44804c0.2104,0.702-0.05702,1.45708-0.6607,1.87199   C34.59444,99.90365,34.26408,100,33.93177,100z M25.31118,89.48186l5.50388,4.27883L24.4853,72.5671l-1.44922,9.61754   l2.14532,0.57812c0.87307,0.23596,1.40399,1.11887,1.20342,1.9998L25.31118,89.48186z"/>
    <path d="M33.93177,100c-0.33232,0-0.66267-0.09635-0.95173-0.29299c-0.60368-0.4149-0.87111-1.16999-0.6607-1.87199   l9.98919-33.44804c0.2222-0.75509,0.93796-1.28994,1.73041-1.19753c0.78655,0.05506,1.42956,0.6489,1.54754,1.42759   l2.79618,18.55078c0.12585,0.84357-0.39721,1.64979-1.22112,1.87592L45.1637,85.5904l0.91633,4.20608   c0.13765,0.63317-0.10028,1.28995-0.61351,1.68715l-10.50241,8.16242C34.66129,99.88202,34.29751,100,33.93177,100z    M43.37823,72.56907l-6.32779,21.19162l5.51371-4.28473l-1.03038-4.72913c-0.18877-0.87503,0.33822-1.74614,1.20146-1.9821   l2.09419-0.57418L43.37823,72.56907z"/>
    <path d="M33.93177,70.00295c-3.95045,0-7.89893-1.27422-11.04709-3.82657c-0.72166-0.58401-0.83374-1.64586-0.24776-2.36752   c0.58205-0.72166,1.63996-0.83768,2.36752-0.24776c5.08898,4.12152,12.76374,4.12152,17.85665,0   c0.72559-0.58991,1.7835-0.4739,2.36752,0.24776c0.58598,0.72363,0.4739,1.7835-0.24776,2.36752   C41.8307,68.72677,37.88025,70.00295,33.93177,70.00295z"/>
    <path d="M9.61754,100c-0.9301,0-1.68322-0.75312-1.68322-1.68322v-6.79382c0-0.93009,0.75312-1.68322,1.68322-1.68322   c0.93009,0,1.68322,0.75313,1.68322,1.68322v6.79382C11.30076,99.24688,10.54764,100,9.61754,100z"/>
    <path d="M56.99145,100c-0.9301,0-1.68322-0.75312-1.68322-1.68322v-6.79382c0-0.93009,0.75312-1.68322,1.68322-1.68322   s1.68322,0.75313,1.68322,1.68322v6.79382C58.67466,99.24688,57.92154,100,56.99145,100z"/>
    <path d="M17.83502,34.30439c-0.81211,0-1.52591-0.58794-1.65962-1.41481c-0.14944-0.91731,0.4739-1.78252,1.39219-1.93098   c12.09321-1.96146,20.26349-5.89323,24.2867-11.68518c0.52699-0.76295,1.57703-0.95074,2.34195-0.42277   c0.76492,0.53092,0.95369,1.57998,0.42277,2.34392c-4.56199,6.57162-13.48343,10.97434-26.51263,13.08721   C18.01593,34.29751,17.92547,34.30439,17.83502,34.30439z"/>
    <path d="M50.03048,34.24737c-0.09045,0-0.18091-0.00787-0.27333-0.02261c-5.98368-0.97631-10.67545-3.34972-13.9475-7.05339   c-0.61547-0.69708-0.54862-1.76187,0.14748-2.37735c0.69413-0.61449,1.76187-0.55157,2.37735,0.14748   c2.74309,3.10589,6.76826,5.11159,11.96539,5.96008c0.9183,0.14944,1.53967,1.01465,1.39022,1.93295   C51.55639,33.66041,50.84063,34.24737,50.03048,34.24737z"/>
    <path d="M98.31678,77.5676H69.49169c-0.93009,0-1.68322-0.75312-1.68322-1.68322c0-0.93009,0.75313-1.68322,1.68322-1.68322   h27.14188V23.45984h-36.4448c-0.93009,0-1.68322-0.7541-1.68322-1.6842s0.75312-1.6842,1.68322-1.6842h38.12801   c0.9301,0,1.68322,0.7541,1.68322,1.6842v54.10874C100,76.81448,99.24688,77.5676,98.31678,77.5676z" style="fill: rgb(0, 114, 245);"/>
    <path d="M88.7838,35.78802H76.22652c-0.93009,0-1.68321-0.7541-1.68321-1.6842s0.75312-1.6842,1.68321-1.6842H88.7838   c0.93009,0,1.68321,0.7541,1.68321,1.6842S89.71389,35.78802,88.7838,35.78802z" style="fill: rgb(0, 114, 245);"/>
    <path d="M88.7838,45.60515H55.33773c-0.9301,0-1.68322-0.7541-1.68322-1.6842s0.75312-1.6842,1.68322-1.6842H88.7838   c0.93009,0,1.68321,0.7541,1.68321,1.6842S89.71389,45.60515,88.7838,45.60515z" style="fill: rgb(0, 114, 245);"/>
    <path d="M88.7838,55.42228H51.57015c-0.9301,0-1.68322-0.75312-1.68322-1.68322s0.75312-1.68322,1.68322-1.68322H88.7838   c0.93009,0,1.68321,0.75312,1.68321,1.68322S89.71389,55.42228,88.7838,55.42228z" style="fill: rgb(0, 114, 245);"/>
    <path d="M79.766,65.23843H56.59227c-0.9301,0-1.68322-0.75313-1.68322-1.68322c0-0.9301,0.75312-1.68322,1.68322-1.68322H79.766   c0.9301,0,1.68322,0.75312,1.68322,1.68322C81.44922,64.4853,80.6961,65.23843,79.766,65.23843z" style="fill: rgb(0, 114, 245);"/>
    <path d="M91.4679,93.14915c-0.62531,0-1.22505-0.34805-1.51608-0.94582l-7.5902-15.58156   c-0.40704-0.83571-0.05899-1.84446,0.77672-2.2515c0.84161-0.41294,1.84446-0.05506,2.2515,0.77672l7.59021,15.58155   c0.40704,0.83572,0.05899,1.84446-0.77672,2.2515C91.96539,93.09605,91.7137,93.14915,91.4679,93.14915z" style="fill: rgb(0, 114, 245);"/>
  </g>
</svg>