<svg xmlns="http://www.w3.org/2000/svg" xmlns:xlink="http://www.w3.org/1999/xlink" version="1.1" x="0px" y="0px" viewBox="0 0 100 125" style="enable-background:new 0 0 100 100;" xml:space="preserve"><g><path d="M42.74278,57.02203c-15.64791,0-21.25049-19.99827-22.02502-30.6068c-0.06684-0.92688,0.62906-1.73385,1.55693-1.80167   c0.92393-0.06684,1.73385,0.62808,1.80069,1.55595c0.6959,9.52537,5.49643,27.48508,18.6733,27.48508   c0.03932,0,0.07863,0,0.11992,0c13.29679-0.11205,18.12484-18.02753,18.81878-27.48508   c0.06684-0.92787,0.8571-1.62671,1.80266-1.55595c0.9259,0.06782,1.62377,0.87479,1.55496,1.80167   c-1.07727,14.66009-8.46677,30.49082-22.14887,30.60484C42.845,57.02006,42.79389,57.02203,42.74278,57.02203z"/><path d="M1.68274,99.98694C0.75291,99.98694,0,99.23403,0,98.3042c0-12.03474,3.14138-23.03545,8.62011-30.18317   c3.03522-3.97488,7.55857-4.59018,11.54918-5.13275c3.36351-0.45803,6.53831-0.88855,8.81669-3.09813   c1.66308-1.58052,1.60018-4.59412,1.3171-9.01131c-0.05897-0.92786,0.64479-1.72795,1.57265-1.78889   c0.9318-0.03932,1.72992,0.64479,1.7889,1.57265c0.27914,4.37001,0.56812,8.88747-2.34719,11.6573   c-3.05881,2.96642-6.9413,3.49326-10.69405,4.00437c-3.82941,0.52094-7.13592,0.96915-9.32781,3.84318   c-5.04036,6.57369-7.93011,16.8274-7.93011,28.13675C3.36548,99.23403,2.61257,99.98694,1.68274,99.98694z"/><path d="M84.13701,99.98694c-0.92983,0-1.68274-0.75291-1.68274-1.68274c0-7.92814-1.48812-15.60663-4.18916-21.62203   c-0.38137-0.84923-0.00197-1.84393,0.8453-2.2253c0.8453-0.3735,1.8459-0.00197,2.2253,0.8453   c2.89172,6.44003,4.48403,14.60799,4.48403,23.00204C85.81975,99.23403,85.06684,99.98694,84.13701,99.98694z M62.22797,65.86427   c-0.10419,0-0.21034-0.00983-0.31846-0.02949c-2.05035-0.3912-5.05805-1.18342-7.47404-3.52668   c-2.91138-2.76591-2.61847-7.3384-2.33539-11.75953c0.06094-0.92786,0.88658-1.61197,1.78889-1.57265   c0.92786,0.06094,1.63163,0.86103,1.57265,1.78889c-0.27915,4.34642-0.34795,7.54285,1.3053,9.11353   c1.37607,1.33479,3.15317,2.14864,5.77557,2.64993c0.91214,0.17496,1.51171,1.05564,1.33675,1.96975   C63.72592,65.30402,63.02019,65.86427,62.22797,65.86427z"/><path d="M84.13701,99.98694H1.68274C0.75291,99.98694,0,99.23403,0,98.3042s0.75291-1.68274,1.68274-1.68274h82.45427   c0.92983,0,1.68274,0.75291,1.68274,1.68274S85.06684,99.98694,84.13701,99.98694z"/><path d="M42.88235,29.63032c-11.73397,0-33.92216-1.87834-33.92216-8.98772c0-3.5257,5.28019-6.12057,15.69313-7.7119   c0.90034-0.13761,1.7771,0.49146,1.91667,1.40949c0.14154,0.91902-0.48949,1.77808-1.40949,1.91864   c-10.33037,1.57855-12.75226,3.8648-12.83482,4.38967c0,1.67488,10.39721,5.61438,30.55667,5.61438   c20.19681,0,30.61369-3.9395,30.61369-5.62027c-0.09436-0.51603-2.54771-2.80129-12.83876-4.38377   c-0.92-0.14154-1.54906-1.00159-1.40753-1.91962c0.13958-0.91902,0.99864-1.54808,1.91864-1.40851   c10.41294,1.60214,15.69313,4.19702,15.69313,7.7119C76.86152,27.75198,54.63598,29.63032,42.88235,29.63032z"/><path d="M22.51058,21.92726c-0.19462,0-0.39316-0.0344-0.58778-0.10616c-0.87086-0.32436-1.31317-1.29351-0.99077-2.16437   C24.82435,9.20055,29.21795,3.05836,34.36446,0.88023c2.91531-1.23355,6.01147-1.15,9.19413,0.24769   c0.8512,0.37351,1.23847,1.36624,0.86496,2.21744c-0.3735,0.8512-1.36821,1.23847-2.21744,0.86496   c-2.33736-1.02616-4.4742-1.10184-6.52848-0.23c-4.18916,1.77317-8.08738,7.4416-11.59046,16.85001   C23.83554,21.50854,23.19272,21.92726,22.51058,21.92726z"/><path d="M63.25216,21.92726c-0.68214,0-1.32496-0.41872-1.57855-1.09693c-3.49916-9.40742-7.39934-15.07684-11.58653-16.85001   c-2.05625-0.87086-4.19112-0.79616-6.52848,0.23c-0.8512,0.37351-1.84394-0.01081-2.21744-0.86496   c-0.3735-0.8512,0.01376-1.84394,0.86496-2.21744c3.18659-1.3977,6.27686-1.48223,9.19413-0.24769   c5.14651,2.17911,9.53815,8.32032,13.43047,18.77651c0.3224,0.87086-0.11992,1.84001-0.99077,2.16437   C63.64532,21.89286,63.44677,21.92726,63.25216,21.92726z"/><path d="M42.80372,22.33517c-6.70541,0-13.39902-0.63988-20.04152-1.92159c-0.91411-0.17692-1.50975-1.05958-1.33479-1.97172   c0.17692-0.91312,1.06351-1.50385,1.97172-1.33479c12.86038,2.48283,25.9311,2.48283,38.85046,0   c0.91804-0.17004,1.79676,0.42167,1.97171,1.33577c0.17496,0.91312-0.42265,1.79479-1.33479,1.97073   C56.2165,21.69431,49.5052,22.33517,42.80372,22.33517z"/><path d="M59.31462,99.98694c-0.92983,0-1.68274-0.75291-1.68274-1.68274v-5.53574c0-0.92983,0.75291-1.68274,1.68274-1.68274   s1.68274,0.75291,1.68274,1.68274v5.53574C60.99737,99.23403,60.24446,99.98694,59.31462,99.98694z M26.44811,99.98694   c-0.92983,0-1.68274-0.75291-1.68274-1.68274V81.4709c0-0.92983,0.75291-1.68274,1.68274-1.68274H53.4388   c0.92983,0,1.68274,0.75291,1.68274,1.68274s-0.75291,1.68274-1.68274,1.68274H28.13086V98.3042   C28.13086,99.23403,27.37795,99.98694,26.44811,99.98694z"/><path d="M26.44615,83.15364c-0.79616,0-1.50189-0.56615-1.65325-1.37607l-3.19642-17.23236   c-0.16906-0.91411,0.43445-1.79283,1.34855-1.96189c0.91804-0.17103,1.79086,0.43444,1.96189,1.34855l3.19642,17.23236   c0.16906,0.9141-0.43445,1.79282-1.34855,1.96188C26.65059,83.14578,26.54837,83.15364,26.44615,83.15364z"/><path d="M61.14284,73.2243c-0.10222,0-0.20838-0.00787-0.31256-0.02752c-0.91411-0.173-1.51565-1.05171-1.34462-1.96582   l1.37017-7.30301c0.17299-0.91214,1.04975-1.51761,1.96582-1.34462c0.91411,0.17299,1.51564,1.05171,1.34462,1.96582   l-1.37018,7.30302C62.64276,72.6601,61.93703,73.2243,61.14284,73.2243z"/><path d="M51.49854,89.65853H34.26617c-0.92983,0-1.68274-0.75291-1.68274-1.68274s0.75291-1.68274,1.68274-1.68274h17.23236   c0.92983,0,1.68274,0.75291,1.68274,1.68274S52.42836,89.65853,51.49854,89.65853z"/><path d="M13.60936,99.98694c-0.92983,0-1.68274-0.75291-1.68274-1.68274v-7.24797c0-0.92983,0.75291-1.68274,1.68274-1.68274   s1.68274,0.75291,1.68274,1.68274v7.24797C15.2921,99.23403,14.53919,99.98694,13.60936,99.98694z"/><path d="M69.01791,65.52222c-0.07667,0-0.15334-0.00394-0.23197-0.01573l-1.25616-0.17299   c-0.88461-0.12188-1.52154-0.91411-1.44684-1.80462C67.2644,49.1332,69.64107,33.47447,78.28477,26.4683   c0.53667-0.43444,1.28368-0.49735,1.88326-0.1612c0.60154,0.33714,0.93573,1.0065,0.8453,1.6906L76.84776,59.324   c-0.12188,0.92197-0.99274,1.55693-1.89111,1.44684c-0.92197-0.12385-1.56873-0.96915-1.44685-1.89112L76.95391,32.984   c-4.72583,7.16639-6.46754,18.91314-7.38361,29.26513c0.74308,0.25752,1.22471,1.0124,1.11266,1.82035   C70.56697,64.91282,69.84551,65.52222,69.01791,65.52222z"/><path d="M70.90115,93.19504c-0.07076,0-0.1435-0.00393-0.21624-0.01376l-3.99454-0.51308   c-0.44427-0.05701-0.84727-0.28701-1.12051-0.64283c-0.27325-0.35384-0.39317-0.80402-0.33419-1.24632l1.76923-13.35184   c0.12188-0.92001,0.96129-1.56676,1.88915-1.44881c0.92197,0.12188,1.57069,0.96915,1.44881,1.88915l-1.5471,11.67696   l0.65265,0.08453l2.34915-17.90663c0.12188-0.92001,0.98488-1.56873,1.88718-1.45078   c0.92197,0.11992,1.57265,0.96522,1.45078,1.88718l-2.56736,19.57169C72.45612,92.57777,71.73466,93.19504,70.90115,93.19504z"/><path d="M79.62939,70.59993c-0.37743,0-0.75684-0.12582-1.0694-0.38137l-0.97112-0.79812   c-0.71752-0.59171-0.82171-1.65129-0.23196-2.37078c0.51897-0.62906,1.39573-0.78436,2.08573-0.42068   c7.00224-7.68242,14.47432-16.90014,16.5974-25.16935L79.26375,61.44118c-0.60154,0.71162-1.66112,0.80402-2.37274,0.20641   c-0.71163-0.59761-0.80402-1.65915-0.20641-2.37274l20.31477-24.19332c0.44427-0.52881,1.16966-0.72834,1.81838-0.51603   c0.65462,0.21722,1.11069,0.8109,1.15196,1.49894c0.65069,11.00563-9.29242,23.35982-19.10381,33.99489   C80.53563,70.41711,80.0835,70.59993,79.62939,70.59993z"/><path d="M60.0577,89.65853c-0.38137,0-0.76274-0.12778-1.07727-0.38923l-3.08241-2.56736   c-0.34402-0.28701-0.56026-0.69786-0.59958-1.1441c-0.03931-0.44427,0.10026-0.88855,0.38727-1.23061l13.92389-16.60526   c0.59761-0.71555,1.66309-0.80598,2.37078-0.20837c0.71359,0.59761,0.80598,1.65915,0.20837,2.37077L59.35001,85.19613   l0.49539,0.41282l13.92979-16.63278c0.59564-0.71359,1.65522-0.80795,2.37077-0.20838   c0.71162,0.59564,0.80598,1.65719,0.20838,2.37078L61.34728,89.05699C61.01506,89.45409,60.53736,89.65853,60.0577,89.65853z"/><path d="M74.38852,71.73224c-0.95342,0-1.91864-0.18872-2.84061-0.58385c-3.59548-1.57069-5.24088-5.81096-3.68002-9.45559   c0.75684-1.7653,2.15454-3.11975,3.9395-3.81565c1.79676-0.69983,3.76061-0.65068,5.53181,0.13957   c3.61907,1.56086,5.28805,5.7972,3.72326,9.45166C79.8358,70.14189,77.16228,71.73028,74.38852,71.73224z M74.40228,60.75315   c-0.46393,0-0.92786,0.08649-1.37017,0.25949c-0.9377,0.36564-1.67291,1.07924-2.07001,2.00513   c-0.83547,1.95206,0.02752,4.21275,1.92257,5.04036c1.93436,0.82957,4.22454-0.04522,5.1013-1.95403   c0.81778-1.9147-0.06487-4.1754-1.98744-4.99907c-0.00786-0.00393-0.01572-0.00787-0.02359-0.0118   C75.46972,60.86716,74.93501,60.75315,74.40228,60.75315z"/></g><text x="0" y="115" fill="#000000" font-size="5px" font-weight="bold" font-family="'Helvetica Neue', Helvetica, Arial-Unicode, Arial, Sans-serif">Created by Grégory Montigny</text><text x="0" y="120" fill="#000000" font-size="5px" font-weight="bold" font-family="'Helvetica Neue', Helvetica, Arial-Unicode, Arial, Sans-serif">from the Noun Project</text></svg>