<?xml version="1.0" encoding="utf-8"?>
<svg viewBox="0 6.4502 100 87.0996" xmlns="http://www.w3.org/2000/svg">
  <g>
    <path d="M69.8771,48.97404c-3.24059,0-6.10756-1.21129-8.52423-3.60142c-5.26202-5.20303-7.12811-14.97984-7.12811-21.77072   c0-10.09832,6.48904-17.15171,15.78016-17.15171c0.9301,0,1.68322,0.7541,1.68322,1.6842s-0.75312,1.6842-1.68322,1.6842   c-7.42503,0-12.41372,5.53928-12.41372,13.78331c0,6.62767,1.89558,15.18926,6.13116,19.37666   c1.813,1.79333,3.85803,2.61135,6.26291,2.62708c0.00787-0.00098,0.01376-0.00098,0.01966-0.00098   c0.92223,0,1.67339,0.74231,1.68322,1.66552c0.0118,0.92911-0.73543,1.69207-1.66355,1.7019   C69.97542,48.97404,69.92626,48.97404,69.8771,48.97404z"/>
    <path d="M41.75204,87.10009c-0.9301,0-1.68322-0.75312-1.68322-1.68322c0-3.40576,0.2163-6.59915,0.64497-9.49169   c0.13568-0.92223,1.01268-1.54557,1.91132-1.41972c0.92027,0.13568,1.5554,0.99302,1.41972,1.91132   c-0.40311,2.7313-0.60958,5.75951-0.60958,9.0001C43.43526,86.34697,42.68214,87.10009,41.75204,87.10009z M53.39495,58.33399   c-0.79638,0-1.50428-0.56631-1.65372-1.37843c-0.16911-0.91436,0.43653-1.79137,1.3509-1.96048l1.10707-0.19074   c2.32426-0.38934,4.33192-0.72559,5.77328-2.47763c1.16016-1.3686,1.08741-4.16282,0.87504-7.67476   c-0.05506-0.92911,0.65087-1.72647,1.579-1.78252c0.92223-0.09439,1.72648,0.6489,1.7835,1.579   c0.22417,3.71153,0.4562,7.5499-1.65372,10.03736c-2.22593,2.7077-5.18926,3.20126-7.80257,3.63976l-1.05201,0.18091   C53.59945,58.32612,53.49523,58.33399,53.39495,58.33399z"/>
    <path d="M98.31678,87.10009c-0.93009,0-1.68321-0.75312-1.68321-1.68322c0-9.76109-1.97031-18.59601-5.40556-24.2395   c-1.40596-2.29279-3.44706-2.64281-6.03088-3.08328c-2.56219-0.43653-5.46455-0.93206-7.69639-3.62403   c-2.09812-2.47173-1.86609-6.36712-1.64192-10.1347c0.05505-0.92813,0.86716-1.64094,1.78153-1.58097   c0.92813,0.05604,1.63602,0.85341,1.58096,1.78154c-0.21433,3.57684-0.28513,6.42218,0.85931,7.77111   c1.44725,1.74614,3.4097,2.08043,5.68282,2.4678c2.87288,0.48963,6.13116,1.04611,8.33743,4.64851   C97.85075,65.58205,100,75.05604,100,85.41687C100,86.34697,99.24688,87.10009,98.31678,87.10009z"/>
    <path d="M98.31678,87.10009H41.75204c-0.9301,0-1.68322-0.75312-1.68322-1.68322c0-0.93009,0.75312-1.68321,1.68322-1.68321   h56.56474c0.9301,0,1.68322,0.75312,1.68322,1.68321C100,86.34697,99.24688,87.10009,98.31678,87.10009z"/>
    <path d="M56.02202,28.31137c-0.67447,0-1.31157-0.40901-1.56916-1.07561c-0.33625-0.86717,0.09438-1.84249,0.96156-2.17875   c8.5262-3.30351,12.74801-8.85065,12.90729-16.95605c0.01769-0.9183,0.76885-1.65077,1.68321-1.65077   c0.00983,0,0.02163,0.00098,0.03343,0.00098c0.93009,0.0177,1.66749,0.78655,1.64979,1.71665   c-0.18484,9.49071-5.25219,16.22948-15.0585,20.0295C56.43103,28.275,56.22456,28.31137,56.02202,28.31137z"/>
    <path d="M84.0468,28.31137c-0.20254,0-0.409-0.03638-0.60761-0.11405C73.65844,24.40714,68.57143,17.6723,68.3217,8.17865   c-0.0236-0.92911,0.70986-1.70288,1.63799-1.72746c0.01573,0,0.03146-0.00098,0.04523-0.00098   c0.91043,0,1.65962,0.72559,1.68322,1.63996c0.21433,8.11916,4.4558,13.66926,12.96628,16.96687   c0.86717,0.33625,1.29781,1.31157,0.96156,2.17875C85.35838,27.90237,84.72127,28.31137,84.0468,28.31137z"/>
    <path d="M70.00491,87.10009c-0.93009,0-1.68321-0.75312-1.68321-1.68322V67.38128c0-0.93009,0.75312-1.68321,1.68321-1.68321   c0.9301,0,1.68322,0.75312,1.68322,1.68321v18.03559C71.68813,86.34697,70.93501,87.10009,70.00491,87.10009z"/>
    <path d="M70.00491,69.0645c-0.15731,0-0.31658-0.02163-0.47389-0.06686l-12.8424-3.76758   c-0.8888-0.26153-1.40006-1.18966-1.14443-2.07846l2.51303-8.7897c0.17107-0.60171,0.66267-1.05988,1.27618-1.18573   c0.61154-0.12781,1.24471,0.09439,1.64192,0.57812l10.32936,12.55727c0.46996,0.57025,0.51323,1.3804,0.10422,1.99784   C71.09232,68.78921,70.55943,69.0645,70.00491,69.0645z M59.24098,62.46928l5.98761,1.75597l-4.81565-5.8539L59.24098,62.46928z"/>
    <path d="M70.00491,69.0645c-0.55451,0-1.0874-0.27529-1.40595-0.75509c-0.40704-0.61744-0.36378-1.42759,0.10618-1.99784   L79.03648,53.7543c0.39524-0.48176,1.02841-0.70986,1.63799-0.58008c0.61154,0.12585,1.10313,0.57811,1.27814,1.17786   l2.56808,8.7897c0.12585,0.42867,0.07472,0.8888-0.13962,1.28011c-0.21433,0.39328-0.57614,0.68233-1.00481,0.80818   l-12.89942,3.76758C70.3215,69.04287,70.16222,69.0645,70.00491,69.0645z M79.61263,58.35365l-4.83728,5.87946l6.0407-1.76384   L79.61263,58.35365z"/>
    <path d="M70.13273,48.97404c-0.04916,0-0.09832,0-0.14748-0.00197c-0.92813-0.00983-1.67535-0.77279-1.66355-1.7019   c0.00983-0.92321,0.76099-1.66552,1.68321-1.66552c0.0295-0.00196,0.08456,0.00098,0.12782,0.00098   c2.37932,0,4.41254-0.86619,6.21375-2.64772c4.52463-4.47449,6.13116-13.22289,6.13116-19.35601   c0-8.24403-5.01229-13.78331-12.47272-13.78331c-0.93009,0-1.68321-0.7541-1.68321-1.6842s0.75312-1.6842,1.68321-1.6842   c9.32652,0,15.83915,7.05339,15.83915,17.15171c0,6.78104-1.86609,16.54606-7.12811,21.75105   C76.28551,47.75587,73.39888,48.97404,70.13273,48.97404z"/>
    <path d="M42.55235,72.88713H1.68322C0.75312,72.88713,0,72.13401,0,71.20391V30.67987c0-0.9301,0.75312-1.6842,1.68322-1.6842   h40.86914c0.9301,0,1.68322,0.7541,1.68322,1.6842v40.52404C44.23557,72.13401,43.48245,72.88713,42.55235,72.88713z    M3.36643,69.5207h37.5027V32.36407H3.36643V69.5207z" style="fill: rgb(0, 114, 245);"/>
    <path d="M48.5439,72.88713h-5.99155c-0.93009,0-1.68322-0.75312-1.68322-1.68322V30.67987c0-0.9301,0.75312-1.6842,1.68322-1.6842   h5.99155c0.9301,0,1.68322,0.7541,1.68322,1.6842v40.52404C50.22712,72.13401,49.474,72.88713,48.5439,72.88713z M44.23557,69.5207   h2.62511V32.36407h-2.62511V69.5207z" style="fill: rgb(0, 114, 245);"/>
    <path d="M98.31678,93.5498H1.68322C0.75312,93.5498,0,92.79668,0,91.86658v-6.44971c0-0.93009,0.75312-1.68321,1.68322-1.68321   h96.63356c0.9301,0,1.68322,0.75312,1.68322,1.68321v6.44971C100,92.79668,99.24688,93.5498,98.31678,93.5498z M3.36643,90.18336   h93.26714v-3.08327H3.36643V90.18336z"/>
    <path d="M 8.716 83.964 C 8.176 83.964 7.636 83.812 7.242 83.513 C 6.502 82.949 6.557 82.074 7.372 81.558 C 12.428 78.358 15.73 74.662 17.19 70.571 C 17.453 69.829 18.543 69.382 19.605 69.561 C 20.674 69.744 21.326 70.495 21.06 71.237 C 19.409 75.865 15.709 80.027 10.06 83.604 C 9.678 83.844 9.196 83.964 8.716 83.964 Z" style="fill: rgb(0, 114, 245);"/>
    <path d="M 34.756 83.964 C 34.286 83.964 33.817 83.848 33.443 83.608 C 27.806 80.028 24.156 75.86 22.599 71.222 C 22.349 70.479 23.003 69.734 24.057 69.558 C 25.103 69.385 26.168 69.841 26.418 70.585 C 27.789 74.666 31.038 78.356 36.07 81.554 C 36.876 82.066 36.941 82.94 36.214 83.507 C 35.827 83.811 35.292 83.964 34.756 83.964 Z" style="fill: rgb(0, 114, 245);"/>
  </g>
</svg>