<?xml version="1.0" encoding="utf-8"?>
<svg viewBox="0.001 0 99.998 100" xmlns="http://www.w3.org/2000/svg">
  <g>
    <path d="M1.68417,99.99803c-0.93008,0-1.68318-0.75311-1.68318-1.68318c0-11.91796,3.10288-22.77804,8.51227-29.79589   c3.00653-3.91498,7.47011-4.53241,11.40672-5.07512c3.30738-0.45619,6.43189-0.88682,8.68138-3.04487   c1.65762-1.57405,1.5947-4.54224,1.31155-8.89177c-0.06096-0.92811,0.64103-1.72939,1.56914-1.79035   c0.92024-0.04916,1.73038,0.64299,1.78937,1.57012c0.28315,4.31414,0.57417,8.77478-2.34387,11.54731   c-3.03406,2.91018-6.85268,3.43715-10.54743,3.94644c-3.7734,0.51911-7.03162,0.9694-9.19852,3.79109   C6.21461,77.0155,3.36735,87.1264,3.36735,98.31485C3.36735,99.24493,2.61424,99.99803,1.68417,99.99803z"/>
    <path d="M70.11857,67.92316c-0.20253,0-0.409-0.03736-0.6076-0.11601c-0.63709-0.2458-1.32138-0.40114-2.02729-0.55254   c-0.97137-0.18484-2.0037-0.32051-3.03799-0.45619c-3.56693-0.47192-7.60972-1.0048-10.67917-3.97396   c-2.91411-2.76663-2.62113-7.28331-2.33601-11.65054c0.06096-0.9291,0.93204-1.6065,1.7874-1.57111   c0.92811,0.05997,1.63206,0.86126,1.5711,1.78937c-0.28512,4.41541-0.35001,7.42783,1.30761,9.0009   c2.28292,2.20721,5.44282,2.62408,8.78952,3.0665c1.10115,0.14551,2.19836,0.29102,3.26805,0.49552   c0.87699,0.1868,1.70482,0.37754,2.57197,0.71181c0.86716,0.33624,1.29778,1.31155,0.96351,2.1787   C71.43011,67.51416,70.79302,67.92316,70.11857,67.92316z"/>
    <path d="M54.87946,99.99803H1.68417c-0.93008,0-1.68318-0.75311-1.68318-1.68318s0.75311-1.68318,1.68318-1.68318h53.1953   c0.93008,0,1.68319,0.75311,1.68319,1.68318S55.80954,99.99803,54.87946,99.99803z"/>
    <path d="M32.44947,100c-0.69412,0-1.34498-0.43456-1.5888-1.12671l-7.03162-20.035l-3.19923,1.14047   c-0.5899,0.21237-1.24862,0.07669-1.71071-0.35001c-0.46012-0.42473-0.64496-1.07165-0.47979-1.67532l3.7675-13.86857   c0.24383-0.90059,1.17587-1.42953,2.06465-1.18373c0.89861,0.24382,1.42756,1.168,1.18373,2.06465l-2.92197,10.7598l1.7579-0.62726   c0.4208-0.15337,0.88485-0.12585,1.29188,0.06489c0.4031,0.1927,0.71575,0.53877,0.86322,0.96153l7.59203,21.63167   c0.30872,0.87895-0.15337,1.83852-1.03036,2.14724C32.82307,99.96854,32.6343,100,32.44947,100z"/>
    <path d="M52.25441,100c-0.1868,0-0.37754-0.03146-0.56237-0.09832c-0.87698-0.31068-1.33514-1.27419-1.02446-2.1492   l2.51101-7.07881c0.31265-0.87698,1.28009-1.33711,2.14921-1.02446c0.87698,0.31068,1.33514,1.27419,1.02446,2.1492   l-2.51101,7.07881C53.59545,99.56741,52.94656,100,52.25441,100z M61.49815,68.55042c-0.74327,0-1.42363-0.49748-1.62419-1.24862   l-0.62726-2.33994c-0.24186-0.89861,0.29102-1.82279,1.18963-2.06269c0.90058-0.24186,1.8228,0.29102,2.06269,1.18963   l0.62726,2.33994c0.24186,0.89861-0.29102,1.82279-1.18963,2.06268C61.78917,68.53075,61.64366,68.55042,61.49815,68.55042z"/>
    <path d="M36.84423,75.96744c-0.4267,0-0.83963-0.16124-1.15227-0.45422L24.67654,65.18405   c-0.67839-0.63709-0.71181-1.70285-0.07669-2.38124c0.63906-0.67642,1.70088-0.71181,2.38123-0.07669l9.7255,9.12183   l3.13237-3.68098l-9.94376-6.26966c-0.78654-0.4965-1.0225-1.53571-0.52501-2.32225   c0.49355-0.78653,1.53768-1.01856,2.32224-0.52698l11.58566,7.30592c0.41293,0.25956,0.69215,0.68625,0.7649,1.16997   c0.07472,0.48176-0.06489,0.97334-0.38147,1.34498l-5.53524,6.50661c-0.29888,0.35001-0.72754,0.56434-1.18767,0.5899   C36.90715,75.96744,36.87569,75.96744,36.84423,75.96744z"/>
    <path d="M36.38804,100c-0.16911,0-0.34018-0.02753-0.51125-0.08062c-0.88485-0.28119-1.37447-1.22896-1.09328-2.11578   l5.73974-18.04114l-4.03296-5.76727c-0.53288-0.76294-0.34608-1.81296,0.41489-2.34584   c0.76687-0.53091,1.81296-0.34607,2.34584,0.4149l4.50881,6.44958c0.30085,0.43063,0.38344,0.9753,0.22416,1.47672   L37.99257,98.8261C37.76447,99.54185,37.10182,99.99803,36.38804,100z"/>
    <path d="M48.31583,100c-0.71575,0-1.38037-0.46012-1.6065-1.1798l-5.93637-18.83553   c-0.15534-0.49552-0.07472-1.03429,0.22023-1.46296l4.45375-6.44958c0.53091-0.76491,1.577-0.95367,2.34387-0.42867   c0.7649,0.52895,0.95564,1.577,0.42866,2.34387l-3.98576,5.7712l5.68861,18.05096c0.27922,0.88682-0.21433,1.83263-1.10115,2.11185   C48.65404,99.97443,48.48297,100,48.31583,100z"/>
    <path d="M47.85964,75.96744c-0.03343,0-0.06489,0-0.09832-0.00197c-0.46209-0.02753-0.89272-0.24382-1.18963-0.59579   l-5.48018-6.50661c-0.31265-0.37164-0.45029-0.86126-0.37557-1.34301c0.07275-0.47979,0.35197-0.90452,0.76294-1.16407   l11.5306-7.30592c0.78653-0.49749,1.82673-0.26152,2.32224,0.52108c0.49748,0.78555,0.26545,1.82673-0.52108,2.32421   l-9.90051,6.27163l3.09305,3.67508l9.7196-9.11594c0.67642-0.63512,1.74414-0.59973,2.38123,0.07669   c0.63513,0.67839,0.6017,1.74414-0.07669,2.38124L49.01192,75.51321C48.69927,75.8062,48.28634,75.96744,47.85964,75.96744z"/>
    <path d="M42.50531,57.47601c-0.04719,0-0.09242,0-0.13961,0c-16.05317-0.12879-21.24627-21.68574-21.24627-32.10535   c0-2.14429,0.27135-3.99953,0.82979-5.67091c0.29495-0.8819,1.24862-1.35677,2.12954-1.06281   c0.88288,0.29397,1.35874,1.24862,1.06379,2.13053c-0.44242,1.32138-0.65676,2.82759-0.65676,4.60319   c0,8.95765,4.50881,28.63084,17.90742,28.73702c0.0354,0.00098,0.07079,0.00098,0.10815,0.00098   c3.41749,0,6.48301-1.32138,9.112-3.92874c5.64928-5.60308,8.60469-16.72173,8.60469-24.80927   c0-1.77069-0.2163-3.2769-0.65676-4.60516c-0.29495-0.8819,0.18287-1.83558,1.06575-2.12954   c0.87109-0.29397,1.83459,0.18287,2.12757,1.06575c0.55844,1.6763,0.8298,3.53056,0.8298,5.66895   c0,8.51424-3.00456,20.65734-9.59966,27.19934C50.70296,55.82626,46.84108,57.47601,42.50531,57.47601z"/>
    <path d="M61.15994,21.91777c-0.07079,0-0.14354-0.00492-0.2163-0.01377c-12.0851-1.55439-22.66989-4.52552-31.46138-8.83377   c-0.83373-0.409-1.1798-1.41773-0.7708-2.25342c0.41096-0.83274,1.41773-1.18275,2.25342-0.7708   c8.45721,4.14504,18.68806,7.01097,30.40742,8.51719c0.92221,0.11896,1.57504,0.96252,1.45509,1.88473   C62.71925,21.29739,61.99367,21.91777,61.15994,21.91777z"/>
    <path d="M61.15601,21.91777c-0.23006,0-0.46602-0.04818-0.69215-0.14944c-0.84749-0.38343-1.22306-1.38037-0.83963-2.22786   c1.62223-3.59151,1.56717-6.77206-0.1632-9.45414c-2.67619-4.14405-9.22015-6.71799-17.08157-6.71799   c-0.93008,0-1.68318-0.75409-1.68318-1.68417S41.44939,0,42.37946,0c9.12774,0,16.57228,3.08813,19.90916,8.26058   c1.64582,2.54641,3.04979,6.81237,0.4031,12.66616C62.41053,21.54908,61.799,21.91777,61.15601,21.91777z"/>
    <path d="M23.54786,21.91777c-0.64299,0-1.25452-0.36869-1.53571-0.99103c-2.64472-5.85182-1.24272-10.11385,0.40113-12.65927   C25.75409,3.09108,33.2183,0,42.37946,0c0.93008,0,1.68319,0.75409,1.68319,1.68417s-0.75311,1.68417-1.68319,1.68417   c-7.89287,0-14.45847,2.57688-17.13662,6.72487c-1.73038,2.68012-1.78543,5.85772-0.1632,9.44726   c0.38343,0.84749,0.00786,1.84443-0.83963,2.22786C24.01388,21.86959,23.77792,21.91777,23.54786,21.91777z"/>
    <path d="M23.54393,21.91777c-0.89468,0-1.63796-0.70395-1.67925-1.60748c-0.04326-0.92811,0.67445-1.71563,1.60453-1.75889   c5.82232-0.26644,10.34293-1.85131,13.81744-4.84505c0.70395-0.60465,1.76577-0.52894,2.37534,0.17697   c0.60563,0.70493,0.52698,1.76774-0.17697,2.37533c-4.01133,3.45485-9.34796,5.35827-15.86243,5.65715   C23.59702,21.91678,23.57146,21.91777,23.54393,21.91777z"/>
    <path d="M98.31583,90.12309c-0.93008,0-1.68318-0.75311-1.68318-1.68318V58.58896c0-0.93008,0.75311-1.68417,1.68318-1.68417   s1.68318,0.75409,1.68318,1.68417v29.85095C99.99902,89.36999,99.24591,90.12309,98.31583,90.12309z" style="fill: rgb(0, 114, 245);"/>
    <path d="M92.77863,95.60327c-3.94841,0-7.1614-3.21299-7.1614-7.16336c0-0.93008,0.75311-1.68319,1.68318-1.68319   s1.68319,0.75311,1.68319,1.68319c0,2.09415,1.70284,3.797,3.79503,3.797c2.1256,0,3.85402-1.70285,3.85402-3.797   c0-0.93008,0.75311-1.68319,1.68318-1.68319s1.68318,0.75311,1.68318,1.68319   C99.99902,92.39028,96.76046,95.60327,92.77863,95.60327z" style="fill: rgb(0, 114, 245);"/>
    <path d="M87.30042,78.30934c-0.93008,0-1.68318-0.75311-1.68318-1.68318c0-2.12561-1.72841-3.85402-3.85402-3.85402   c-2.161,0-3.85402,1.69302-3.85402,3.85402c0,0.93008-0.75311,1.68318-1.68318,1.68318s-1.68319-0.75311-1.68319-1.68318   c0-3.98183,3.23856-7.22038,7.22039-7.22038s7.22039,3.23856,7.22039,7.22038   C88.9836,77.55624,88.23049,78.30934,87.30042,78.30934z" style="fill: rgb(0, 114, 245);"/>
    <path d="M60.0175,78.30934c-0.93008,0-1.68319-0.75311-1.68319-1.68318c0-3.98183,3.23856-7.22038,7.21842-7.22038   c0.93008,0,1.68319,0.75311,1.68319,1.68318s-0.75311,1.68318-1.68319,1.68318c-2.12364,0-3.85205,1.72841-3.85205,3.85402   C61.70068,77.55624,60.94758,78.30934,60.0175,78.30934z" style="fill: rgb(0, 114, 245);"/>
    <path d="M92.77863,95.60327H76.62714c-0.93008,0-1.68318-0.75311-1.68318-1.68318s0.75311-1.68318,1.68318-1.68318h16.15149   c0.93008,0,1.68318,0.75311,1.68318,1.68318S93.70871,95.60327,92.77863,95.60327z" style="fill: rgb(0, 114, 245);"/>
    <path d="M87.30042,90.12309c-0.93008,0-1.68318-0.75311-1.68318-1.68318V76.62616c0-0.93008,0.75311-1.68318,1.68318-1.68318   s1.68319,0.75311,1.68319,1.68318v11.81375C88.9836,89.36999,88.23049,90.12309,87.30042,90.12309z" style="fill: rgb(0, 114, 245);"/>
    <path d="M81.76321,72.77214H65.55273c-0.93008,0-1.68318-0.75311-1.68318-1.68318s0.75311-1.68318,1.68318-1.68318h16.21048   c0.93008,0,1.68318,0.75311,1.68318,1.68318S82.69329,72.77214,81.76321,72.77214z" style="fill: rgb(0, 114, 245);"/>
    <path d="M76.22601,99.99803c-0.93008,0-1.68319-0.75311-1.68319-1.68318V76.62616c0-0.93008,0.75311-1.68318,1.68319-1.68318   s1.68318,0.75311,1.68318,1.68318v21.68869C77.90919,99.24493,77.15609,99.99803,76.22601,99.99803z" style="fill: rgb(0, 114, 245);"/>
    <path d="M60.0175,99.99803c-0.93008,0-1.68319-0.75311-1.68319-1.68318V76.62616c0-0.93008,0.75311-1.68318,1.68319-1.68318   c0.93008,0,1.68318,0.75311,1.68318,1.68318v21.68869C61.70068,99.24493,60.94758,99.99803,60.0175,99.99803z" style="fill: rgb(0, 114, 245);"/>
    <path d="M76.22601,99.99803H60.0175c-0.93008,0-1.68319-0.75311-1.68319-1.68318s0.75311-1.68318,1.68319-1.68318h16.20851   c0.93008,0,1.68318,0.75311,1.68318,1.68318S77.15609,99.99803,76.22601,99.99803z" style="fill: rgb(0, 114, 245);"/>
    <path d="M82.10535,72.77214c-0.93008,0-1.68318-0.75311-1.68318-1.68318v-12.5c0-0.93008,0.75311-1.68417,1.68318-1.68417   s1.68319,0.75409,1.68319,1.68417v12.5C83.78854,72.01904,83.03543,72.77214,82.10535,72.77214z" style="fill: rgb(0, 114, 245);"/>
    <path d="M98.31583,60.27312H82.10535c-0.93008,0-1.68318-0.75409-1.68318-1.68417c0-0.93008,0.75311-1.68417,1.68318-1.68417   h16.21048c0.93008,0,1.68318,0.75409,1.68318,1.68417C99.99902,59.51904,99.24591,60.27312,98.31583,60.27312z" style="fill: rgb(0, 114, 245);"/>
    <path d="M93.23482,65.86637H87.1844c-0.93008,0-1.68318-0.75311-1.68318-1.68319S86.25433,62.5,87.1844,62.5h6.05042   c0.93008,0,1.68319,0.75311,1.68319,1.68318S94.16489,65.86637,93.23482,65.86637z"/>
    <path d="M93.23482,72.14488h-3.02422c-0.93008,0-1.68318-0.75311-1.68318-1.68319s0.75311-1.68318,1.68318-1.68318h3.02422   c0.93008,0,1.68319,0.75311,1.68319,1.68318S94.16489,72.14488,93.23482,72.14488z"/>
    <path d="M71.14697,85.8994h-6.05042c-0.93008,0-1.68319-0.75311-1.68319-1.68318s0.75311-1.68318,1.68319-1.68318h6.05042   c0.93008,0,1.68318,0.75311,1.68318,1.68318S72.07704,85.8994,71.14697,85.8994z"/>
    <path d="M71.14697,92.12089h-3.02422c-0.93008,0-1.68319-0.75311-1.68319-1.68318s0.75311-1.68318,1.68319-1.68318h3.02422   c0.93008,0,1.68318,0.75311,1.68318,1.68318S72.07704,92.12089,71.14697,92.12089z"/>
    <path d="M71.14697,79.62089h-6.05042c-0.93008,0-1.68319-0.75311-1.68319-1.68318s0.75311-1.68318,1.68319-1.68318h6.05042   c0.93008,0,1.68318,0.75311,1.68318,1.68318S72.07704,79.62089,71.14697,79.62089z"/>
    <path d="M79.59435,54.965c-0.28119,0-0.56041-0.07079-0.81406-0.2104c-6.27261-3.4637-11.43228-8.60469-14.92646-14.8655   c-0.45226-0.8121-0.16124-1.83754,0.65086-2.29078c0.81406-0.45226,1.83852-0.16026,2.29079,0.65086   c3.03406,5.43692,7.44651,9.94769,12.79888,13.09383c10.53366-6.18019,17.03831-17.48958,17.03831-29.73985   c0-0.6833-0.02163-1.3843-0.0649-2.07154c-3.78912-0.94089-6.99033-3.57578-8.70693-7.18401   c-5.76137-0.4847-10.82075-0.48077-16.56049-0.00197c-0.50928,1.13458-1.17194,2.16494-1.97813,3.0724   c-0.62136,0.69412-1.68318,0.75507-2.3773,0.13764c-0.69608-0.61743-0.75703-1.6822-0.13961-2.3773   c0.75114-0.84258,1.32925-1.84246,1.72251-2.97212c0.2163-0.62431,0.77867-1.0628,1.43542-1.12376   c3.32508-0.30773,6.5656-0.46406,9.63112-0.46406c3.07142,0,6.20183,0.15239,9.57213,0.46406   c0.63905,0.05899,1.18766,0.47585,1.41772,1.0746c1.30171,3.40471,4.28661,5.81741,7.78866,6.29621   c0.77081,0.10618,1.37054,0.72656,1.44723,1.5013c0.11797,1.17489,0.17893,2.43629,0.17893,3.64854   c0,13.78893-7.50747,26.49245-19.59258,33.15243C80.15475,54.8952,79.87357,54.965,79.59435,54.965z" style="fill: rgb(0, 114, 245);"/>
    <path d="M79.59435,39.66887c-5.58636,0-10.13056-4.51962-10.13056-10.07452c0-5.58636,4.5442-10.13155,10.13056-10.13155h0.39916   c0.93008,0,1.68319,0.75409,1.68319,1.68417c0,0.93008-0.75311,1.68417-1.68319,1.68417h-0.39916   c-3.73014,0-6.7642,3.03406-6.7642,6.76321c0,3.6977,3.03406,6.70619,6.7642,6.70619c3.69868,0,6.70718-3.00849,6.70718-6.70619   c0-1.79428-0.65676-3.43912-1.84836-4.63269c-0.65676-0.65774-0.65676-1.72349,0.00197-2.38123   c0.65675-0.65676,1.72447-0.65676,2.38123,0.00197c1.82672,1.82869,2.83152,4.31906,2.83152,7.01196   C89.66788,35.14925,85.14925,39.66887,79.59435,39.66887z"/>
    <path d="M79.42327,32.41997c-0.45226,0-0.88682-0.18287-1.20536-0.5083l-2.33994-2.39697   c-0.64889-0.66462-0.63709-1.73136,0.0295-2.38025c0.66266-0.65086,1.73038-0.63709,2.38123,0.02851l1.03233,1.05691   l7.59399-9.17394c0.5958-0.71869,1.65369-0.81603,2.3714-0.22318c0.71575,0.59285,0.81603,1.65467,0.22417,2.37042   l-8.78953,10.61625c-0.30478,0.3677-0.75114,0.58892-1.22896,0.60858C79.4685,32.41899,79.44687,32.41997,79.42327,32.41997z" style="fill: rgb(0, 114, 245);"/>
  </g>
</svg>