<svg xmlns="http://www.w3.org/2000/svg" xmlns:xlink="http://www.w3.org/1999/xlink" version="1.1" x="0px" y="0px" viewBox="0 0 100 125" style="enable-background:new 0 0 100 100;" xml:space="preserve"><g><path d="M42.90975,58.73293c-4.38882,0-8.29589-1.66154-11.61699-4.93939c-6.59306-6.50654-9.64478-18.63969-9.68804-27.15777   c-0.0059-0.93007,0.74523-1.68808,1.6753-1.693c0.00197,0,0.0059,0,0.00787,0c0.92613,0,1.67923,0.74818,1.68317,1.6753   c0.04129,7.8456,2.77644,18.94644,8.68718,24.77853c2.69582,2.66043,5.85372,3.96999,9.3636,3.96803   c13.47516-0.10815,18.03898-19.42032,18.13729-28.7554c0.00983-0.92417,0.76097-1.66645,1.68317-1.66645   c0.0059,0,0.0118,0,0.0177,0.00098c0.93007,0.00885,1.6753,0.7708,1.66547,1.70086   c-0.12978,12.3406-6.07592,31.96443-21.4761,32.08634C43.00217,58.73096,42.95498,58.73293,42.90975,58.73293z"/><path d="M3.48315,99.99803c-0.93007,0-1.68317-0.7531-1.68317-1.68317c0-11.58749,3.01633-22.17414,8.27819-29.04839   c2.91408-3.82645,7.27734-4.41634,11.12738-4.93938c3.22672-0.43652,6.27451-0.84945,8.44533-2.95144   c1.63794-1.55142,1.46097-4.80568,1.25844-8.5751c-0.05112-0.9281,0.66265-1.72249,1.59075-1.77165   c0.92024-0.05309,1.72053,0.66068,1.77165,1.59075c0.23792,4.41045,0.46405,8.57904-2.29076,11.18834   c-2.95144,2.85706-6.86834,3.38796-10.32316,3.85594c-3.66521,0.49748-6.83098,0.92614-8.90348,3.64752   c-4.82337,6.30007-7.58801,16.14149-7.58801,27.00341C5.16632,99.24493,4.41322,99.99803,3.48315,99.99803z"/><path d="M82.64703,99.99803c-0.93007,0-1.68317-0.7531-1.68317-1.68317c0-10.6299-2.70959-20.37299-7.43268-26.73599   c-0.55254-0.74524-0.39719-1.80115,0.35001-2.35565c0.74523-0.55057,1.80311-0.39719,2.35564,0.35001   c5.14388,6.9293,8.09336,17.40386,8.09336,28.74164C84.3302,99.24493,83.5771,99.99803,82.64703,99.99803z M61.30267,67.17825   c-0.11208,0-0.22613-0.00983-0.34017-0.03342c-2.88655-0.59187-5.06523-1.64974-6.86245-3.33094   c-2.8138-2.73908-2.52278-7.10627-2.2416-11.32991c0.06096-0.92613,0.89074-1.6517,1.79132-1.56715   c0.9281,0.06096,1.63007,0.86321,1.56715,1.79131c-0.28315,4.25117-0.35197,7.15149,1.20732,8.67145   c1.31743,1.23092,2.93374,1.99778,5.21467,2.46576c0.9104,0.1868,1.49833,1.07754,1.31153,1.98795   C62.78724,66.62965,62.08527,67.17825,61.30267,67.17825z"/><path d="M82.64703,99.99803H54.10792c-0.93007,0-1.68317-0.7531-1.68317-1.68317s0.7531-1.68317,1.68317-1.68317h28.53911   c0.93007,0,1.68317,0.7531,1.68317,1.68317S83.5771,99.99803,82.64703,99.99803z M36.70013,99.99803H3.48315   c-0.93007,0-1.68317-0.7531-1.68317-1.68317s0.7531-1.68317,1.68317-1.68317h33.21697c0.93007,0,1.68317,0.7531,1.68317,1.68317   S37.6302,99.99803,36.70013,99.99803z"/><path d="M19.91959,100c-0.1573,0-0.31854-0.0236-0.47585-0.07079c-0.89271-0.26349-1.40198-1.19946-1.1385-2.09019   l6.05035-20.49098c0.2104-0.71574,0.86715-1.20731,1.61435-1.20731H43.0356c0.93007,0,1.68317,0.7531,1.68317,1.68317   s-0.7531,1.68317-1.68317,1.68317H27.22838l-5.69445,19.28366C21.31764,99.52415,20.64713,99.99803,19.91959,100z"/><path d="M25.96994,79.50903c-0.65085,0-1.27024-0.38147-1.54552-1.01659l-5.07899-11.75661   c-0.36967-0.85535,0.0236-1.84637,0.87698-2.21407c0.85142-0.37163,1.84244,0.0236,2.21407,0.87698l5.07899,11.7566   c0.36967,0.85535-0.0236,1.84637-0.87698,2.21407C26.42023,79.4638,26.1941,79.50903,25.96994,79.50903z"/><path d="M66.15161,100c-0.72754,0-1.39609-0.47388-1.61435-1.20535l-3.42532-11.53047   c-0.26545-0.89075,0.24382-1.82867,1.13457-2.09413c0.9045-0.26545,1.82867,0.24579,2.09412,1.13457l3.42532,11.53047   c0.26545,0.89075-0.24382,1.82867-1.13457,2.09413C66.47015,99.9764,66.30891,100,66.15161,100z M52.05312,79.50706H43.0356   c-0.93007,0-1.68317-0.7531-1.68317-1.68317s0.7531-1.68317,1.68317-1.68317h9.01752c0.93007,0,1.68317,0.7531,1.68317,1.68317   S52.98319,79.50706,52.05312,79.50706z"/><path d="M43.06509,30.56644c-6.78379,0-13.56365-0.76686-20.15867-2.29961c-0.90647-0.2104-1.46884-1.11588-1.25844-2.02137   s1.11883-1.46589,2.02137-1.25844c12.68471,2.94849,26.09891,2.95046,38.79148,0c0.90254-0.20941,1.81098,0.35295,2.02137,1.25844   c0.2104,0.90647-0.35197,1.81098-1.25845,2.02137C56.63071,29.79957,49.84495,30.56644,43.06509,30.56644z"/><path d="M23.28789,28.31107c-0.15337,0-0.31068-0.02163-0.46602-0.06587c-0.89271-0.2566-1.40985-1.18962-1.15226-2.08331   c2.72138-9.46585,5.26383-15.80918,7.77481-19.39279c0.53091-0.76096,1.58289-0.94776,2.34385-0.41391   c0.76293,0.53385,0.94776,1.58387,0.41293,2.34483c-2.26126,3.22869-4.71523,9.41669-7.29503,18.39194   C24.6938,27.83031,24.02132,28.31107,23.28789,28.31107z"/><path d="M35.44759,30.25183c-0.14551,0-0.29298-0.01868-0.43849-0.05801c-0.89861-0.24186-1.43148-1.16504-1.18962-2.06365   c1.95059-7.25276,8.88382-14.59695,20.60306-21.82807c0.76096-0.4729,1.75395-0.2625,2.26519,0.467   c2.50705,3.58361,5.0495,9.92694,7.77285,19.39279c0.25758,0.89271-0.25956,1.82572-1.15226,2.08331   c-0.89467,0.25857-1.82671-0.25955-2.0843-1.15324c-2.2593-7.85248-4.42028-13.57151-6.43968-17.04108   c-10.1108,6.46328-16.06677,12.83513-17.71257,18.9543C36.86923,29.75631,36.18888,30.25183,35.44759,30.25183z"/><path d="M43.49375,18.20912c-0.58989,0-1.16209-0.30969-1.4708-0.85928c-2.11772-3.77336-5.93041-6.38856-11.65435-7.99406   c-0.89664-0.25169-1.41772-1.18077-1.16603-2.07643c0.25169-0.89467,1.17586-1.41476,2.07446-1.16603   c6.53604,1.83359,11.13918,5.05933,13.68359,9.58677c0.45422,0.8111,0.16714,1.83752-0.64495,2.29272   C44.05611,18.13932,43.77296,18.20912,43.49375,18.20912z"/><path d="M51.76997,11.70258c-0.51124,0-1.01659-0.23203-1.34693-0.67051c-2.51885-3.34372-4.78798-5.92058-7.50739-7.49658   C41.3603,4.2296,38.9319,5.93145,35.46725,9.97223c-0.60563,0.70787-1.67137,0.78653-2.37334,0.18188   c-0.70591-0.60563-0.78849-1.66842-0.18287-2.37433c3.65931-4.26592,6.79952-6.78379,9.60349-7.69616   c0.42079-0.13961,0.88681-0.10323,1.284,0.10028c3.58656,1.82277,6.31778,4.845,9.31444,8.82089   c0.55843,0.74327,0.41096,1.7982-0.33231,2.3586C52.47785,11.59149,52.12194,11.70258,51.76997,11.70258z"/><path d="M90.06397,63.23972c-0.35,0-0.7059-0.10815-1.00872-0.33624L67.13869,46.46607   c-0.74129-0.55548-0.89271-1.6055-0.34213-2.34975l4.90792-6.62059c0.26742-0.35983,0.66658-0.59874,1.109-0.66363   c0.44242-0.06292,0.89468,0.05014,1.25255,0.31855l21.97554,16.43643c0.35787,0.26742,0.59383,0.66658,0.65872,1.109   c0.06292,0.44242-0.05309,0.89271-0.32051,1.25058l-4.96692,6.62059C91.08253,63.0077,90.57719,63.23972,90.06397,63.23972z    M70.49913,44.777L89.7297,59.19894l2.94358-3.92477L73.40338,40.8601L70.49913,44.777z"/><path d="M70.60138,43.493c-0.34607,0-0.69608-0.10716-0.99692-0.32837l-2.16885-1.59763   c-0.74917-0.55155-0.90844-1.6055-0.3559-2.35466c0.54663-0.7472,1.60255-0.90942,2.35368-0.35688l2.16885,1.59763   c0.74917,0.55155,0.90844,1.6055,0.3559,2.35466C71.62976,43.25507,71.11852,43.493,70.60138,43.493z"/><path d="M96.51349,62.89759c-0.34804,0-0.7-0.10815-1.00282-0.33231l-3.99556-2.96717   c-0.74523-0.55253-0.90057-1.60844-0.34607-2.35564c0.55254-0.74524,1.60452-0.90057,2.35564-0.34607l3.99556,2.96717   c0.74523,0.55254,0.90057,1.60845,0.34607,2.35565C97.53597,62.66359,97.02866,62.89759,96.51349,62.89759z"/><path d="M90.63617,70.71762c-0.35197,0-0.7059-0.11011-1.00871-0.33624L74.73064,59.19501   c-0.74327-0.55843-0.89468-1.61435-0.33624-2.35761s1.61631-0.89074,2.35761-0.33624l14.89681,11.18637   c0.74326,0.55843,0.89468,1.61435,0.33624,2.35761C91.65472,70.4856,91.14742,70.71762,90.63617,70.71762z"/><path d="M90.63617,70.71762c-0.35197,0-0.7059-0.11011-1.00871-0.33624c-0.74524-0.5604-0.89468-1.61435-0.33624-2.35761   l5.87732-7.82004c0.56236-0.74327,1.61434-0.89271,2.35761-0.33624c0.74523,0.5604,0.89467,1.61435,0.33624,2.35761   l-5.87731,7.82004C91.65276,70.4856,91.14742,70.71762,90.63617,70.71762z"/><path d="M72.25702,64.21108c-0.34804,0-0.70197-0.10815-1.00282-0.33231c-0.7472-0.5545-0.90057-1.61041-0.34607-2.35564   l3.48235-4.67983c0.55254-0.74524,1.61041-0.90254,2.35564-0.34607c0.7472,0.5545,0.90057,1.61041,0.34607,2.35565   l-3.48235,4.67983C73.2795,63.97709,72.77219,64.21108,72.25702,64.21108z"/><path d="M48.28763,99.99803h-5.76524c-0.63708,0-1.22108-0.35983-1.5062-0.93007c-0.28511-0.57023-0.22416-1.25254,0.15731-1.76182   l27.85286-37.21449c0.26939-0.35787,0.66855-0.59579,1.11294-0.65871c0.43848-0.05703,0.89074,0.05309,1.25057,0.32248   l3.71044,2.79807c0.73933,0.55843,0.88877,1.61238,0.33231,2.35565L49.63456,99.32555   C49.31601,99.74831,48.81853,99.99803,48.28763,99.99803z M45.88479,96.6317h1.56126l24.28596-32.39899l-1.02052-0.77079   L45.88479,96.6317z"/></g><text x="0" y="115" fill="#000000" font-size="5px" font-weight="bold" font-family="'Helvetica Neue', Helvetica, Arial-Unicode, Arial, Sans-serif">Created by Grégory Montigny</text><text x="0" y="120" fill="#000000" font-size="5px" font-weight="bold" font-family="'Helvetica Neue', Helvetica, Arial-Unicode, Arial, Sans-serif">from the Noun Project</text></svg>