<?xml version="1.0" encoding="utf-8"?>
<svg viewBox="0 0.0323 100 99.9354" xmlns="http://www.w3.org/2000/svg">
  <g>
    <path d="M49.85066,65.00268c-3.78478,0-7.15493-1.43845-10.01808-4.27409c-5.71058-5.65752-8.3104-16.13543-8.3104-23.47704   c0-0.92949,0.75263-1.68311,1.68212-1.68311c0.92949,0,1.68213,0.75362,1.68213,1.68311   c0,6.87785,2.51336,16.32801,7.3141,21.08552c2.23825,2.21663,4.82825,3.32298,7.75821,3.2994   c11.29932-0.10611,15.10375-16.78981,15.10375-24.38492c0-0.92949,0.75264-1.68311,1.68213-1.68311   s1.68212,0.75362,1.68212,1.68311c0,8.99819-4.50597,27.61947-18.43656,27.74917   C49.94302,65.00071,49.89586,65.00268,49.85066,65.00268z"/>
    <path d="M16.43414,99.96769c-0.92949,0-1.68212-0.75263-1.68212-1.68212c0-9.87856,2.58018-18.90033,7.07829-24.75436   c2.55463-3.3446,6.31583-3.85749,9.63292-4.31142c2.69022-0.36748,5.23109-0.71333,7.01934-2.43672   c1.24194-1.20068,1.18692-3.68653,0.97076-7.06454c-0.05896-0.92752,0.64651-1.72732,1.57404-1.78627   c0.90591-0.05306,1.72732,0.64652,1.78627,1.57404c0.22795,3.5981,0.46376,7.32-1.99458,9.69777   c-2.58214,2.48782-5.93853,2.94569-8.89993,3.35049c-3.05966,0.41857-5.70272,0.77818-7.41629,3.02429   c-4.05989,5.28022-6.38657,13.55525-6.38657,22.70673C18.11627,99.21506,17.36363,99.96769,16.43414,99.96769z"/>
    <path d="M83.57177,99.96769c-0.9295,0-1.68213-0.75263-1.68213-1.68212c0-9.16719-2.34436-17.44026-6.43373-22.69494   c-1.69981-2.25986-4.33305-2.61948-7.37895-3.03608c-2.95747-0.40481-6.30993-0.86268-8.88815-3.34657   c-2.46423-2.31292-2.23628-5.95818-1.99654-9.81567c0.05895-0.92752,0.87054-1.61335,1.78431-1.57601   c0.92753,0.05895,1.633,0.85678,1.57601,1.78431c-0.19847,3.17953-0.37141,5.92477,0.95504,7.16869   c1.80396,1.73714,4.33894,2.083,7.02523,2.45048c3.31316,0.45197,7.06847,0.96683,9.59558,4.32518   c4.52366,5.81277,7.12545,14.83847,7.12545,24.74061C85.25389,99.21506,84.50126,99.96769,83.57177,99.96769z"/>
    <path d="M83.57177,99.96769H16.43414c-0.92949,0-1.68212-0.75263-1.68212-1.68212c0-0.9295,0.75263-1.68213,1.68212-1.68213   h67.13763c0.92949,0,1.68212,0.75263,1.68212,1.68213C85.25389,99.21506,84.50126,99.96769,83.57177,99.96769z"/>
    <path d="M49.97446,78.52256c-0.1631,0-0.33014-0.02554-0.4952-0.07664c-4.02059-1.23801-8.28682-3.91448-12.68079-7.95669   c-0.68386-0.62883-0.72709-1.69392-0.09826-2.37777c0.62883-0.68189,1.69195-0.72906,2.37777-0.09826   c4.0206,3.70029,7.8545,6.12718,11.39168,7.21781c0.88823,0.27315,1.38736,1.21443,1.11225,2.10265   C51.35986,78.05683,50.69369,78.52256,49.97446,78.52256z"/>
    <path d="M33.2043,38.93465c-0.64455,0-1.26159-0.37435-1.53867-1.00318c-0.37533-0.85089,0.00982-1.84425,0.85875-2.21958   c11.12246-4.90685,23.84255-4.90685,34.90214,0.00196c0.85088,0.37632,1.23408,1.37066,0.85678,2.22056   c-0.3773,0.85089-1.37753,1.23212-2.22057,0.85482c-10.1969-4.52366-21.92658-4.52562-32.1785,0.00196   C33.66217,38.88847,33.43225,38.93465,33.2043,38.93465z"/>
    <path d="M33.2043,38.93465c-0.92949,0-1.68212-0.75362-1.68212-1.68311V5.25186c0-0.92949,0.75263-1.68311,1.68212-1.68311   c0.92949,0,1.68213,0.75362,1.68213,1.68311v31.99968C34.88643,38.18103,34.13379,38.93465,33.2043,38.93465z"/>
    <path d="M49.97446,78.52256c-0.72316,0-1.38932-0.46966-1.60942-1.19675c-0.27118-0.88822,0.23188-1.82755,1.12207-2.09676   c3.53128-1.07098,7.27676-3.43499,11.44867-7.2237c0.68778-0.62294,1.75287-0.57381,2.37777,0.11398   c0.6249,0.68975,0.57381,1.75287-0.11398,2.37777c-4.55117,4.13261-8.71718,6.73243-12.73777,7.95079   C50.30067,78.49898,50.1356,78.52256,49.97446,78.52256z"/>
    <path d="M66.74462,38.93465c-0.92949,0-1.68213-0.75362-1.68213-1.68311V5.25186c0-0.92949,0.75264-1.68311,1.68213-1.68311   s1.68212,0.75362,1.68212,1.68311v31.99968C68.42674,38.18103,67.67411,38.93465,66.74462,38.93465z"/>
    <path d="M49.97446,99.96769c-0.92949,0-1.68213-0.75263-1.68213-1.68212v-21.4471c0-0.92949,0.75263-1.68213,1.68213-1.68213   s1.68213,0.75264,1.68213,1.68213v21.4471C51.65659,99.21506,50.90395,99.96769,49.97446,99.96769z"/>
    <path d="M45.06957,90.09896c-0.92949,0-1.68213-0.75263-1.68213-1.68212v-1.7116c0-0.9295,0.75263-1.68213,1.68213-1.68213   s1.68213,0.75263,1.68213,1.68213v1.7116C46.7517,89.34633,45.99907,90.09896,45.06957,90.09896z"/>
    <path d="M46.06981,54.52673c-1.18299,0-2.39153-0.31638-3.60793-0.95504c-0.82141-0.43036-1.13976-1.44828-0.70744-2.27165   c0.43232-0.82141,1.44632-1.14172,2.27166-0.70744c1.79217,0.93932,3.23848,0.73691,4.82825-0.67796   c0.69564-0.61901,1.75876-0.56005,2.3758,0.13559c0.61901,0.69368,0.55809,1.75877-0.13559,2.3758   C49.52642,53.82322,47.82857,54.52673,46.06981,54.52673z"/>
    <path d="M53.92234,54.52673c-1.74501,0-3.45071-0.69761-5.0503-2.08497c-0.70154-0.60918-0.77818-1.6723-0.169-2.37384   c0.61311-0.70154,1.67427-0.77425,2.37384-0.16899c1.61924,1.40504,3.10879,1.6212,4.83218,0.70154   c0.82338-0.44804,1.8413-0.13166,2.27755,0.68582c0.44018,0.81945,0.13363,1.83933-0.68582,2.27755   C56.30405,54.20642,55.10534,54.52673,53.92234,54.52673z"/>
    <path d="M85.4563,55.64684c-0.63276,0-1.23605-0.35568-1.52492-0.96486c-0.39498-0.84106-0.03537-1.84326,0.80569-2.24022   c3.88107-1.82951,10.02398-6.51627,11.10674-7.59609c0.50896-0.50994,0.78997-1.19085,0.78997-1.91892   c0-0.72709-0.28101-1.40898-0.78997-1.91892c-1.08866-1.05035-2.78258-1.05722-3.8398,0   c-1.16924,1.1712-5.86189,7.25809-7.58725,11.03305c-0.38713,0.84499-1.38933,1.21836-2.23039,0.83124   c-0.84499-0.38712-1.21639-1.3854-0.83124-2.23039c1.8924-4.13948,6.79139-10.53293,8.26914-12.01265   c2.37384-2.37188,6.14487-2.37679,8.57766-0.02063C99.36724,39.77375,100,41.30063,100,42.92675   c0,1.6271-0.63276,3.15398-1.77841,4.29866c-1.45811,1.45712-7.91149,6.31092-12.05,8.26226   C85.93971,55.59575,85.69604,55.64684,85.4563,55.64684z" style="fill: rgb(10, 88, 202);"/>
    <path d="M88.87557,62.51486c-0.8391,0-1.8747-0.20044-3.1422-0.74281c-2.03977-0.87054-4.26427-2.45245-6.2608-4.45095   c-0.65831-0.65635-0.65831-1.72143,0-2.37777c0.65634-0.66027,1.72143-0.66027,2.37777,0   c3.57255,3.57059,6.80514,4.53938,7.38484,4.15422c0.17686-0.26725,0.05306-2.26772-2.47602-5.45708   c-0.57774-0.72905-0.45591-1.78627,0.27315-2.36401c0.72905-0.5797,1.78824-0.45197,2.36401,0.27315   c3.31316,4.17977,4.16012,7.98616,2.20877,9.93554C91.14722,61.94498,90.29241,62.51486,88.87557,62.51486z" style="fill: rgb(10, 88, 202);"/>
    <path d="M80.54748,71.84515c-0.43035,0-0.86071-0.16311-1.19085-0.49324c-0.65634-0.65634-0.65634-1.72143,0.00197-2.37974   l9.86873-9.86676c0.65634-0.65634,1.71946-0.65831,2.37974,0.00196c0.65634,0.65635,0.65634,1.72143-0.00197,2.37974   l-9.86873,9.86676C81.4082,71.68204,80.97784,71.84515,80.54748,71.84515z" style="fill: rgb(10, 88, 202);"/>
    <path d="M68.05534,56.50166c-0.43036,0-0.86072-0.16311-1.19085-0.49324c-0.65635-0.65635-0.65635-1.72143,0.00196-2.37974   l8.44207-8.4401c0.65634-0.65634,1.71946-0.65634,2.37974,0c0.65634,0.65733,0.65634,1.72241-0.00197,2.37974l-8.44207,8.44207   C68.91605,56.33855,68.48569,56.50166,68.05534,56.50166z" style="fill: rgb(10, 88, 202);"/>
    <path d="M80.66145,57.81434c-0.43035,0-0.86071-0.16311-1.19085-0.49324c-4.04614-4.04811-6.77763-9.51698-4.16405-12.13253   c2.01227-1.92088,5.83045-1.03659,9.9945,2.26576c0.72905,0.57774,0.85089,1.63692,0.27315,2.36401   c-0.57774,0.72512-1.63692,0.85089-2.36401,0.27315c-2.98106-2.365-5.15839-2.73051-5.56516-2.48389   c-0.32227,0.54237,0.64259,3.76906,4.20728,7.33572c0.65635,0.65635,0.65635,1.72143-0.00196,2.37974   C81.52217,57.65124,81.09181,57.81434,80.66145,57.81434z" style="fill: rgb(10, 88, 202);"/>
    <path d="M18.65667,72.75893c-0.34782,0-0.69958-0.10809-1.0022-0.33211c-2.19502-1.63103-4.18173-3.36032-5.90709-5.1407   c-7.2296-7.18637-11.7395-15.57734-11.74736-21.87647c-0.00393-2.59393,0.78997-4.76144,2.2972-6.26768   c5.27629-5.21341,17.67017-1.07687,28.2149,9.4089c0.26332,0.29477,0.45983,0.50503,0.65831,0.7153   c0.23188,0.24564,0.46376,0.49324,0.67992,0.74281c0.60918,0.69958,0.53647,1.7627-0.16507,2.37384   c-0.69761,0.60918-1.76073,0.54041-2.37384-0.16507c-0.18865-0.21616-0.39302-0.43232-0.59542-0.64848   c-0.22402-0.23974-0.44804-0.47948-0.65634-0.71726c-9.75476-9.69089-19.99489-12.67391-23.39058-9.32243   C3.80248,42.3942,3.3623,43.701,3.36426,45.40474c0.00786,5.35489,4.23872,13.01485,10.77857,19.51736   c1.62121,1.6723,3.47037,3.28172,5.51996,4.80467c0.74477,0.55415,0.90002,1.60745,0.34586,2.35419   C19.67852,72.52508,19.17153,72.75893,18.65667,72.75893z" style="fill: rgb(10, 88, 202);"/>
    <path d="M11.41724,55.53482c-0.14738,0-0.29477-0.01965-0.44215-0.06092c-0.89805-0.24367-1.42666-1.16727-1.18299-2.06335   l2.33847-8.61401c0.24367-0.89707,1.17906-1.42666,2.06335-1.18299c0.89805,0.24368,1.42666,1.16825,1.18299,2.06532   l-2.33847,8.61205C12.83604,55.04158,12.15612,55.53482,11.41724,55.53482z" style="fill: rgb(10, 88, 202);"/>
    <path d="M17.40687,64.14786c-0.14542,0-0.29083-0.01965-0.43625-0.05895c-0.89805-0.23974-1.43059-1.16334-1.19085-2.05943   L19.201,49.2524c0.23974-0.90002,1.17316-1.42765,2.05942-1.19085c0.89805,0.23974,1.43059,1.16334,1.19085,2.05942   l-3.42124,12.77708C18.8296,63.65069,18.14967,64.14786,17.40687,64.14786z" style="fill: rgb(10, 88, 202);"/>
    <path d="M24.7642,67.79705c-0.14345,0-0.28887-0.01769-0.43429-0.05502c-0.89805-0.23975-1.43256-1.16138-1.19478-2.05943   l2.62341-9.86873c0.23974-0.89805,1.16137-1.4247,2.05943-1.19478c0.89805,0.23974,1.43256,1.16137,1.19478,2.05942   l-2.62341,9.86873C26.1889,67.29987,25.50701,67.79705,24.7642,67.79705z" style="fill: rgb(10, 88, 202);"/>
    <path d="M27.72953,99.96769c-0.92949,0-1.68213-0.75263-1.68213-1.68212V89.8435c0-0.92949,0.75263-1.68212,1.68213-1.68212   s1.68213,0.75263,1.68213,1.68212v8.44207C29.41166,99.21506,28.65903,99.96769,27.72953,99.96769z"/>
    <path d="M72.27637,99.96769c-0.92949,0-1.68212-0.75263-1.68212-1.68212V89.8435c0-0.92949,0.75263-1.68212,1.68212-1.68212   s1.68213,0.75263,1.68213,1.68212v8.44207C73.9585,99.21506,73.20586,99.96769,72.27637,99.96769z"/>
    <path d="M33.2043,6.93497c-0.64455,0-1.26159-0.37435-1.53867-1.00318c-0.37533-0.85089,0.00982-1.84425,0.85875-2.21958   c11.12246-4.90685,23.84255-4.90685,34.90214,0.00197c0.85088,0.37632,1.23408,1.37066,0.85678,2.22056   c-0.3773,0.84991-1.37753,1.23113-2.22057,0.85482c-10.1969-4.52366-21.92658-4.52562-32.1785,0.00197   C33.66217,6.88879,33.43225,6.93497,33.2043,6.93497z"/>
    <path d="M49.97446,35.39845c-0.92949,0-1.68213-0.75361-1.68213-1.68311V8.61709c0-0.92949,0.75263-1.68311,1.68213-1.68311   s1.68213,0.75362,1.68213,1.68311v25.09825C51.65659,34.64484,50.90395,35.39845,49.97446,35.39845z"/>
    <path d="M41.13348,36.31124c-0.92949,0-1.68213-0.75362-1.68213-1.68311V12.03931c0-0.92949,0.75264-1.68311,1.68213-1.68311   c0.92949,0,1.68213,0.75362,1.68213,1.68311v22.58882C42.81561,35.55762,42.06297,36.31124,41.13348,36.31124z"/>
    <path d="M58.87243,36.31124c-0.92949,0-1.68213-0.75362-1.68213-1.68311V12.03931c0-0.92949,0.75263-1.68311,1.68213-1.68311   s1.68213,0.75362,1.68213,1.68311v22.58882C60.55456,35.55762,59.80193,36.31124,58.87243,36.31124z"/>
  </g>
</svg>