<?xml version="1.0" encoding="utf-8"?>
<svg viewBox="0 0.0011 100 99.9978" xmlns="http://www.w3.org/2000/svg">
  <g>
    <path d="M86.02922,31.47163c-1.53174,0-3.06938-0.24284-4.56573-0.73441c-7.66657-2.51194-11.86068-10.78806-9.35169-18.44677   c0.29298-0.88188,1.24467-1.36362,2.1236-1.07655l9.24551,3.02514c0.88483,0.28905,1.36658,1.24073,1.07753,2.12458   c-0.28708,0.88385-1.2427,1.37051-2.1236,1.07654l-7.52696-2.46278c-0.90843,5.39256,2.24747,10.80379,7.60561,12.56067   c2.85113,0.93497,5.90478,0.70197,8.5868-0.65772c2.17472-1.10309,3.89719-2.83933,4.96882-4.97964l-7.52696-2.46278   c-0.88483-0.28904-1.36658-1.24073-1.07753-2.12359c0.28905-0.88385,1.24663-1.36756,2.1236-1.07753l9.24747,3.02514   c0.42472,0.13961,0.77668,0.44143,0.97921,0.83961s0.23595,0.86124,0.09831,1.28497   c-1.21713,3.71334-3.80477,6.73062-7.28904,8.49733C90.54383,30.93876,88.29439,31.47163,86.02922,31.47163z"/>
    <path d="M85.98399,21.74733c-2.69185,0-4.88033-2.18947-4.88033-4.88034s2.18848-4.88034,4.88033-4.88034   c2.68989,0,4.87837,2.18947,4.87837,4.88034S88.67388,21.74733,85.98399,21.74733z M85.98399,15.35491   c-0.80618,0-1.51404,0.7059-1.51404,1.51208c0,0.80618,0.70786,1.51208,1.51404,1.51208c0.83371,0,1.51208-0.67837,1.51208-1.51208   S86.8177,15.35491,85.98399,15.35491z"/>
    <path d="M85.98399,15.35491c-0.93005,0-1.68314-0.75407-1.68314-1.68413V1.68525c0-0.93006,0.75309-1.68413,1.68314-1.68413   c0.93006,0,1.68315,0.75407,1.68315,1.68413v11.98553C87.66714,14.60084,86.91405,15.35491,85.98399,15.35491z"/>
    <path d="M98.31265,33.21966c-0.93006,0-1.68315-0.75407-1.68315-1.68413V20.8625c0-0.93006,0.75309-1.68413,1.68315-1.68413   c0.93005,0,1.68314,0.75407,1.68314,1.68413v10.67303C99.9958,32.46559,99.24271,33.21966,98.31265,33.21966z"/>
    <path d="M98.31265,40.23933c-0.93006,0-1.68315-0.75407-1.68315-1.68413v-1.99775c0-0.93005,0.75309-1.68413,1.68315-1.68413   c0.93005,0,1.68314,0.75407,1.68314,1.68413v1.99775C99.9958,39.48525,99.24271,40.23933,98.31265,40.23933z"/>
    <path d="M1.68315,99.99692C0.75309,99.99692,0,99.24383,0,98.31377c0-11.51067,2.99663-22.03427,8.22303-28.875   c2.91798-3.79887,7.24972-4.39073,11.07023-4.91376c3.19916-0.43652,6.22331-0.84944,8.3941-2.92781   c0.95562-0.92022,1.36461-2.38314,1.36461-4.89214c0-0.93005,0.75309-1.68314,1.68315-1.68314s1.68315,0.75309,1.68315,1.68314   c0,2.33399-0.27135,5.27556-2.39888,7.32051c-2.9632,2.83932-6.84663,3.36826-10.26995,3.83624   c-3.63961,0.49747-6.77977,0.92612-8.85421,3.62584c-4.78399,6.26067-7.52893,16.03905-7.52893,26.82613   C3.36629,99.24383,2.6132,99.99692,1.68315,99.99692z"/>
    <path d="M80.33287,99.99692c-0.93005,0-1.68314-0.75309-1.68314-1.68315c0-10.78511-2.74494-20.56545-7.5309-26.83006   c-2.0705-2.69579-5.21264-3.12444-8.85028-3.62191c-3.42528-0.46798-7.30674-0.99691-10.26601-3.83427   c-2.13146-2.04691-2.40281-4.98848-2.40281-7.32247c0-0.93005,0.75309-1.68314,1.68315-1.68314   c0.93005,0,1.68314,0.75309,1.68314,1.68314c0,2.50899,0.40899,3.97191,1.36854,4.8941   c2.16685,2.0764,5.18904,2.48933,8.39017,2.92584c3.82051,0.52303,8.15028,1.11489,11.06826,4.90983   c5.2264,6.84467,8.22304,17.37023,8.22304,28.87894C82.01602,99.24383,81.26293,99.99692,80.33287,99.99692z"/>
    <path d="M80.33287,99.99692H1.68315C0.75309,99.99692,0,99.24383,0,98.31377c0-0.93005,0.75309-1.68314,1.68315-1.68314h78.64973   c0.93006,0,1.68315,0.75309,1.68315,1.68314C82.01602,99.24383,81.26293,99.99692,80.33287,99.99692z"/>
    <path d="M18.06433,99.99888c-0.15534,0-0.31461-0.02359-0.47191-0.06882c-0.8927-0.26152-1.4059-1.1955-1.14438-2.0882   l5.93624-20.31966c0.21039-0.7177,0.8691-1.21124,1.61629-1.21124h17.00843c0.93006,0,1.68315,0.75309,1.68315,1.68314   c0,0.93006-0.75309,1.68315-1.68315,1.68315H25.26292l-5.5823,19.10842C19.46629,99.52107,18.79382,99.99692,18.06433,99.99888z"/>
    <path d="M24.00056,79.67921c-0.65281,0-1.27416-0.38342-1.54747-1.0205l-5.02388-11.69944   c-0.36573-0.85534,0.0295-1.84438,0.88287-2.21208c0.8514-0.3618,1.84635,0.0295,2.21208,0.88287l5.02388,11.69944   c0.36573,0.85534-0.0295,1.84438-0.88287,2.21207C24.44888,79.634,24.22276,79.67921,24.00056,79.67921z"/>
    <path d="M29.64972,79.67921c-0.66657,0-1.29579-0.39915-1.56124-1.0559l-5.13596-12.72781   c-0.34803-0.86124,0.06882-1.84241,0.93202-2.19045c0.85927-0.3441,1.84045,0.06882,2.19045,0.93202l5.13596,12.72781   c0.34803,0.86124-0.06882,1.84241-0.93202,2.19045C30.07248,79.63792,29.86012,79.67921,29.64972,79.67921z"/>
    <path d="M63.95366,99.99888c-0.72753,0-1.39804-0.47584-1.61433-1.20927l-5.63736-19.11236H41.00899   c-0.93005,0-1.68314-0.75309-1.68314-1.68315c0-0.93005,0.75309-1.68314,1.68314-1.68314H57.9604   c0.74719,0,1.40393,0.49157,1.61433,1.20731l5.99326,20.31966c0.26348,0.89072-0.24579,1.82865-1.13849,2.09016   C64.27023,99.97529,64.11096,99.99888,63.95366,99.99888z"/>
    <path d="M57.9604,79.67921c-0.22219,0-0.44831-0.04522-0.66461-0.13764c-0.85337-0.36769-1.2486-1.35674-0.88287-2.21207   l5.02191-11.69944c0.36769-0.85337,1.36068-1.2427,2.21208-0.88287c0.85337,0.3677,1.2486,1.35674,0.88287,2.21208   l-5.02192,11.69944C59.23455,79.29579,58.61321,79.67921,57.9604,79.67921z"/>
    <path d="M52.3663,79.67921c-0.20843,0-0.41882-0.03932-0.62332-0.12191c-0.86517-0.3441-1.28595-1.32331-0.93989-2.18652   l5.0809-12.72781c0.34607-0.86714,1.32331-1.28989,2.18652-0.93989c0.86517,0.3441,1.28596,1.32331,0.93989,2.18652   l-5.0809,12.72781C53.66602,79.27809,53.03484,79.67921,52.3663,79.67921z"/>
    <path d="M44.37529,59.53062h-6.73455c-10.55899,0-19.14776-8.56517-19.14776-19.09172V11.3309   c0-6.24691,5.08287-11.32978,11.32978-11.32978h22.37247c6.24691,0,11.32978,5.08287,11.32978,11.32978V40.4389   C63.52501,50.96545,54.93428,59.53062,44.37529,59.53062z M29.82276,3.36938c-4.39073,0-7.96348,3.57177-7.96348,7.96152V40.4389   c0,8.67036,7.08062,15.72542,15.78146,15.72542h6.73455c8.70281,0,15.78343-7.05506,15.78343-15.72542V11.3309   c0-4.38975-3.57275-7.96152-7.96349-7.96152H29.82276z"/>
    <path d="M56.24776,32.87654H25.77023c-0.93006,0-1.68315-0.75407-1.68315-1.68413V17.49522   c0-0.93006,0.75309-1.68413,1.68315-1.68413h30.47753c0.93006,0,1.68315,0.75407,1.68315,1.68413v13.69719   C57.9309,32.12247,57.17781,32.87654,56.24776,32.87654z M27.45337,29.50829h27.11124V19.17935H27.45337V29.50829z" style="fill: rgb(0, 114, 245);"/>
    <path d="M38.55506,26.7132c-0.43062,0-0.86124-0.16517-1.18961-0.49354c-0.65871-0.65772-0.65871-1.72345-0.00196-2.38118   l3.02416-3.02514c0.66067-0.65674,1.72444-0.65674,2.38118,0c0.65871,0.65773,0.65871,1.72346,0.00196,2.38118l-3.02416,3.02514   C39.41629,26.54803,38.98568,26.7132,38.55506,26.7132z"/>
    <path d="M42.77866,28.31081c-0.45421,0-0.90843-0.18385-1.24073-0.54663c-0.62922-0.68525-0.58202-1.75,0.10225-2.37823   l0.68427-0.62725c0.68623-0.6302,1.74803-0.58399,2.37921,0.10323c0.62922,0.68525,0.58202,1.75-0.10225,2.37823l-0.68427,0.62725   C43.5927,28.16432,43.18568,28.31081,42.77866,28.31081z"/>
    <path d="M20.17612,26.14199h-4.67978c-0.93006,0-1.68315-0.75407-1.68315-1.68413v-9.81671   c0-0.93006,0.75309-1.68413,1.68315-1.68413h4.67978c0.93006,0,1.68315,0.75407,1.68315,1.68413   c0,0.93006-0.75309,1.68413-1.68315,1.68413H17.1795v6.44846h2.99663c0.93006,0,1.68315,0.75407,1.68315,1.68413   S21.10618,26.14199,20.17612,26.14199z"/>
    <path d="M66.52164,26.14199h-4.67978c-0.93005,0-1.68314-0.75407-1.68314-1.68413s0.75309-1.68413,1.68314-1.68413h2.99663   v-6.44846h-2.99663c-0.93005,0-1.68314-0.75407-1.68314-1.68413c0-0.93006,0.75309-1.68413,1.68314-1.68413h4.67978   c0.93005,0,1.68314,0.75407,1.68314,1.68413v9.81671C68.20478,25.38792,67.45169,26.14199,66.52164,26.14199z"/>
    <path d="M30.50702,19.17935c-0.93006,0-1.68315-0.75407-1.68315-1.68413V14.5271c0-0.93006,0.75309-1.68413,1.68315-1.68413   c0.93006,0,1.68315,0.75407,1.68315,1.68413v2.96812C32.19017,18.42528,31.43708,19.17935,30.50702,19.17935z"/>
    <path d="M51.45394,19.17935c-0.93006,0-1.68315-0.75407-1.68315-1.68413V14.5271c0-0.93006,0.75309-1.68413,1.68315-1.68413   s1.68315,0.75407,1.68315,1.68413v2.96812C53.13708,18.42528,52.384,19.17935,51.45394,19.17935z"/>
    <path d="M46.77219,48.74354H35.1868c-0.93006,0-1.68315-0.75505-1.68315-1.68413c0-0.93006,0.75309-1.68413,1.68315-1.68413   h11.58539c0.93006,0,1.68315,0.75407,1.68315,1.68413C48.45534,47.98848,47.70225,48.74354,46.77219,48.74354z"/>
    <path d="M42.83568,53.82247h-3.65337c-0.93006,0-1.68315-0.75309-1.68315-1.68315c0-0.93005,0.75309-1.68314,1.68315-1.68314   h3.65337c0.93006,0,1.68315,0.75309,1.68315,1.68314C44.51883,53.06938,43.76574,53.82247,42.83568,53.82247z"/>
    <path d="M85.81097,55.02191c-0.26742,0-0.53876-0.06292-0.79242-0.1986c-3.3191-1.77556-4.55393-5.7809-2.80983-9.11475   c0.87697-1.59565,2.19635-2.69972,3.83427-3.22177c0.87894-0.28609,1.83259,0.20548,2.11573,1.09326   c0.28315,0.88581-0.20646,1.83258-1.09325,2.11573c-0.79832,0.25463-1.45113,0.80913-1.88961,1.6045   c-0.85927,1.64579-0.23792,3.65927,1.43147,4.55393c0.81994,0.43848,1.12865,1.45899,0.69016,2.27893   C86.99467,54.69944,86.41265,55.02191,85.81097,55.02191z" style="fill: rgb(0, 114, 245);"/>
    <path d="M82.04748,79.73428c-0.08455,0-0.1691-0.00591-0.25562-0.0177c-0.92023-0.14157-1.55141-1.00084-1.4118-1.9191   l3.76741-24.71236c0.14158-0.92023,0.99888-1.53961,1.91911-1.4118c0.92023,0.14157,1.55141,1.00084,1.4118,1.9191   l-3.76742,24.71236C83.58315,79.13849,82.86546,79.73428,82.04748,79.73428z" style="fill: rgb(0, 114, 245);"/>
    <path d="M93.23765,58.25449c-1.03427,0-2.08034-0.23595-3.05562-0.73539c-0.8278-0.42275-1.15618-1.43736-0.73146-2.26517   c0.42078-0.82781,1.43343-1.15815,2.26517-0.73146c1.63989,0.83961,3.67697,0.20843,4.54017-1.40786   c0.38343-0.76489,0.48371-1.65955,0.26152-2.4736c-0.24382-0.89663,0.28511-1.82275,1.18174-2.06657   c0.89073-0.24972,1.82079,0.28315,2.06657,1.18174c0.44045,1.61629,0.25562,3.35843-0.5191,4.9059   C98.02361,56.95084,95.66405,58.25449,93.23765,58.25449z" style="fill: rgb(0, 114, 245);"/>
    <path d="M78.2781,69.51742c-0.45028,0-0.90057-0.17893-1.2309-0.53483c-0.63511-0.68034-0.59775-1.74607,0.08259-2.37922   l12.67078-11.81348c0.6823-0.63511,1.74804-0.59775,2.37922,0.08258c0.63511,0.68034,0.59775,1.74607-0.08259,2.37922   L79.42641,69.06517C79.10197,69.36798,78.68905,69.51742,78.2781,69.51742z" style="fill: rgb(0, 114, 245);"/>
  </g>
</svg>