<?xml version="1.0" encoding="utf-8"?>
<svg viewBox="0 0 90 90" style="enable-background:new 0 0 100 100;" xmlns="http://www.w3.org/2000/svg" xmlns:bx="https://boxy-svg.com">
  <defs>
    <linearGradient id="color-0" gradientUnits="userSpaceOnUse" bx:pinned="true">
      <stop style="stop-color: rgb(0, 114, 245);"/>
    </linearGradient>
  </defs>
  <g style="" transform="matrix(1.0711020231246948, 0, 0, 0.8947129845619202, -8.46723461151123, 0.3440859913825989)">
    <path d="M49.87717,59.09855c-4.38248,0-8.2815-1.66357-11.58899-4.94551c-6.61301-6.55897-9.62375-18.74147-9.62375-27.28532   c0-0.58662,0.0059-1.17423,0.07075-1.69501c0.11595-0.9384,0.96297-1.59872,1.91021-1.48572   c0.93742,0.11693,1.60363,0.97279,1.48572,1.91021c-0.04913,0.39108-0.04324,0.8313-0.04324,1.27052   c0,8.10659,2.95768,19.24751,8.6097,24.85531c2.67272,2.65012,5.77976,4.01596,9.28967,3.95209   c13.41077-0.10711,17.92491-19.82726,17.92491-28.8074c0-0.23092-0.01376-0.46281-0.02751-0.68685   c-0.01572-0.27612-0.02948-0.54339-0.02948-0.79592c0-0.94528,0.76644-1.71172,1.71172-1.71172   c0.94527,0,1.71172,0.76644,1.71172,1.71172c0,0.19063,0.0118,0.39206,0.02358,0.60038   c0.01769,0.28791,0.03341,0.58564,0.03341,0.88239c0,10.45996-5.2118,32.10211-21.32083,32.23083   C49.96954,59.09855,49.92237,59.09855,49.87717,59.09855z"/>
    <path d="M10.75327,100c-0.94528,0-1.71172-0.76644-1.71172-1.71172c0-11.47304,2.99895-21.97722,8.22451-28.82017   c2.92427-3.8047,7.25172-4.39819,11.07017-4.92095c3.18172-0.43431,6.18656-0.84701,8.32277-2.91444   c1.62525-1.53976,1.45231-4.7598,1.24989-8.48883c-0.04913-0.9443,0.67407-1.75004,1.61739-1.80114   c0.91187-0.06878,1.74906,0.67211,1.80212,1.61641c0.23583,4.38641,0.45987,8.5301-2.30129,11.14583   c-2.9282,2.83387-6.80561,3.36645-10.22708,3.83418c-3.62389,0.49524-6.75255,0.92366-8.81801,3.61211   c-4.77552,6.25141-7.51702,15.99898-7.51702,26.73701C12.46499,99.23356,11.69855,100,10.75327,100z"/>
    <path d="M89.24673,100c-0.94528,0-1.71172-0.76644-1.71172-1.71172c0-10.73804-2.7415-20.4856-7.52095-26.74095   c-2.06153-2.68451-5.19608-3.11293-8.82587-3.60817c-3.42737-0.46969-7.31264-1.00031-10.27818-3.84007   c-2.81815-2.66879-2.5214-7.04439-2.23644-11.27652c0.06485-0.94429,0.89615-1.62033,1.82374-1.59282   c0.94135,0.06387,1.65473,0.88043,1.59184,1.82276c-0.2771,4.09948-0.35374,7.11317,1.18111,8.56842   c2.16962,2.07725,5.18626,2.48995,8.38173,2.92623c3.82238,0.52276,8.15572,1.11429,11.07803,4.91702   c5.22949,6.84688,8.22844,17.35106,8.22844,28.8241C90.95844,99.23356,90.192,100,89.24673,100z"/>
    <path d="M89.24673,100H69.85182c-0.94528,0-1.71172-0.76644-1.71172-1.71172c0-0.94527,0.76644-1.71172,1.71172-1.71172h19.39491   c0.94527,0,1.71172,0.76644,1.71172,1.71172C90.95844,99.23356,90.192,100,89.24673,100z"/>
    <path d="M36.07926,80.31817c-0.78806,0-1.49751-0.54829-1.67045-1.35011l-2.85156-13.1769   c-0.20045-0.92366,0.38715-1.83356,1.31081-2.03402c0.92759-0.20438,1.83553,0.38715,2.03402,1.31081l2.85156,13.1769   c0.20045,0.92366-0.38715,1.83356-1.31081,2.03402C36.32098,80.30638,36.19914,80.31817,36.07926,80.31817z" style="fill: url('#color-0');"/>
    <path d="M63.86375,80.31817c-0.12185,0-0.24566-0.01376-0.37143-0.04127c-0.9217-0.20242-1.50537-1.11626-1.30099-2.03992   l2.90855-13.1769c0.20242-0.9217,1.10643-1.50144,2.03991-1.30099c0.9217,0.20242,1.50537,1.11626,1.30099,2.03992   l-2.90855,13.1769C65.35733,79.7738,64.64788,80.31817,63.86375,80.31817z" style="fill: url('#color-0');"/>
    <path d="M49.99312,67.81535c-4.48663,0-8.98112-1.15556-12.99807-3.46864c-0.81754-0.47166-1.10053-1.51913-0.62888-2.33765   c0.47363-0.8195,1.51913-1.10151,2.33863-0.62888c6.97266,4.01793,15.60397,4.01596,22.52945,0.00295   c0.82147-0.47657,1.86697-0.19653,2.33863,0.62101c0.47559,0.81754,0.19653,1.86501-0.62101,2.33863   C58.96246,66.65782,54.48172,67.81535,49.99312,67.81535z"/>
    <path d="M21.59155,100c-0.94528,0-1.71172-0.76644-1.71172-1.71172v-7.07484c0-0.94527,0.76644-1.71172,1.71172-1.71172   s1.71172,0.76644,1.71172,1.71172v7.07484C23.30326,99.23356,22.53682,100,21.59155,100z"/>
    <path d="M78.35146,100c-0.94528,0-1.71172-0.76644-1.71172-1.71172v-7.07484c0-0.94527,0.76644-1.71172,1.71172-1.71172   c0.94527,0,1.71172,0.76644,1.71172,1.71172v7.07484C80.06318,99.23356,79.29674,100,78.35146,100z"/>
    <path d="M63.86179,100H36.08122c-0.94528,0-1.71172-0.76644-1.71172-1.71172V78.60645c0-0.94528,0.76644-1.71172,1.71172-1.71172   h27.78056c0.94527,0,1.71172,0.76644,1.71172,1.71172v19.68182C65.5735,99.23356,64.80706,100,63.86179,100z M37.79294,96.57656   h24.35712V80.31817H37.79294V96.57656z" style="fill: url('#color-0');"/>
    <path d="M50.00098,99.37112c-6.03917,0-10.95422-4.88754-10.95422-10.89526c0-6.03917,4.91505-10.95226,10.95422-10.95226   c6.00772,0,10.89526,4.91309,10.89526,10.95226C60.89624,94.48359,56.00871,99.37112,50.00098,99.37112z M50.00098,80.94704   c-4.15254,0-7.53078,3.37627-7.53078,7.52882c0,4.1211,3.37824,7.47182,7.53078,7.47182c4.1211,0,7.47182-3.35072,7.47182-7.47182   C57.47281,84.32332,54.12208,80.94704,50.00098,80.94704z"/>
    <path d="M55.30515,80.31817H44.69485c-0.94528,0-1.71172-0.76644-1.71172-1.71172v-5.01921   c0-0.94528,0.76644-1.71172,1.71172-1.71172h10.61031c0.94528,0,1.71172,0.76644,1.71172,1.71172v5.01921   C57.01687,79.55173,56.25043,80.31817,55.30515,80.31817z M46.40657,76.89473h7.18687v-1.59577h-7.18687V76.89473z"/>
    <path d="M50.00098,94.40891c-3.27212,0-5.93304-2.66093-5.93304-5.93304s2.66093-5.93304,5.93304-5.93304   c3.27015,0,5.93108,2.66093,5.93108,5.93304S53.27113,94.40891,50.00098,94.40891z M50.00098,85.96626   c-1.38353,0-2.50961,1.12608-2.50961,2.50961c0,1.38353,1.12608,2.50961,2.50961,2.50961   c1.38352,0,2.50764-1.12608,2.50764-2.50961C52.50862,87.09234,51.38451,85.96626,50.00098,85.96626z" style="fill: url('#color-0');"/>
    <path d="M38.17223,31.77195c-3.42934,0-6.61695-1.85911-9.13245-5.39457c-0.26727-0.37438-0.37143-0.84014-0.29085-1.29313   c0.08057-0.452,0.33998-0.85291,0.71928-1.11232c6.08044-4.15451,12.77796-6.17477,20.47382-6.17477   c0.94528,0,1.71172,0.76644,1.71172,1.71172s-0.76644,1.71172-1.71172,1.71172c-6.32609,0-11.8995,1.49653-16.9757,4.56819   c1.58595,1.68224,3.84007,3.05201,6.7211,2.37794c0.74876-0.16115,1.47982-0.34195,2.23447-0.52767   c2.28753-0.565,4.88165-1.20469,7.94348-1.34029c1.0003-0.06289,1.74316,0.6898,1.7864,1.63409   c0.04127,0.9443-0.6898,1.74316-1.63311,1.78542c-2.72578,0.12086-5.03886,0.69176-7.27726,1.24399   c-0.78806,0.19358-1.55254,0.38224-2.30719,0.54535C39.67367,31.68352,38.91706,31.77195,38.17223,31.77195z"/>
    <path d="M61.70789,31.76802c-0.75072,0-1.51323-0.08844-2.2836-0.26629c-0.72714-0.15722-1.49162-0.34588-2.27967-0.53946   c-2.2384-0.55223-4.55148-1.12313-7.27923-1.24399c-0.94331-0.04225-1.67438-0.84112-1.63311-1.78542   c0.04127-0.94429,0.75662-1.70288,1.7864-1.63409c3.0638,0.1356,5.65791,0.77627,7.94741,1.34029   c0.75269,0.18571,1.48375,0.36652,2.20499,0.52177c2.91248,0.67506,5.16267-0.69176,6.74862-2.37204   c-5.07817-3.07166-10.64961-4.56819-16.97767-4.56819c-0.94528,0-1.71172-0.76644-1.71172-1.71172s0.76644-1.71172,1.71172-1.71172   c7.69586,0,14.39535,2.02026,20.47578,6.17477c0.37929,0.25941,0.6387,0.66032,0.71928,1.11232   c0.08057,0.45299-0.02358,0.91875-0.29086,1.29313C68.3327,29.90891,65.14902,31.76802,61.70789,31.76802z"/>
    <path d="M69.45484,27.09666c-0.05109,0-0.10219-0.00295-0.15525-0.00688c-0.94135-0.08451-1.63508-0.9158-1.55057-1.85715   c0.60332-6.74469-2.38187-12.57947-8.40335-16.43231C57.49836,7.62118,55.5626,6.84,53.42835,6.41354   c-0.92562-0.18571-1.52699-1.08677-1.34225-2.01338c0.1867-0.92759,1.08481-1.5319,2.01437-1.34324   c2.5214,0.50408,4.90719,1.46607,7.0886,2.85942c7.15149,4.57507,10.69088,11.54281,9.96767,19.62091   C71.07813,26.42652,70.33134,27.09666,69.45484,27.09666z M30.43117,27.09666c-0.8765,0-1.62329-0.66916-1.70189-1.55941   c-0.72321-8.0781,2.81618-15.04584,9.96767-19.61992c2.18141-1.39433,4.5672-2.35632,7.0886-2.8604   c0.9217-0.18866,1.82767,0.41565,2.01437,1.34324c0.18473,0.92661-0.41663,1.82767-1.34225,2.01338   c-2.13425,0.42646-4.07,1.20764-5.91732,2.38776c-6.02148,3.85186-9.00667,9.68664-8.40334,16.43133   c0.0845,0.94135-0.60922,1.77264-1.55057,1.85715C30.53337,27.09371,30.48227,27.09666,30.43117,27.09666z"/>
    <path d="M49.94202,8.6716c-3.08149,0-5.58913-1.94558-5.58913-4.33629C44.3529,1.90431,46.80748,0,49.94202,0   c3.13455,0,5.59109,1.90431,5.59109,4.33531C55.53312,6.72602,53.02548,8.6716,49.94202,8.6716z M49.94202,3.42344   c-1.42086,0-2.16569,0.67702-2.16569,0.91187c0,0.17392,0.72124,0.91285,2.16569,0.91285   c1.44641,0,2.16766-0.73893,2.16766-0.91285C52.10968,4.10046,51.36486,3.42344,49.94202,3.42344z"/>
    <path d="M30.09119,100H10.75327c-0.94528,0-1.71172-0.76644-1.71172-1.71172c0-0.94527,0.76644-1.71172,1.71172-1.71172h19.33791   c0.94528,0,1.71172,0.76644,1.71172,1.71172C31.80291,99.23356,31.03646,100,30.09119,100z"/>
  </g>
</svg>