<svg xmlns="http://www.w3.org/2000/svg" viewBox="0 0 64 64" x="0px" y="0px"><g><path d="M32.5,13A1.5,1.5,0,1,0,34,14.5,1.5,1.5,0,0,0,32.5,13Zm9,0A1.5,1.5,0,1,0,43,14.5,1.5,1.5,0,0,0,41.5,13Zm-2,7.136L40.5,21.864A9.35,9.35,0,0,1,35.861,23H34V21h1.861A7.445,7.445,0,0,0,39.5,20.136ZM26.535,26l-1.408-2.111A2.015,2.015,0,0,0,23.46,23H18.54a2.02,2.02,0,0,0-1.672.9l-1.4,2.1h-.649A3,3,0,0,0,12,24a4.212,4.212,0,0,0-3.789,2.342l-1,2A5,5,0,0,0,4,33V55a6,6,0,0,0,11.767,1.638l4.27-9.157L22,43.9V61a1,1,0,0,0,1,1H59a1,1,0,0,0,1-1V39.979A7,7,0,0,0,54.29,33.1L50,32.3V27a1,1,0,0,0-1-1H45.649A9.959,9.959,0,0,0,47,21V20a4,4,0,0,0,0-8V8.123c0-1.349-1.293-3.161-3.456-3.977A7.764,7.764,0,0,0,38.171,2H28a1,1,0,0,0-1,1V4a4.946,4.946,0,0,0,1.072,3.056A7.784,7.784,0,0,0,27,11v1a4,4,0,0,0,0,8v1a9.941,9.941,0,0,0,1.354,5H26.535ZM58,46H52V44H50v2H44V41H58ZM28,42a3.983,3.983,0,0,0,2-.557V46H24V42Zm-4,6h6v5H24Zm8-10V36.89a6.979,6.979,0,0,0,10,0V60H32ZM44,48h6v5H44ZM42,32a5,5,0,0,1-10,0V29.649a9.928,9.928,0,0,0,10,0ZM16,28a1,1,0,0,0,.832-.445L18.54,25l4.928,0,1.7,2.55A1,1,0,0,0,26,28h2a2.01,2.01,0,0,1,2,2v8a1.99,1.99,0,0,1-.524,1.343A1.949,1.949,0,0,1,28,40H15.816A2.966,2.966,0,0,0,16,39V36.31A6,6,0,1,0,15.814,30,3,3,0,0,0,14.6,28.471,3,3,0,0,0,14.816,28ZM14,46H6V42h8Zm2,2h1.59L16,51.408Zm-2,5H6V48h8Zm3-20a4,4,0,1,1,4,4A4,4,0,0,1,17,33Zm-7-5.764A2.224,2.224,0,0,1,12,26a1,1,0,0,1,0,2H9.618ZM6,33a3,3,0,0,1,3-3h4a1,1,0,0,1,1,1v8a1,1,0,0,1-1,1H6Zm4,26a4,4,0,0,1-4-4h8A4,4,0,0,1,10,59Zm8.57-13H16V42h4.762ZM24,60V55h6v5Zm20-5h6v5H44Zm14,5H52V55h6Zm-6-7V48h6v5Zm1.922-17.935A5,5,0,0,1,57.9,39H44V35.721l4.831-1.61ZM48,32.279l-4,1.333V28h4ZM43,26a1,1,0,0,0-1,1v.228a7.958,7.958,0,0,1-10.339-.279c-.1-.1-.209-.191-.315-.3s-.2-.208-.3-.319A7.966,7.966,0,0,1,29,21V15.336A25.386,25.386,0,0,0,32.7,9h9.572A36.116,36.116,0,0,0,45,15.275V21a7.956,7.956,0,0,1-1.772,5ZM30.151,8.636a4.851,4.851,0,0,0,.483.17A24.025,24.025,0,0,1,29,11.913V11a5.88,5.88,0,0,1,.6-2.624c.088.049.181.088.271.132S30.056,8.6,30.151,8.636ZM38.234,7H35.566l-1.8-3h2.668ZM49,16a2,2,0,0,1-2,2V14A2,2,0,0,1,49,16ZM45,8.123v2.5c-.511-1.29-.877-2.4-1-2.778V6.659A2.479,2.479,0,0,1,45,8.123ZM42,7H40.566L38.8,4.056A5.758,5.758,0,0,1,42,5.433ZM31.434,4l1.8,3H32a2.767,2.767,0,0,1-.977-.177c-.034-.012-.07-.019-.1-.032a3.067,3.067,0,0,1-.928-.581L29.98,6.2A2.983,2.983,0,0,1,29,4ZM25,16a2.009,2.009,0,0,1,2-2v4A2,2,0,0,1,25,16Z"/></g></svg>
