<?xml version="1.0" encoding="utf-8"?>
<svg viewBox="0 0 100 100" xmlns="http://www.w3.org/2000/svg">
  <g transform="matrix(1, 0, 0, 1, 1.7763568394002505e-15, 0)">
    <path d="M18.85754,28.36791c-2.24757,0-4.24147-0.84947-5.93255-2.52581c-3.23272-3.20519-4.70554-9.08858-4.70554-13.19929   c0-1.02055,0.13961-1.9939,0.41687-2.89254c0.27136-0.88684,1.20932-1.38433,2.10402-1.11395   c0.8888,0.27333,1.38826,1.2162,1.11297,2.105c-0.17697,0.57713-0.26743,1.21719-0.26743,1.90148   c0,3.54341,1.27421,8.39445,3.71055,10.80818c1.06184,1.05398,2.19251,1.56228,3.61027,1.54852   c5.1932-0.04424,7.35031-8.07,7.35031-12.3567c0-0.6843-0.09045-1.32435-0.26743-1.90148   c-0.27529-0.8888,0.22417-1.83168,1.11297-2.105c0.8947-0.27234,1.83069,0.22515,2.10402,1.11395   c0.27726,0.89863,0.41687,1.87199,0.41687,2.89254c0,6.491-3.31531,15.66021-10.68921,15.7251   C18.90866,28.36791,18.8831,28.36791,18.85754,28.36791z"/>
    <path d="M10.24285,11.93c-0.83178,0-1.5554-0.61646-1.66749-1.46298c-0.12191-0.92223,0.52699-1.76875,1.44922-1.89067   c3.8128-0.50536,7.23429-1.28503,10.16223-2.31639c0.88684-0.31364,1.84053,0.15239,2.14925,1.02841   c0.30872,0.877-0.15141,1.83856-1.02841,2.14728c-3.15013,1.10904-6.79776,1.94376-10.84259,2.4796   C10.39033,11.92508,10.3156,11.93,10.24285,11.93z"/>
    <path d="M10.24481,11.93c-0.64104,0-1.25455-0.3687-1.53574-0.99302C7.32278,7.8596,8.08377,5.58745,8.9647,4.22377   C10.67348,1.579,14.39583,0,18.92046,0c0.9301,0,1.68322,0.7541,1.68322,1.6842s-0.75312,1.6842-1.68322,1.6842   c-3.27598,0-6.07413,1.05299-7.12614,2.68312c-0.62334,0.96254-0.62727,2.14138-0.01376,3.5031   c0.38148,0.84751,0.00393,1.84446-0.84358,2.22594C10.71281,11.88182,10.47685,11.93,10.24481,11.93z"/>
    <path d="M27.59807,11.93c-0.23203,0-0.468-0.04818-0.69216-0.14944c-0.84751-0.38148-1.22505-1.37843-0.84357-2.22594   c0.61351-1.36171,0.60958-2.53957-0.01377-3.50211c-1.05398-1.63111-3.85213-2.6841-7.12811-2.6841   c-0.9301,0-1.68322-0.7541-1.68322-1.6842S17.99036,0,18.92046,0c4.52463,0,8.24698,1.579,9.95772,4.22377   c0.88094,1.36466,1.64192,3.63681,0.25563,6.7132C28.85262,11.56032,28.23911,11.93,27.59807,11.93z"/>
    <path d="M27.60004,11.93c-0.0236,0-0.04719-0.00098-0.06882-0.00197c-3.15013-0.12585-5.79491-1.06283-7.86157-2.78635   c-0.71576-0.59581-0.81211-1.65765-0.2163-2.37243c0.59974-0.71576,1.65962-0.8072,2.37145-0.21532   c1.48461,1.23783,3.45099,1.91427,5.84013,2.00964c0.9301,0.03736,1.65175,0.81998,1.61636,1.74909   C29.24393,11.21915,28.49867,11.93,27.60004,11.93z"/>
    <path d="M 36.15967 46.34746 C 35.22958 46.34746 34.47645 45.59336 34.47645 44.66326 L 34.47645 37.69934 C 34.47645 34.81958 32.13253 32.47763 29.25179 32.47763 C 28.32169 32.47763 27.56857 31.723529999999997 27.56857 30.793429999999997 C 27.56857 29.863329999999998 28.32169 29.109229999999997 29.25179 29.109229999999997 C 33.98879 29.109229999999997 37.84288 32.963319999999996 37.84288 37.69933999999999 L 37.84288 44.663259999999994 C 37.84289 45.59335 37.08976 46.34746 36.15967 46.34746 Z"/>
    <path d="M 1.68322 46.34746 C 0.75312 46.34746 0 45.59335 0 44.66326 L 0 37.69934 C 0 32.963319999999996 3.8540900000000002 29.10923 8.59109 29.10923 C 9.521189999999999 29.10923 10.27431 29.86333 10.27431 30.79343 C 10.27431 31.72353 9.52119 32.47763 8.59109 32.47763 C 5.710349999999999 32.47763 3.3664299999999994 34.819579999999995 3.3664299999999994 37.69934 L 3.3664299999999994 44.66326 C 3.36643 45.59335 2.61331 46.34746 1.68322 46.34746 Z"/>
    <path d="M8.59109,32.47763c-0.9301,0-1.68322-0.7541-1.68322-1.6842s0.75312-1.6842,1.68322-1.6842   c4.34962,0,4.54233-0.65382,5.35837-3.40773l0.10618-0.35591c0.26349-0.89077,1.19949-1.39908,2.09419-1.13165   c0.89077,0.26644,1.39809,1.2044,1.13067,2.09517l-0.10225,0.34805C16.11051,30.26546,15.12339,32.47763,8.59109,32.47763z"/>
    <path d="M29.25179,32.47763c-6.53623,0-7.52139-2.21414-8.58913-5.82538l-0.10225-0.34412   c-0.26546-0.89077,0.24186-1.82873,1.13263-2.09419c0.89667-0.26743,1.82873,0.24186,2.09616,1.13263l0.10422,0.351   c0.81408,2.75686,1.00678,3.41166,5.35837,3.41166c0.9301,0,1.68322,0.7541,1.68322,1.6842S30.18189,32.47763,29.25179,32.47763z"/>
    <path d="M 16.8656 100 L 11.72943 100 C 9.66867 100 7.991350000000001 98.34824 7.991350000000001 96.31895 L 7.991350000000001 65.72412 C 7.991350000000001 64.79402 8.74447 64.0409 9.674570000000001 64.0409 C 10.60466 64.0409 11.357790000000001 64.79401999999999 11.357790000000001 65.72412 L 11.357790000000001 96.31895 C 11.357790000000001 96.46643 11.517070000000002 96.63357 11.72943 96.63357 L 16.8656 96.63357 C 17.08387 96.63357 17.23724 96.46839 17.23724 96.31895 C 17.23724 95.38885 17.99036 94.63573 18.92046 94.63573 C 19.850559999999998 94.63573 20.603679999999997 95.38884999999999 20.603679999999997 96.31895 C 20.60368 98.34824 18.92636 100 16.8656 100 Z"/>
    <path d="M 9.67457 47.31786 C 8.74447 47.31786 7.991349999999999 46.56376 7.991349999999999 45.633660000000006 L 7.991349999999999 40.49651000000001 C 7.991349999999999 39.566410000000005 8.74447 38.81231000000001 9.67457 38.81231000000001 C 10.604659999999999 38.81231000000001 11.35779 39.56641000000001 11.35779 40.49651000000001 L 11.35779 45.633660000000006 C 11.35778 46.56376 10.604659999999999 47.31786 9.67457 47.31786 Z"/>
    <path d="M 26.17048 100 L 20.975320000000004 100 C 18.91456 100 17.237240000000003 98.34824 17.237240000000003 96.31895 L 17.237240000000003 72.3449 C 17.237240000000003 71.41480999999999 17.990360000000003 70.66167999999999 18.920460000000002 70.66167999999999 C 19.85056 70.66167999999999 20.60368 71.41480999999999 20.60368 72.3449 L 20.60368 96.31894 C 20.60368 96.46642 20.76296 96.63356 20.97532 96.63356 L 26.170479999999998 96.63356 C 26.323859999999996 96.63356 26.4851 96.47231000000001 26.4851 96.31894 L 26.4851 65.72412 C 26.4851 64.79402 27.23822 64.0409 28.168319999999998 64.0409 C 29.098419999999997 64.0409 29.851539999999996 64.79401999999999 29.851539999999996 65.72412 L 29.851539999999996 96.31895 C 29.85154 98.34824 28.19978 100 26.17048 100 Z"/>
    <path d="M 28.16832 47.31786 C 27.238220000000002 47.31786 26.485100000000003 46.56376 26.485100000000003 45.633660000000006 L 26.485100000000003 40.49651000000001 C 26.485100000000003 39.566410000000005 27.238220000000002 38.81231000000001 28.16832 38.81231000000001 C 29.09842 38.81231000000001 29.85154 39.56641000000001 29.85154 40.49651000000001 L 29.85154 45.633660000000006 C 29.85154 46.56376 29.09842 47.31786 28.16832 47.31786 Z"/>
    <path d="M 9.67457 67.40733 L 7.1635 67.40733 C 4.4086099999999995 67.40733 2.1689100000000003 65.16763 2.1689100000000003 62.4147 L 2.1689100000000003 59.10333 C 2.1689100000000003 58.17323 2.9220300000000003 57.42011 3.8521300000000003 57.42011 C 4.617050000000001 57.42011 5.263990000000001 57.93137 5.46849 58.62943 C 5.9404200000000005 58.30498 6.56573 58.22829 7.13204 58.48982 C 10.18189 59.90954 11.642900000000001 62.45993 11.35188 65.86766 C 11.27913 66.73877 10.5496 67.40733 9.67457 67.40733 Z"/>
    <path d="M 5.53535 61.44922 L 5.53535 62.41471 C 5.53535 63.31138 6.26684 64.0409 7.1635100000000005 64.0409 L 7.9264600000000005 64.0409 C 7.6846000000000005 62.91416999999999 6.97473 62.13154999999999 5.71232 61.54556999999999 C 5.65136 61.51608 5.59237 61.48461 5.53535 61.44922 Z"/>
    <path d="M6.42218,60.78655H3.85213C1.72844,60.78655,0,59.05811,0,56.93442V44.66326c0-0.9301,0.75312-1.6842,1.68322-1.6842   s1.68322,0.7541,1.68322,1.6842v12.27116c0,0.26743,0.21827,0.48569,0.48569,0.48569h2.57005   c0.9301,0,1.68322,0.75312,1.68322,1.68322S7.35228,60.78655,6.42218,60.78655z"/>
    <path d="M34.04778,60.78655h-2.62708c-0.9301,0-1.68322-0.75312-1.68322-1.68322s0.75312-1.68322,1.68322-1.68322h2.62708   c0.20254,0,0.42867-0.20844,0.42867-0.48569V44.66326c0-0.9301,0.75312-1.6842,1.68322-1.6842   c0.9301,0,1.68322,0.7541,1.68322,1.6842v12.27116C37.84289,59.05811,36.14001,60.78655,34.04778,60.78655z"/>
    <path d="M18.92046,36.75843c-0.37558,0-0.75312-0.12486-1.06774-0.38148l-5.99154-4.90905   c-0.71969-0.58991-0.82391-1.65077-0.234-2.36948c0.58991-0.71969,1.64782-0.82195,2.36948-0.23597l5.99154,4.90906   c0.71773,0.58991,0.82391,1.65077,0.234,2.36948C19.88988,36.54803,19.40615,36.75843,18.92046,36.75843z"/>
    <path d="M18.92046,36.75843c-0.48569,0-0.96942-0.2104-1.30174-0.61744c-0.58991-0.71969-0.48373-1.78055,0.234-2.36948   l5.99351-4.90906c0.72166-0.58795,1.77957-0.48569,2.36948,0.23597c0.58991,0.71969,0.48373,1.78055-0.234,2.36948   l-5.99351,4.90905C19.67358,36.63357,19.29604,36.75843,18.92046,36.75843z"/>
    <path d="M 18.92046 67.40733 L 9.67457 67.40733 C 8.74447 67.40733 7.991349999999999 66.65421 7.991349999999999 65.72412 C 7.991349999999999 64.79402 8.74447 64.0409 9.67457 64.0409 L 18.92046 64.0409 C 19.850559999999998 64.0409 20.603679999999997 64.79401999999999 20.603679999999997 65.72412 C 20.60368 66.65421 19.85056 67.40733 18.92046 67.40733 Z" style="fill: rgb(0, 114, 245);"/>
    <path d="M 6.42218 60.15928 C 5.49208 60.15928 4.7389600000000005 59.40616 4.7389600000000005 58.476060000000004 L 4.7389600000000005 45.633660000000006 C 4.7389600000000005 44.70356 5.4920800000000005 43.94946000000001 6.422180000000001 43.94946000000001 L 18.92046 43.94946000000001 C 19.850559999999998 43.94946000000001 20.603679999999997 44.70356000000001 20.603679999999997 45.633660000000006 C 20.603679999999997 46.56376 19.850559999999998 47.31786 18.92046 47.31786 L 8.1054 47.31786 L 8.1054 58.476060000000004 C 8.1054 59.40615 7.35228 60.15928 6.42218 60.15928 Z" style="fill: rgb(0, 114, 245);"/>
    <path d="M 30.67938 67.40733 L 28.168319999999998 67.40733 C 27.29328 67.40733 26.56376 66.73877 26.491 65.86766 C 26.20391 62.4914 27.65903 59.94297 30.69708 58.49769 C 31.28306 58.218469999999996 31.93786 58.30892 32.42159 58.66287 C 32.616260000000004 57.947109999999995 33.2691 57.42012 34.04778 57.42012 C 34.977880000000006 57.42012 35.731 58.17324 35.731 59.103339999999996 L 35.731 62.41471 C 35.731 65.16763 33.46574 67.40733 30.67938 67.40733 Z"/>
    <path d="M 29.92036 64.0409 L 30.67938 64.0409 C 31.59178 64.0409 32.36456 63.29563999999999 32.36456 62.41470999999999 L 32.36456 61.41185999999999 C 32.295739999999995 61.45904999999999 32.22101 61.50034999999999 32.14433 61.53770999999999 C 30.87995 62.13942 30.16616 62.924 29.92036 64.0409 Z"/>
    <path d="M 28.16832 67.40733 L 18.920460000000002 67.40733 C 17.990360000000003 67.40733 17.237240000000003 66.65421 17.237240000000003 65.72412 C 17.237240000000003 64.79402 17.990360000000003 64.0409 18.920460000000002 64.0409 L 28.16832 64.0409 C 29.09842 64.0409 29.85154 64.79401999999999 29.85154 65.72412 C 29.85154 66.65421 29.09842 67.40733 28.16832 67.40733 Z" style="fill: rgb(0, 114, 245);"/>
    <path d="M 31.42071 60.15928 C 30.49061 60.15928 29.73749 59.40616 29.73749 58.476060000000004 L 29.73749 47.31786 L 18.92046 47.31786 C 17.99036 47.31786 17.23724 46.56376 17.23724 45.633660000000006 C 17.23724 44.70356000000001 17.99036 43.94946000000001 18.92046 43.94946000000001 L 31.42071 43.94946000000001 C 32.3508 43.94946000000001 33.10393 44.70356000000001 33.10393 45.633660000000006 L 33.10393 58.476060000000004 C 33.10392 59.40615 32.3508 60.15928 31.42071 60.15928 Z" style="fill: rgb(0, 114, 245);"/>
    <path d="M18.92046,52.45305c-0.9301,0-1.68322-0.75312-1.68322-1.68322v-5.13617c0-0.9301,0.75312-1.6842,1.68322-1.6842   s1.68322,0.7541,1.68322,1.6842v5.13617C20.60368,51.69993,19.85056,52.45305,18.92046,52.45305z" style="fill: rgb(0, 114, 245);"/>
    <path d="M62.30066,100H37.92744c-0.9301,0-1.68322-0.75312-1.68322-1.68322V73.82951c0-0.93009,0.75312-1.68321,1.68322-1.68321   h24.37322c0.9301,0,1.68322,0.75312,1.68322,1.68321c0,0.9301-0.75312,1.68322-1.68322,1.68322h-22.69v21.12083h22.69   c0.9301,0,1.68322,0.75312,1.68322,1.68321C63.98388,99.24688,63.23075,100,62.30066,100z" style="fill: rgb(0, 114, 245);"/>
    <path d="M46.66011,69.2341c-0.93009,0-1.68322-0.75313-1.68322-1.68322v-9.75912c0-0.9301,0.75312-1.68322,1.68322-1.68322   h15.64055c0.9301,0,1.68322,0.75312,1.68322,1.68322s-0.75312,1.68322-1.68322,1.68322H48.34333v8.0759   C48.34333,68.48097,47.59021,69.2341,46.66011,69.2341z" style="fill: rgb(0, 114, 245);"/>
    <path d="M57.27657,53.25337c-0.9301,0-1.68322-0.75312-1.68322-1.68322V30.16518c0-0.9301,0.75312-1.6842,1.68322-1.6842h33.33399   c0.9301,0,1.68322,0.7541,1.68322,1.6842v14.09891c0,0.9301-0.75312,1.6842-1.68322,1.6842   c-0.93009,0-1.68321-0.7541-1.68321-1.6842V31.84937H58.95979v19.72078C58.95979,52.50024,58.20667,53.25337,57.27657,53.25337z" style="fill: rgb(0, 114, 245);"/>
    <path d="M47.6315,94.29161h-4.0527c-0.9301,0-1.68322-0.75312-1.68322-1.68321c0-0.9301,0.75312-1.68322,1.68322-1.68322h4.0527   c0.9301,0,1.68322,0.75312,1.68322,1.68322C49.31472,93.53849,48.5616,94.29161,47.6315,94.29161z" style="fill: rgb(0, 114, 245);"/>
    <path d="M50.71281,88.69727H43.5788c-0.9301,0-1.68322-0.75312-1.68322-1.68321c0-0.9301,0.75312-1.68322,1.68322-1.68322h7.13401   c0.9301,0,1.68322,0.75312,1.68322,1.68322C52.39603,87.94415,51.64291,88.69727,50.71281,88.69727z" style="fill: rgb(0, 114, 245);"/>
    <path d="M56.1931,63.29761c-0.93009,0-1.68322-0.75312-1.68322-1.68322v-3.82264c0-0.9301,0.75312-1.68322,1.68322-1.68322   c0.9301,0,1.68322,0.75312,1.68322,1.68322v3.82264C57.87632,62.54449,57.12319,63.29761,56.1931,63.29761z" style="fill: rgb(0, 114, 245);"/>
    <path d="M77.99626,38.24206h-8.04837c-0.93009,0-1.68322-0.7541-1.68322-1.6842v-6.39268c0-0.9301,0.75313-1.6842,1.68322-1.6842   s1.68322,0.7541,1.68322,1.6842v4.70848h4.68194v-4.70848c0-0.9301,0.75312-1.6842,1.68321-1.6842   c0.9301,0,1.68322,0.7541,1.68322,1.6842v6.39268C79.67948,37.48796,78.92636,38.24206,77.99626,38.24206z" style="fill: rgb(0, 114, 245);"/>
    <path d="M 83.134 58.705 C 82.204 58.705 81.451 57.952 81.451 57.022 L 81.451 51.542 C 81.451 50.612 82.204 49.859 83.134 49.859 C 84.065 49.859 84.818 50.612 84.818 51.542 L 84.818 57.022 C 84.818 57.952 84.065 58.705 83.134 58.705 Z" style="fill: rgb(0, 114, 245);"/>
  </g>
  <rect x="68" y="50" width="30" height="48" style="fill: none; fill-rule: nonzero; stroke-miterlimit: 6.64; stroke-linejoin: round; stroke-width: 4px; stroke: rgb(0, 114, 245);" transform="matrix(1, 0, 0, 1, 1.7763568394002505e-15, 0)"/>
</svg>