<?xml version="1.0" encoding="utf-8"?>
<svg viewBox="0.5033 0 98.9934 100" xmlns="http://www.w3.org/2000/svg" xmlns:bx="https://boxy-svg.com">
  <defs>
    <linearGradient id="color-0" gradientUnits="userSpaceOnUse" bx:pinned="true">
      <stop style="stop-color: rgb(0, 114, 245);"/>
    </linearGradient>
  </defs>
  <g>
    <path d="M49.89373,59.01762c-14.42897,0-21.11452-18.63497-21.25216-31.91659c-0.00983-0.93008,0.73541-1.69203,1.66549-1.70088   c0.0059-0.00098,0.0118-0.00098,0.0177-0.00098c0.92221,0,1.67335,0.74229,1.68318,1.66647   c0.09832,9.346,4.6032,28.58365,17.88383,28.58365c0.03736,0,0.07472,0,0.11208,0   c13.34749-0.10815,17.86613-19.30451,17.96445-28.58365c0.00983-0.92418,0.76097-1.66647,1.68318-1.66647   c0.0059,0,0.0118,0,0.0177,0.00098c0.93008,0.00885,1.67532,0.7708,1.66548,1.70088   c-0.13764,13.18232-6.83891,31.79861-21.30328,31.91462C49.98615,59.01565,49.93895,59.01762,49.89373,59.01762z"/>
    <path d="M10.63386,99.99803c-0.93008,0-1.68318-0.75311-1.68318-1.68318c0-11.53256,3.01833-22.06033,8.28417-28.88155   c2.91411-3.79307,7.24595-4.38493,11.06458-4.90797c3.20119-0.43653,6.22345-0.84946,8.39626-2.92788   c1.54947-1.47082,1.47279-4.44392,1.1975-8.48867c-0.06489-0.92614,0.63709-1.73037,1.5652-1.7933   c0.85535-0.08652,1.72841,0.63709,1.7933,1.5652c0.28709,4.17257,0.58204,8.48671-2.23376,11.15502   c-2.9554,2.82956-6.83695,3.35851-10.26231,3.82649c-3.63772,0.49748-6.77796,0.92615-8.85245,3.62592   c-4.82146,6.24706-7.58613,16.02367-7.58613,26.82673C12.31704,99.24493,11.56393,99.99803,10.63386,99.99803z"/>
    <path d="M89.34237,99.99803c-0.93008,0-1.68319-0.75311-1.68319-1.68318c0-10.80305-2.76466-20.57967-7.58415-26.82476   c-2.07645-2.70174-5.21669-3.13041-8.85442-3.62789c-3.42536-0.46799-7.30691-0.99693-10.26821-3.83436   c-2.804-2.72927-2.51101-7.06701-2.22786-11.2612c0.06096-0.92811,0.87699-1.65369,1.7933-1.5652   c0.92811,0.06292,1.62813,0.86519,1.5652,1.7933c-0.28315,4.21386-0.35394,7.09061,1.20733,8.61255   c2.16297,2.06858,5.18523,2.48151,8.38643,2.91805c3.81863,0.52304,8.15046,1.11491,11.06654,4.90993   c5.26389,6.81926,8.28221,17.34702,8.28221,28.87959C91.02555,99.24493,90.27245,99.99803,89.34237,99.99803z"/>
    <path d="M89.34237,99.99803H10.63386c-0.93008,0-1.68318-0.75311-1.68318-1.68318s0.75311-1.68318,1.68318-1.68318h78.70851   c0.93008,0,1.68318,0.75311,1.68318,1.68318S90.27245,99.99803,89.34237,99.99803z"/>
    <path d="M49.98811,30.23537c-8.23698,0-16.472-0.74623-24.48089-2.23867c-0.91435-0.17107-1.51604-1.05002-1.34694-1.96437   c0.17107-0.91434,1.04216-1.5131,1.96437-1.34694c15.61271,2.91018,32.1142,2.91018,47.72691,0   c0.91042-0.16419,1.7933,0.43259,1.96437,1.34694c0.16911,0.91435-0.43259,1.7933-1.34694,1.96437   C66.46011,29.48915,58.22509,30.23537,49.98811,30.23537z"/>
    <path d="M53.26993,13.98458H46.7063c-1.01659,0-1.90145-0.34902-2.56017-1.00775c-0.76097-0.76097-1.05592-1.85327-0.7708-2.85119   l1.98403-7.77391C45.74476,0.93499,47.0858,0,48.70409,0h2.56804c1.61829,0,2.95934,0.93499,3.33687,2.32618l2.00566,7.8447   c0.27135,0.95269-0.0236,2.04499-0.78457,2.80596C55.17138,13.63556,54.28652,13.98458,53.26993,13.98458z M46.72989,10.59659   l6.52234,0.01966l-1.84836-7.23514c-0.03343-0.00688-0.07669-0.01278-0.13174-0.01278h-2.56804   c-0.05506,0-0.09832,0.0059-0.13174,0.01376L46.72989,10.59659z"/>
    <path d="M39.85951,10.16006c-0.13568,0-0.27332-0.01671-0.41096-0.05014c-0.90059-0.22613-1.44919-1.13949-1.22503-2.04204   L39.364,3.50204c0.3913-1.43739,1.7638-2.41761,3.3467-2.41761h4.28072c0.93008,0,1.68318,0.75409,1.68318,1.68417   s-0.75311,1.68417-1.68318,1.68417H42.7107l-1.21913,4.43114C41.30084,9.64881,40.61262,10.16006,39.85951,10.16006z"/>
    <path d="M29.2413,27.45399c-0.93008,0-1.68318-0.75409-1.68318-1.68417c0-11.62006,4.21583-19.00956,12.53343-21.96299   c0.88092-0.30871,1.84049,0.14748,2.15117,1.02348s-0.14748,1.83852-1.0225,2.15019   c-6.9274,2.45989-10.29574,8.60567-10.29574,18.78933C30.92448,26.6999,30.17138,27.45399,29.2413,27.45399z"/>
    <path d="M60.11671,10.16006c-0.75311,0-1.44133-0.51125-1.63206-1.27615l-1.14047-4.56583l-4.35937,0.13469   c-0.93008,0-1.68319-0.75409-1.68319-1.68417s0.75311-1.68417,1.68319-1.68417h4.28071c1.5829,0,2.9554,0.98022,3.33687,2.3832   l1.15031,4.60024c0.22416,0.90255-0.32444,1.81591-1.22503,2.04204C60.39003,10.14335,60.25239,10.16006,60.11671,10.16006z"/>
    <path d="M70.73492,27.45399c-0.93008,0-1.68318-0.75409-1.68318-1.68417c0-10.17972-3.35064-16.32551-10.24068-18.79031   c-0.87698-0.31363-1.33318-1.27714-1.01856-2.15314c0.31265-0.876,1.28205-1.32728,2.15117-1.01856   c8.27827,2.9613,12.47444,10.34981,12.47444,21.96201C72.41811,26.6999,71.665,27.45399,70.73492,27.45399z"/>
    <path d="M27.01541,100c-0.15731,0-0.31658-0.0236-0.47585-0.07079c-0.89272-0.26153-1.402-1.19947-1.13851-2.09022   l5.99339-20.32012c0.2104-0.71574,0.86715-1.20733,1.61436-1.20733h17.00881c0.93008,0,1.68318,0.75311,1.68318,1.68318   s-0.75311,1.68319-1.68318,1.68319H34.26725L28.62977,98.7907C28.41347,99.52415,27.74295,100,27.01541,100z"/>
    <path d="M33.0088,79.67988c-0.65282,0-1.27419-0.38343-1.54751-1.02052L26.4373,66.95965   c-0.36574-0.85535,0.0295-1.84442,0.88288-2.21213c0.85142-0.3618,1.84639,0.0295,2.21213,0.88289l5.02399,11.6997   c0.36574,0.85535-0.0295,1.84442-0.88288,2.21213C33.45712,79.63465,33.231,79.67988,33.0088,79.67988z"/>
    <path d="M38.60106,79.67988c-0.66856,0-1.30172-0.40113-1.56324-1.06182l-5.07905-12.7281   c-0.34608-0.86322,0.07472-1.84245,0.93991-2.18656c0.86126-0.35001,1.84443,0.07275,2.18657,0.9399l5.07904,12.7281   c0.34608,0.86323-0.07472,1.84246-0.93991,2.18657C39.01989,79.64056,38.80949,79.67988,38.60106,79.67988z"/>
    <path d="M72.96082,100c-0.72754,0-1.39806-0.47585-1.61436-1.2093l-5.63749-19.11279H50.01761   c-0.93008,0-1.68319-0.75311-1.68319-1.68319s0.75311-1.68318,1.68319-1.68318h16.94981c0.74721,0,1.40397,0.49158,1.61436,1.20733   L74.57518,97.839c0.26349,0.89075-0.24579,1.82869-1.1385,2.09022C73.2774,99.9764,73.11813,100,72.96082,100z"/>
    <path d="M66.96742,79.67988c-0.22219,0-0.44832-0.04523-0.66462-0.13764c-0.85339-0.36771-1.24862-1.35677-0.88288-2.21213   l5.02399-11.6997c0.36771-0.85339,1.3607-1.24273,2.21213-0.88289c0.85339,0.36771,1.24863,1.35677,0.88289,2.21213   l-5.02399,11.69971C68.24162,79.29645,67.62025,79.67988,66.96742,79.67988z"/>
    <path d="M61.37516,79.67988c-0.20843,0-0.41883-0.03932-0.62333-0.12191c-0.86519-0.34411-1.28598-1.32334-0.93991-2.18657   l5.07905-12.7281c0.34214-0.86715,1.32531-1.28991,2.18656-0.9399c0.86519,0.34411,1.28599,1.32334,0.93991,2.18656   l-5.07904,12.7281C62.67688,79.27678,62.04372,79.67988,61.37516,79.67988z"/>
    <path d="M2.18648,90.52226c-0.93008,0-1.68318-0.75311-1.68318-1.68319V38.04173c0-0.93008,0.75311-1.68417,1.68318-1.68417   s1.68318,0.75409,1.68318,1.68417v50.79735C3.86966,89.76915,3.11655,90.52226,2.18648,90.52226z" style="fill: url('#color-0');"/>
    <path d="M24.90356,39.72589H2.18648c-0.93008,0-1.68318-0.75409-1.68318-1.68417s0.75311-1.68417,1.68318-1.68417h22.71708   c0.93008,0,1.68319,0.75409,1.68319,1.68417S25.83364,39.72589,24.90356,39.72589z" style="fill: url('#color-0');"/>
    <path d="M31.29612,55.13607H2.18648c-0.93008,0-1.68318-0.75311-1.68318-1.68318c0-0.93008,0.75311-1.68319,1.68318-1.68319   h29.10964c0.93008,0,1.68318,0.75311,1.68318,1.68319C32.9793,54.38297,32.2262,55.13607,31.29612,55.13607z" style="fill: url('#color-0');"/>
    <path d="M13.54403,70.60327H2.18648c-0.93008,0-1.68318-0.75311-1.68318-1.68318s0.75311-1.68318,1.68318-1.68318h11.35756   c0.93008,0,1.68318,0.75311,1.68318,1.68318S14.47411,70.60327,13.54403,70.60327z" style="fill: url('#color-0');"/>
    <path d="M7.09445,86.07047H2.18648c-0.93008,0-1.68318-0.75311-1.68318-1.68318s0.75311-1.68318,1.68318-1.68318h4.90798   c0.93008,0,1.68318,0.75311,1.68318,1.68318S8.02453,86.07047,7.09445,86.07047z" style="fill: url('#color-0');"/>
    <path d="M11.89035,70.60327c-0.93008,0-1.68318-0.75311-1.68318-1.68318v-15.4672c0-0.93008,0.75311-1.68319,1.68318-1.68319   c0.93008,0,1.68318,0.75311,1.68318,1.68319v15.4672C13.57353,69.85017,12.82042,70.60327,11.89035,70.60327z" style="fill: url('#color-0');"/>
    <path d="M28.04183,62.8972c-0.93008,0-1.68318-0.75311-1.68318-1.68319v-7.76113c0-0.93008,0.75311-1.68319,1.68318-1.68319   s1.68318,0.75311,1.68318,1.68319v7.76113C29.72502,62.14409,28.97191,62.8972,28.04183,62.8972z" style="fill: url('#color-0');"/>
    <path d="M19.99362,55.13607c-0.93008,0-1.68318-0.75311-1.68318-1.68318V38.04173c0-0.93008,0.75311-1.68417,1.68318-1.68417   s1.68318,0.75409,1.68318,1.68417v15.41116C21.6768,54.38297,20.92369,55.13607,19.99362,55.13607z" style="fill: url('#color-0');"/>
    <path d="M90.25475,64.15369c-0.43063,0-0.86125-0.1632-1.1916-0.49355L71.31303,45.91002   c-0.65479-0.65577-0.65675-1.71759-0.00393-2.37632c6.76223-6.81827,16.77875-9.57114,26.1562-7.18008   c0.59973,0.15239,1.06576,0.62234,1.21716,1.22306c2.33601,9.34895-0.43849,19.34482-7.24202,26.08935   C91.11207,63.99245,90.68341,64.15369,90.25475,64.15369z M74.92323,44.75676l15.29416,15.29515   c4.90012-5.60603,6.9333-13.3062,5.42316-20.66619C88.26875,37.83035,80.54301,39.84879,74.92323,44.75676z" style="fill: url('#color-0');"/>
    <path d="M75.47183,61.01345c-0.42867,0-0.85929-0.16321-1.18767-0.48962c-0.65872-0.65479-0.66266-1.72054-0.0059-2.38123   l9.47577-9.53083c0.65282-0.65872,1.72055-0.66265,2.38123-0.0059c0.65873,0.65479,0.66266,1.72054,0.00591,2.38123   l-9.47578,9.53083C76.33702,60.84828,75.90443,61.01345,75.47183,61.01345z" style="fill: url('#color-0');"/>
    <path d="M76.95641,64.55286c-0.42473,0-0.84946-0.15927-1.17587-0.47782c-0.66659-0.65086-0.67839-1.71661-0.0295-2.38123   l1.17194-1.19947l-2.64276-2.61326l-3.9543,3.9543c-0.65675,0.65676-1.72054,0.65873-2.38123-0.00196   c-0.65675-0.65676-0.65675-1.72251,0.00197-2.38123l5.13804-5.13607c0.65479-0.65479,1.71465-0.65479,2.37337-0.0059l5.02202,4.965   c0.65872,0.65086,0.66856,1.71071,0.02163,2.37337l-2.33994,2.39697C77.83144,64.38375,77.39491,64.55286,76.95641,64.55286z" style="fill: url('#color-0');"/>
  </g>
</svg>