<?xml version="1.0" encoding="utf-8"?>
<svg viewBox="0.3188 0.64 100.0027 99.98" xmlns="http://www.w3.org/2000/svg">
  <g class="layer">
    <title>Layer 1</title>
    <g id="svg_1">
      <path d="m50.43,56.96c-0.05,0 -0.1,0 -0.14,0c-15.33,-0.11 -22.42,-19.86 -22.55,-33.85c-0.01,-0.93 0.73,-1.69 1.66,-1.7c0.01,0 0.01,0 0.02,0c0.92,0 1.67,0.75 1.68,1.67c0.1,9.91 4.92,30.41 19.22,30.52c0.03,0 0.07,0 0.11,0c14.23,0 19.03,-20.54 19.13,-30.52c0.01,-0.92 0.76,-1.67 1.69,-1.67c0,0 0.01,0 0.01,0c0.93,0.01 1.68,0.77 1.67,1.7c-0.14,14.09 -7.21,33.85 -22.5,33.85z" id="svg_2"/>
      <path d="m92.19,100.62c-0.93,0 -1.68,-0.76 -1.68,-1.69c0,-11.53 -2.94,-21.96 -8.04,-28.58c-2.26,-2.95 -5.64,-3.41 -9.54,-3.94c-3.8,-0.51 -7.72,-1.04 -10.84,-4.04c-2.96,-2.89 -2.66,-7.63 -2.4,-11.82c0.06,-0.93 0.87,-1.63 1.79,-1.57c0.93,0.06 1.63,0.86 1.57,1.78c-0.27,4.33 -0.33,7.52 1.38,9.19c2.32,2.23 5.54,2.67 8.95,3.13c4.06,0.55 8.65,1.17 11.75,5.21c5.56,7.21 8.74,18.38 8.74,30.64c0,0.93 -0.75,1.69 -1.68,1.69z" id="svg_3"/>
      <path d="m8.48,100.62c-0.93,0 -1.69,-0.76 -1.69,-1.69c0,-12.26 3.19,-23.43 8.74,-30.64c3.07,-4.04 7.67,-4.66 11.73,-5.21c3.42,-0.47 6.66,-0.9 8.98,-3.14c1.79,-1.7 1.57,-5.22 1.31,-9.29c-0.05,-0.93 0.65,-1.73 1.58,-1.79c0.92,-0.04 1.73,0.65 1.78,1.58c0.3,4.71 0.58,9.15 -2.34,11.94c-3.11,2.99 -7.05,3.52 -10.85,4.03c-3.91,0.53 -7.29,0.99 -9.52,3.93c-5.11,6.64 -8.04,17.06 -8.04,28.59c0,0.93 -0.75,1.69 -1.68,1.69z" id="svg_4"/>
      <path d="m92.19,100.62l-83.71,0c-0.93,0 -1.69,-0.76 -1.69,-1.69c0,-0.93 0.76,-1.68 1.69,-1.68l83.71,0c0.93,0 1.68,0.75 1.68,1.68c0,0.93 -0.75,1.69 -1.68,1.69z" id="svg_5"/>
      <path d="m74.78,100.62c-0.72,0 -1.4,-0.48 -1.61,-1.21l-6.04,-20.42l-16.83,0c-0.93,0 -1.68,-0.75 -1.68,-1.68c0,-0.93 0.75,-1.69 1.68,-1.69l18.09,0c0.75,0 1.41,0.49 1.62,1.21l6.39,21.63c0.26,0.89 -0.25,1.82 -1.14,2.09c-0.16,0.04 -0.32,0.07 -0.48,0.07z" id="svg_6"/>
      <path d="m25.88,100.62c-0.16,0 -0.32,-0.03 -0.48,-0.07c-0.89,-0.27 -1.4,-1.2 -1.13,-2.09l6.39,-21.63c0.21,-0.72 0.87,-1.21 1.61,-1.21l18.03,0c0.93,0 1.69,0.76 1.69,1.69c0,0.93 -0.76,1.68 -1.69,1.68l-16.77,0l-6.03,20.42c-0.22,0.73 -0.89,1.21 -1.62,1.21z" id="svg_7"/>
      <path d="m50.31,28.9c-7.35,0 -14.7,-1.42 -21.54,-4.25c-0.86,-0.35 -1.26,-1.34 -0.91,-2.2c0.36,-0.86 1.35,-1.26 2.2,-0.91c12.86,5.33 27.63,5.33 40.54,0c0.86,-0.35 1.84,0.05 2.2,0.91c0.36,0.86 -0.05,1.85 -0.91,2.2c-6.87,2.83 -14.23,4.25 -21.58,4.25z" id="svg_8"/>
      <path d="m71.24,24.78c-0.27,0 -0.55,-0.07 -0.8,-0.21c-3.95,-2.16 -8.52,-3.54 -13.58,-4.08c-0.93,-0.1 -1.6,-0.93 -1.5,-1.85c0.1,-0.93 0.9,-1.59 1.86,-1.5c5.5,0.6 10.49,2.1 14.83,4.48c0.82,0.45 1.12,1.47 0.67,2.29c-0.3,0.55 -0.88,0.87 -1.48,0.87z" id="svg_9"/>
      <path d="m29.42,24.78c-0.6,0 -1.17,-0.32 -1.48,-0.87c-0.44,-0.82 -0.15,-1.84 0.67,-2.29c4.34,-2.38 9.33,-3.88 14.84,-4.48c0.94,-0.08 1.75,0.57 1.85,1.5c0.1,0.92 -0.57,1.75 -1.49,1.85c-5.06,0.54 -9.63,1.92 -13.58,4.08c-0.26,0.14 -0.54,0.21 -0.81,0.21z" id="svg_10"/>
      <path d="m71.25,24.78c-0.93,0 -1.69,-0.75 -1.69,-1.68l0,-10.39c0,-4.8 -3.9,-8.7 -8.7,-8.7l-21.06,0c-4.79,0 -8.7,3.9 -8.7,8.7l0,10.39c0,0.93 -0.75,1.68 -1.68,1.68s-1.68,-0.75 -1.68,-1.68l0,-10.39c0,-6.65 5.41,-12.07 12.06,-12.07l21.06,0c6.65,0 12.07,5.42 12.07,12.07l0,10.39c0,0.93 -0.75,1.68 -1.68,1.68z" id="svg_11"/>
      <path d="m79.01,100.62c-0.93,0 -1.69,-0.76 -1.69,-1.69l0,-9.3c0,-0.93 0.76,-1.68 1.69,-1.68c0.92,0 1.68,0.75 1.68,1.68l0,9.3c0,0.93 -0.76,1.69 -1.68,1.69z" id="svg_12"/>
      <path d="m21.66,100.62c-0.93,0 -1.68,-0.76 -1.68,-1.69l0,-9.3c0,-0.93 0.75,-1.68 1.68,-1.68c0.93,0 1.68,0.75 1.68,1.68l0,9.3c0,0.93 -0.75,1.69 -1.68,1.69z" id="svg_13"/>
      <path d="m11.17,50.94c-0.91,0 -1.82,-0.12 -2.71,-0.35c-2.81,-0.72 -5.16,-2.51 -6.63,-5.02c-1.91,-3.23 -2.02,-7.17 -0.27,-10.53c0.01,-0.01 0.02,-0.02 0.02,-0.04c0.86,-1.54 3.35,-1.54 4.2,0l3.06,5.16c1.36,-0.3 2.6,-1.02 3.54,-2.06l-3.07,-5.19c-0.45,-0.8 -0.44,-1.74 0,-2.49c0.44,-0.75 1.22,-1.19 2.08,-1.19c3.86,0.14 7.26,2.14 9.15,5.33c3.01,5.16 1.29,11.82 -3.84,14.86c-1.72,1.01 -3.61,1.52 -5.53,1.52zm-7.29,-12.54c-0.42,1.85 -0.14,3.79 0.85,5.46c1.02,1.75 2.64,2.97 4.57,3.47c1.93,0.5 3.95,0.21 5.69,-0.81c3.54,-2.09 4.73,-6.69 2.65,-10.25c-0.99,-1.66 -2.57,-2.85 -4.43,-3.38l2.65,4.47c0.33,0.55 0.31,1.25 -0.04,1.78c-1.73,2.63 -4.63,4.32 -7.75,4.52c-0.66,0.04 -1.23,-0.27 -1.56,-0.82l-2.63,-4.44z" fill="#0000ff" id="svg_14"/>
      <path d="m18.58,62.78c-0.62,0 -1.21,-0.34 -1.51,-0.93l-1.96,-3.9c-1.36,-2.68 -2.74,-5.42 -4.04,-8.1c-0.41,-0.83 -0.06,-1.84 0.78,-2.25c0.83,-0.41 1.84,-0.05 2.25,0.78c1.3,2.67 2.67,5.39 4.01,8.06l1.97,3.91c0.42,0.83 0.08,1.84 -0.75,2.26c-0.24,0.12 -0.5,0.17 -0.75,0.17zm9.18,-1.71c-0.54,0 -1.07,-0.26 -1.39,-0.74c-2.32,-3.46 -5.82,-8.62 -9.34,-13.61c-0.54,-0.76 -0.35,-1.81 0.4,-2.35c0.77,-0.53 1.81,-0.35 2.35,0.41c3.54,5.01 7.05,10.2 9.38,13.67c0.52,0.77 0.31,1.82 -0.46,2.34c-0.29,0.19 -0.61,0.28 -0.94,0.28z" fill="#0000ff" id="svg_15"/>
      <path d="m32.27,78.99c-0.93,0 -1.68,-0.75 -1.68,-1.68l0,-13.41c0,-0.93 0.75,-1.69 1.68,-1.69s1.69,0.76 1.69,1.69l0,13.41c0,0.93 -0.76,1.68 -1.69,1.68z" id="svg_16"/>
      <path d="m68.39,78.99c-0.93,0 -1.68,-0.75 -1.68,-1.68l0,-13.41c0,-0.93 0.75,-1.69 1.68,-1.69c0.93,0 1.68,0.76 1.68,1.69l0,13.41c0,0.93 -0.75,1.68 -1.68,1.68z" id="svg_17"/>
      <path d="m61.54,89.15l-22.48,0c-0.93,0 -1.68,-0.76 -1.68,-1.69c0,-0.93 0.75,-1.68 1.68,-1.68l22.48,0c0.93,0 1.69,0.75 1.69,1.68c0,0.93 -0.76,1.69 -1.69,1.69z" id="svg_18"/>
      <path d="m91.96,75.62c-0.35,0 -0.69,-0.1 -0.99,-0.32c-0.75,-0.55 -0.92,-1.6 -0.37,-2.35l4.42,-6.06l-1.54,-1.12c-0.61,-0.44 -0.85,-1.23 -0.59,-1.94c0.47,-1.3 0.73,-2.37 0.82,-3.44c0.16,-1.34 0.15,-2.54 -0.04,-3.62c-0.14,-0.77 0.27,-1.53 0.99,-1.84l1.75,-0.75l-2.35,-5.31l-1.78,0.77c-0.69,0.3 -1.48,0.1 -1.96,-0.48c-1.5,-1.8 -3.53,-3.29 -5.73,-4.19c-0.7,-0.29 -1.12,-1 -1.04,-1.75l0.22,-1.91l-5.79,-0.61l-0.21,1.93c-0.08,0.74 -0.64,1.34 -1.38,1.47c-1.54,0.27 -2.82,0.69 -4.03,1.32c-0.82,0.43 -1.84,0.11 -2.27,-0.72c-0.42,-0.82 -0.1,-1.84 0.72,-2.27c1.15,-0.6 2.39,-1.05 3.75,-1.39l0.26,-2.38c0.1,-0.92 0.94,-1.59 1.85,-1.49l9.13,0.97c0.45,0.05 0.86,0.27 1.14,0.62c0.28,0.35 0.41,0.8 0.36,1.24l-0.27,2.38c1.88,0.93 3.59,2.18 5.03,3.68l2.2,-0.94c0.84,-0.37 1.83,0.01 2.21,0.86l3.71,8.39c0.18,0.41 0.19,0.88 0.02,1.3c-0.16,0.41 -0.48,0.75 -0.9,0.93l-2.15,0.93c0.07,1.02 0.04,2.1 -0.1,3.21c-0.08,0.95 -0.27,1.94 -0.59,3.03l1.91,1.39c0.36,0.26 0.6,0.66 0.67,1.1c0.07,0.44 -0.04,0.89 -0.3,1.25l-5.42,7.42c-0.33,0.45 -0.84,0.69 -1.36,0.69z" fill="#0000ff" id="svg_19"/>
      <path d="m87.16,36.88c-0.82,0 -1.53,-0.6 -1.66,-1.43l-0.11,-0.71c-0.8,-0.21 -1.59,-0.52 -2.34,-0.93l-0.56,0.43c-0.73,0.57 -1.78,0.44 -2.35,-0.28l-3.02,-3.83c-0.58,-0.72 -0.46,-1.77 0.26,-2.35l0.56,-0.46c-0.1,-0.37 -0.19,-0.78 -0.25,-1.23c-0.07,-0.38 -0.11,-0.79 -0.12,-1.23l-0.65,-0.25c-0.43,-0.16 -0.76,-0.49 -0.94,-0.9c-0.18,-0.41 -0.19,-0.88 -0.02,-1.3l1.83,-4.56c0.34,-0.86 1.31,-1.28 2.17,-0.95l0.68,0.27c0.58,-0.58 1.24,-1.1 1.95,-1.54l-0.11,-0.73c-0.07,-0.44 0.04,-0.89 0.31,-1.25c0.27,-0.37 0.67,-0.6 1.12,-0.67l4.85,-0.68c0.91,-0.12 1.76,0.5 1.9,1.42l0.1,0.7c0.8,0.21 1.58,0.51 2.32,0.91l0.56,-0.45c0.35,-0.28 0.8,-0.41 1.25,-0.36c0.44,0.05 0.85,0.28 1.13,0.63l3.02,3.82c0.58,0.72 0.46,1.77 -0.26,2.35l-0.57,0.46c0.1,0.39 0.19,0.79 0.26,1.21c0.07,0.42 0.1,0.86 0.11,1.31l0.66,0.25c0.42,0.16 0.76,0.49 0.94,0.9c0.18,0.41 0.19,0.88 0.02,1.3l-1.83,4.56c-0.16,0.42 -0.49,0.75 -0.91,0.93c-0.42,0.17 -0.88,0.17 -1.3,0l-0.64,-0.27c-0.58,0.59 -1.24,1.11 -1.95,1.56l0.11,0.73c0.07,0.44 -0.04,0.89 -0.31,1.25c-0.27,0.36 -0.67,0.6 -1.12,0.67l-4.85,0.68c-0.08,0.01 -0.16,0.02 -0.24,0.02zm-4.22,-6.79c0.34,0 0.68,0.1 0.97,0.3c0.96,0.68 2.09,1.12 3.17,1.25c0.75,0.09 1.35,0.67 1.47,1.42l0.03,0.23l1.52,-0.21l-0.04,-0.2c-0.11,-0.73 0.28,-1.45 0.94,-1.77c1.09,-0.52 2.02,-1.27 2.69,-2.18c0.46,-0.61 1.29,-0.83 2,-0.54l0.19,0.08l0.56,-1.39l-0.18,-0.07c-0.7,-0.27 -1.13,-0.97 -1.07,-1.71c0.05,-0.65 0.04,-1.24 -0.04,-1.78c-0.11,-0.62 -0.26,-1.16 -0.47,-1.66c-0.28,-0.69 -0.08,-1.49 0.5,-1.96l0.19,-0.15l-0.94,-1.18l-0.16,0.13c-0.59,0.47 -1.41,0.5 -2.02,0.07c-0.96,-0.68 -2.09,-1.12 -3.17,-1.25c-0.76,-0.09 -1.35,-0.67 -1.47,-1.42l-0.03,-0.23l-1.52,0.21l0.03,0.2c0.11,0.73 -0.27,1.45 -0.94,1.77c-1.07,0.51 -2,1.26 -2.71,2.15c-0.46,0.58 -1.24,0.79 -1.93,0.53l-0.22,-0.09l-0.57,1.44l0.18,0.07c0.7,0.27 1.13,0.97 1.07,1.71c-0.05,0.64 -0.04,1.22 0.04,1.7c0.11,0.69 0.25,1.2 0.44,1.63c0.32,0.7 0.12,1.53 -0.47,2.01l-0.19,0.15l0.96,1.21l0.17,-0.12c0.3,-0.24 0.66,-0.35 1.02,-0.35z" fill="#0000ff" id="svg_20"/>
      <path d="m88.08,28.77c-2.31,0 -4.19,-1.88 -4.19,-4.19s1.88,-4.19 4.19,-4.19s4.19,1.88 4.19,4.19s-1.88,4.19 -4.19,4.19zm0,-5.02c-0.47,0 -0.83,0.36 -0.83,0.83c0,0.44 0.39,0.83 0.83,0.83s0.83,-0.39 0.83,-0.83c0,-0.47 -0.36,-0.83 -0.83,-0.83z" fill="#0000ff" id="svg_21"/>
      <path d="m84.54,65.24c-0.38,0 -0.76,-0.13 -1.08,-0.39c-0.71,-0.6 -0.81,-1.66 -0.21,-2.37c0.89,-1.07 1.38,-2.39 1.38,-3.72c0,-3.16 -2.55,-5.74 -5.68,-5.74c-3.13,0 -5.68,2.58 -5.68,5.74c0,0.13 -0.01,0.3 0.03,0.47c0.18,0.91 -0.41,1.8 -1.32,1.98c-0.92,0.18 -1.8,-0.41 -1.99,-1.32c-0.08,-0.4 -0.08,-0.81 -0.08,-1.13c0,-5.02 4.05,-9.1 9.04,-9.1c4.99,0 9.04,4.08 9.04,9.1c0,2.12 -0.76,4.2 -2.16,5.87c-0.33,0.4 -0.81,0.61 -1.29,0.61z" fill="#0000ff" id="svg_22"/>
    </g>
    <line fill="none" id="svg_24" transform="matrix(1 0 0 1 0 0)" x1="88.5" x2="68.5" y1="59.59" y2="65.59"/>
  </g>
</svg>