<?xml version="1.0" encoding="utf-8"?>
<svg viewBox="0 0.0138 100 99.9723" xmlns="http://www.w3.org/2000/svg" xmlns:bx="https://boxy-svg.com">
  <defs>
    <linearGradient id="color-0" gradientUnits="userSpaceOnUse" bx:pinned="true">
      <stop style="stop-color: rgb(0, 114, 245);"/>
    </linearGradient>
  </defs>
  <g>
    <path d="M49.83975,56.33378c-15.25257,0-22.3078-19.76604-22.44541-33.84995c-0.00983-0.92982,0.73717-1.69058,1.66699-1.69943   c0.00393-0.00098,0.00983-0.00098,0.01573-0.00098c0.92196,0,1.67485,0.74307,1.68272,1.66699   c0.09829,9.97738,4.89285,30.51597,19.07801,30.51597c0.03735,0,0.07273,0,0.11205,0   c14.33456-0.10812,19.17236-20.60641,19.27065-30.51597c0.00787-0.92392,0.76077-1.66699,1.68272-1.66699   c0.0059,0,0.0118,0,0.01572,0.00098c0.92982,0.00885,1.67682,0.76961,1.66699,1.69943   c-0.12778,13.0214-6.379,33.7261-22.6125,33.84798C49.93018,56.33181,49.88497,56.33378,49.83975,56.33378z"/>
    <path d="M8.13548,99.98418c-0.92982,0-1.68272-0.7529-1.68272-1.68272c0-12.26457,3.18458-23.43224,8.73794-30.64276   c3.06467-4.0397,7.66855-4.66286,11.73184-5.21132c3.42048-0.46392,6.65224-0.90033,8.97777-3.13544   c1.65716-1.61588,1.59622-4.68448,1.31118-9.17828c-0.05701-0.92785,0.64674-1.72793,1.5746-1.78691   c0.91999-0.05897,1.72793,0.64675,1.78691,1.5746c0.27914,4.41713,0.56811,8.98367-2.33143,11.81048   c-3.12757,3.00373-7.06309,3.53646-10.8669,4.05149c-3.90799,0.5288-7.28129,0.98486-9.5105,3.92175   C12.7492,76.34554,9.8182,86.7662,9.8182,98.30147C9.8182,99.23129,9.0653,99.98418,8.13548,99.98418z"/>
    <path d="M91.84479,99.98418c-0.92982,0-1.68272-0.7529-1.68272-1.68272c0-11.53723-2.93099-21.95789-8.03812-28.58654   c-2.23707-2.94672-5.61037-3.40279-9.51836-3.93159c-3.8038-0.51504-7.73932-1.04777-10.85706-4.04167   c-2.9192-2.77766-2.63809-7.22625-2.34126-11.93432c0.05898-0.92786,0.86102-1.61981,1.7869-1.5746   c0.92786,0.05898,1.63161,0.85905,1.5746,1.7869c-0.25752,4.07116-0.48162,7.58796,1.30529,9.28836   c2.33143,2.23904,5.56319,2.67545,8.98367,3.13937c4.06329,0.54846,8.66718,1.17161,11.73971,5.22114   c5.5455,7.19676,8.73008,18.36639,8.73008,30.63293C93.5275,99.23129,92.7746,99.98418,91.84479,99.98418z"/>
    <path d="M91.84479,99.98418H8.13548c-0.92982,0-1.68272-0.7529-1.68272-1.68272c0-0.92982,0.7529-1.68272,1.68272-1.68272h83.7093   c0.92982,0,1.68272,0.75289,1.68272,1.68272C93.5275,99.23129,92.7746,99.98418,91.84479,99.98418z"/>
    <path d="M25.5406,99.98615c-0.15726,0-0.31846-0.02359-0.47769-0.07077c-0.8905-0.26342-1.39964-1.19913-1.13623-2.09161   l6.39079-21.62567c0.21034-0.71555,0.86888-1.20503,1.61392-1.20503h18.03024c0.92982,0,1.68272,0.7529,1.68272,1.68272   c0,0.92982-0.7529,1.68272-1.68272,1.68272H33.1895l-6.03498,20.42064C26.93828,99.51043,26.26795,99.98418,25.5406,99.98615z"/>
    <path d="M31.93139,78.36047c-0.65264,0-1.27383-0.38332-1.54708-1.02024l-5.36465-12.49654   c-0.36564-0.85511,0.02949-1.84391,0.88264-2.21151c0.85315-0.36563,1.84588,0.02949,2.21152,0.88264l5.36465,12.49654   c0.36564,0.85512-0.02949,1.84392-0.88264,2.21152C32.37959,78.31526,32.15353,78.36047,31.93139,78.36047z"/>
    <path d="M37.86415,78.36047c-0.66837,0-1.30135-0.40102-1.56281-1.06152l-5.41969-13.58166   c-0.34598-0.86298,0.0747-1.84195,0.93965-2.18596c0.85905-0.34795,1.84391,0.07273,2.18596,0.93965l5.41969,13.58165   c0.34598,0.86298-0.0747,1.84195-0.93965,2.18596C38.28286,78.32116,38.07253,78.36047,37.86415,78.36047z"/>
    <path d="M74.43967,99.98615c-0.72734,0-1.39767-0.47572-1.61391-1.207l-6.03498-20.42064H49.96163   c-0.92982,0-1.68272-0.7529-1.68272-1.68272c0-0.92982,0.7529-1.68272,1.68272-1.68272h18.08725   c0.74503,0,1.40357,0.48949,1.61391,1.20503l6.39079,21.62567c0.26342,0.89247-0.24572,1.82819-1.13622,2.09161   C74.75813,99.96256,74.59693,99.98615,74.43967,99.98615z"/>
    <path d="M68.04888,78.36047c-0.22214,0-0.4482-0.04521-0.66444-0.1376c-0.85316-0.3676-1.24828-1.3564-0.88264-2.21152   l5.36465-12.49654c0.36761-0.85118,1.3623-1.24631,2.21152-0.88264c0.85315,0.3676,1.24828,1.3564,0.88264,2.21151   l-5.36464,12.49654C69.32272,77.97715,68.70152,78.36047,68.04888,78.36047z"/>
    <path d="M62.11612,78.36047c-0.20837,0-0.41872-0.03931-0.62316-0.12188c-0.86495-0.34401-1.28563-1.32298-0.93965-2.18596   l5.41969-13.58165c0.34205-0.86495,1.32494-1.28956,2.18596-0.93965c0.86494,0.34401,1.28563,1.32298,0.93965,2.18596   l-5.41969,13.58166C63.41748,77.95946,62.78449,78.36047,62.11612,78.36047z"/>
    <path d="M49.99112,28.32616c-7.30292,0-14.60583-1.43404-21.55687-4.30312c-0.85905-0.35483-1.26793-1.3387-0.91409-2.19776   c0.35581-0.86102,1.34067-1.26793,2.19972-0.91409c13.07055,5.39512,27.46604,5.39708,40.54052,0   c0.85905-0.35482,1.84194,0.05308,2.19972,0.91409c0.35384,0.85905-0.05505,1.84293-0.91409,2.19776   C64.59499,26.89212,57.29207,28.32616,49.99112,28.32616z"/>
    <path d="M29.07903,24.15082c-0.59564,0-1.17161-0.31649-1.47828-0.87478c-0.44624-0.8158-0.14744-1.83802,0.66837-2.28523   c4.34047-2.37861,9.33161-3.8844,14.83583-4.47709c0.94162-0.08158,1.75546,0.57008,1.85374,1.494   c0.10025,0.92392-0.56812,1.75447-1.49204,1.85374c-5.06191,0.54453-9.63041,1.91763-13.58165,4.08197   C29.62945,24.08399,29.35227,24.15082,29.07903,24.15082z"/>
    <path d="M70.90125,24.15082c-0.27325,0-0.55042-0.06684-0.80598-0.20739c-3.95124-2.16434-8.51974-3.53744-13.58165-4.08197   c-0.92392-0.09927-1.59229-0.92982-1.49203-1.85374c0.09829-0.92491,0.90033-1.59033,1.85374-1.494   c5.50422,0.59269,10.49536,2.09848,14.83583,4.47709c0.8158,0.44722,1.1146,1.46943,0.66837,2.28523   C72.07285,23.83433,71.49688,24.15082,70.90125,24.15082z"/>
    <path d="M70.90321,24.15082c-0.92982,0-1.68272-0.75388-1.68272-1.6837V12.08185c0-4.79751-3.90406-8.70059-8.70256-8.70059   H39.46234c-4.7985,0-8.70256,3.90308-8.70256,8.70059v10.38528c0,0.92982-0.7529,1.6837-1.68272,1.6837   s-1.68272-0.75388-1.68272-1.6837V12.08185c0-6.6542,5.41379-12.068,12.068-12.068h21.05559c6.6542,0,12.068,5.41379,12.068,12.068   v10.38528C72.58593,23.39694,71.83303,24.15082,70.90321,24.15082z"/>
    <path d="M21.31808,99.98418c-0.92982,0-1.68272-0.7529-1.68272-1.68272v-9.30213c0-0.92982,0.7529-1.68272,1.68272-1.68272   s1.68272,0.7529,1.68272,1.68272v9.30213C23.0008,99.23129,22.2479,99.98418,21.31808,99.98418z"/>
    <path d="M78.66219,99.98418c-0.92982,0-1.68272-0.7529-1.68272-1.68272v-9.30213c0-0.92982,0.7529-1.68272,1.68272-1.68272   c0.92982,0,1.68272,0.7529,1.68272,1.68272v9.30213C80.34491,99.23129,79.59201,99.98418,78.66219,99.98418z"/>
    <path d="M89.11823,50.30666c-1.91664,0-3.8038-0.5111-5.49242-1.51169c-2.50442-1.46452-4.28739-3.81757-5.00884-6.62079   c-0.72144-2.79437-0.30862-5.7175,1.16179-8.23175c1.89502-3.20522,5.29191-5.19854,9.09178-5.33909c0.00197,0,0.00394,0,0.00394,0   c0.92195,0,1.69647,0.44328,2.13485,1.18537c0.44033,0.74798,0.45016,1.68862,0.02555,2.45331l-3.09808,5.22606   c0.93179,1.03499,2.15647,1.75938,3.48928,2.06211l3.07842-5.19657c0.40495-0.73127,1.22076-1.20994,2.10537-1.20994   c0.88264,0,1.69844,0.47867,2.12698,1.25024c0.0059,0.01376,0.01376,0.02654,0.01966,0.0403   c1.74955,3.35561,1.64733,7.29505-0.27129,10.53664c-1.45861,2.49459-3.81167,4.27462-6.62078,5.00393   C90.95428,50.19068,90.03233,50.30666,89.11823,50.30666z M87.1151,32.2548c-1.84588,0.52192-3.44407,1.71909-4.43483,3.39492   c-1.01435,1.73481-1.30135,3.75564-0.80401,5.68409c0.49734,1.92746,1.724,3.54727,3.45586,4.55867   c1.72793,1.02319,3.74287,1.30529,5.68703,0.80302c1.9363-0.50127,3.55611-1.72793,4.56457-3.45193   c1.00648-1.70139,1.28956-3.67603,0.83939-5.54255l-2.67348,4.51149c-0.32436,0.54649-0.92786,0.85905-1.56084,0.8217   c-3.08433-0.20543-5.95635-1.89601-7.68428-4.52034c-0.35384-0.53764-0.37154-1.23058-0.04325-1.78395L87.1151,32.2548z" style="fill: url('#color-0');"/>
    <path d="M81.68558,62.15252c-0.25948,0-0.52094-0.05897-0.76862-0.18675c-0.82563-0.42461-1.15195-1.43896-0.72538-2.26656   c1.98152-3.85099,4.04757-7.98308,5.97404-11.94808c0.40495-0.83546,1.41537-1.19028,2.24886-0.77845   c0.83743,0.40594,1.18537,1.41341,0.77845,2.24887c-1.9363,3.98859-4.01414,8.14428-6.00942,12.01885   C82.88471,61.8203,82.29694,62.15252,81.68558,62.15252z M74.04455,59.56358l-1.48614-0.80597l-1.30922-1.06939   c2.86809-4.2756,6.11951-9.12127,9.29819-13.5502c0.54453-0.75486,1.59425-0.92785,2.34912-0.38529   c0.75683,0.54256,0.92785,1.59425,0.38726,2.34912C80.13457,50.48555,76.89887,55.3096,74.04455,59.56358z" style="fill: url('#color-0');"/>
    <path d="M5.03543,50.0118c-0.68016,0-1.30922-0.07273-1.87537-0.22017c-1.51169-0.39709-2.27246-1.24631-2.64399-1.88814   c-2.04049-3.52761,2.28818-8.57773,7.39924-11.54018c4.09671-2.41891,8.34479-3.4765,11.07134-2.76096   c1.51169,0.39513,2.27442,1.24435,2.64596,1.88716c2.03066,3.50599-2.18006,8.45782-7.38941,11.53625   C10.98981,48.9483,7.64404,50.0118,5.03543,50.0118z M17.12112,36.74762c-1.7181,0-4.46431,0.7244-7.4995,2.51818   c-0.00393,0.00295-0.00983,0.00491-0.01376,0.00786c-4.95969,2.873-6.60113,6.2119-6.17848,6.94416   c0.07077,0.12188,0.28504,0.23786,0.58384,0.31649c1.47434,0.38726,4.77491-0.19756,8.51777-2.40711   c5.02063-2.96736,6.61292-6.21682,6.18831-6.95104c-0.07077-0.12286-0.28504-0.23885-0.58384-0.31747   C17.85632,36.78595,17.51624,36.74762,17.12112,36.74762z" style="fill: url('#color-0');"/>
    <path d="M31.13328,59.35717c-0.57794,0-1.13819-0.29683-1.45272-0.82956L18.6682,39.8113   c-0.47179-0.80106-0.20444-1.83212,0.5976-2.30391c0.80204-0.47277,1.83015-0.20346,2.30391,0.5976l11.01237,18.7163   c0.47179,0.80008,0.20444,1.83212-0.5976,2.30391C31.71712,59.28247,31.42225,59.35717,31.13328,59.35717z" style="fill: url('#color-0');"/>
    <path d="M13.78714,66.09c-0.57794,0-1.13819-0.29487-1.45272-0.82957L2.86323,49.16847   c-0.47179-0.80008-0.20444-1.83212,0.5976-2.30391c0.80204-0.47375,1.83015-0.20248,2.30391,0.59662l9.47118,16.09295   c0.47179,0.80008,0.20444,1.83212-0.5976,2.30391C14.37098,66.0153,14.07611,66.09,13.78714,66.09z" style="fill: url('#color-0');"/>
    <path d="M7.81703,54.60978c-0.35581,0-0.69982-0.01966-1.02614-0.05898c-0.92392-0.11402-1.5805-0.95341-1.46648-1.87537   c0.11205-0.92196,0.97307-1.57263,1.87537-1.46648c1.97169,0.24966,5.10123-0.72341,8.0047-2.45527   c0.55632-0.33419,1.08512-0.64871,1.60998-1.0173c0.76076-0.53469,1.81246-0.34598,2.34519,0.4138   c0.53273,0.76076,0.34598,1.8105-0.41478,2.34322c-0.5917,0.41478-1.18537,0.77256-1.77707,1.12836   C13.75372,53.53843,10.43153,54.60978,7.81703,54.60978z" style="fill: url('#color-0');"/>
  </g>
</svg>