<?xml version="1.0" encoding="utf-8"?>
<svg viewBox="0 0.0005 100 99.9989" xmlns="http://www.w3.org/2000/svg">
  <g>
    <path d="M40.94341,58.61951c-4.44199,0-8.39436-1.6891-11.75093-5.0201c-6.72493-6.67086-9.78654-19.04315-9.78654-27.71477   c0-1.91228,0.27136-3.83439,0.80817-5.71324c0.25366-0.89174,1.16801-1.41479,2.0804-1.1572   c0.89469,0.25562,1.41184,1.18669,1.15622,2.08138c-0.45029,1.578-0.67839,3.18942-0.67839,4.78905   c0,8.24984,3.02032,19.59865,8.79156,25.32368c2.73126,2.7116,5.91282,4.05462,9.48962,4.04282   C54.75115,55.143,59.36028,35.039,59.36028,25.88464c0-1.6596-0.24186-3.25333-0.71772-4.73694   c-0.28512-0.88486,0.20254-1.83363,1.08739-2.11776c0.88093-0.27824,1.83461,0.20352,2.11776,1.08936   c0.58401,1.81593,0.87896,3.75574,0.87896,5.76535c0,10.62421-5.29146,32.60509-21.64562,32.73291   C41.03387,58.61755,40.98864,58.61951,40.94341,58.61951z"/>
    <path d="M21.83046,22.31767c-0.83373,0-1.55735-0.61842-1.66747-1.4669c-0.11995-0.92222,0.53092-1.76677,1.45117-1.88671   c12.25431-1.5957,22.42626-4.43708,31.09788-8.68932c0.8357-0.40998,1.84444-0.06391,2.25344,0.77081   c0.409,0.83472,0.06489,1.84346-0.77081,2.25344c-9.00787,4.41545-19.52196,7.36104-32.14398,9.00393   C21.97597,22.31276,21.90321,22.31767,21.83046,22.31767z"/>
    <path d="M21.83242,22.31767c-0.643,0-1.2565-0.37066-1.53572-0.99596c-2.67424-5.97083-1.2329-10.31549,0.44636-12.90911   c3.41359-5.26688,11.00961-8.41206,20.32423-8.41206c0.93009,0,1.6832,0.7541,1.6832,1.68418s-0.75311,1.68418-1.6832,1.68418   c-8.04632,0-14.74962,2.63393-17.49661,6.87437c-1.78348,2.7529-1.8523,6.01704-0.20253,9.70199   c0.38147,0.84848,0.00197,1.84444-0.8475,2.22493C22.29648,22.27048,22.06249,22.31767,21.83242,22.31767z"/>
    <path d="M60.24317,22.31767c-0.23203,0-0.46799-0.04818-0.69215-0.15042c-0.8475-0.38344-1.22307-1.38136-0.83963-2.22788   c1.66747-3.68298,1.61241-6.94614-0.16321-9.69806c-2.73323-4.23946-9.4326-6.87241-17.48088-6.87241   c-0.93008,0-1.6832-0.7541-1.6832-1.68418s0.75311-1.68418,1.6832-1.68418c9.32052,0,16.91261,3.14617,20.31244,8.41599   c1.67337,2.59559,3.10094,6.94221,0.39917,12.91108C61.49771,21.94997,60.8842,22.31767,60.24317,22.31767z"/>
    <path d="M60.2471,22.31767c-0.03146,0-0.06096-0.00098-0.09242-0.00295c-6.6915-0.36083-12.1206-2.30358-16.13589-5.77223   c-0.70396-0.6076-0.78064-1.6714-0.17304-2.37536c0.6076-0.70395,1.67337-0.77868,2.37535-0.17304   c3.48438,3.01147,8.10334,4.63371,14.11449,4.95816c0.92812,0.05014,1.64191,0.84357,1.59078,1.77168   C61.87721,21.62159,61.13393,22.31767,60.2471,22.31767z"/>
    <path d="M1.6832,99.99945C0.75311,99.99945,0,99.24634,0,98.31625c0-11.51103,2.99672-22.03496,8.22329-28.8759   c2.922-3.83832,7.28337-4.42233,11.12956-4.93752c3.20319-0.42867,6.22941-0.83373,8.3924-2.9043   c1.54949-1.51016,1.47476-4.49509,1.19751-8.54577c-0.06489-0.92616,0.6371-1.73039,1.56522-1.79332   c0.87699-0.09832,1.72843,0.63513,1.79331,1.56522c0.28512,4.16474,0.58007,8.47105-2.21805,11.19445   c-2.96526,2.84138-6.85274,3.36246-10.28206,3.82259c-3.66135,0.48962-6.82325,0.91239-8.90168,3.64169   c-4.78807,6.26676-7.5331,16.04544-7.5331,26.83286C3.3664,99.24634,2.61328,99.99945,1.6832,99.99945z"/>
    <path d="M80.44942,99.99945c-0.93009,0-1.6832-0.75311-1.6832-1.6832c0-10.80315-2.76469-20.57986-7.58226-26.82499   c-2.08433-2.73717-5.23246-3.15993-8.87808-3.64956c-3.41752-0.46012-7.28927-0.98121-10.2447-3.81276   c-2.7529-2.67817-2.52676-6.86454-2.28687-11.29473c0.05112-0.93205,0.85733-1.65763,1.77168-1.59078   c0.92812,0.04916,1.64191,0.84356,1.59078,1.77168c-0.19664,3.64562-0.38344,7.0887,1.2624,8.69325   c2.15316,2.06074,5.16561,2.46581,8.35504,2.89447c3.83242,0.51519,8.17806,1.0992,11.10203,4.93948   c5.25803,6.81342,8.27638,17.34127,8.27638,28.87393C82.13262,99.24634,81.37951,99.99945,80.44942,99.99945z"/>
    <path d="M80.44942,99.99945H1.6832C0.75311,99.99945,0,99.24634,0,98.31625s0.75311-1.6832,1.6832-1.6832h78.76623   c0.93008,0,1.6832,0.75311,1.6832,1.6832S81.37951,99.99945,80.44942,99.99945z"/>
    <path d="M41.06729,72.4882c-5.74765,0-11.0568-2.91217-14.201-7.79266c-0.50339-0.78261-0.27726-1.82478,0.50339-2.32816   c0.78654-0.50142,1.82478-0.27726,2.32816,0.50338c2.52086,3.91305,6.77212,6.25104,11.36945,6.25104   c4.52851,0,8.88595-2.39502,11.36946-6.25104c0.50339-0.78064,1.54162-1.00677,2.32816-0.50338   c0.78064,0.50338,1.00677,1.54555,0.50339,2.32816C52.17129,69.50328,46.72842,72.4882,41.06729,72.4882z"/>
    <path d="M23.0319,99.99945c-0.04916,0-0.09832-0.00196-0.14748-0.0059c-0.92615-0.08062-1.61241-0.89665-1.53179-1.82281   c0.76491-8.8073,3.02425-16.60192,6.71706-23.16954c0.42473-0.75705,1.35678-1.06577,2.15119-0.71182   c6.86847,3.05571,14.77518,3.05768,21.69478-0.00197c0.8475-0.3736,1.84444,0.00787,2.22001,0.8593   c0.37558,0.84946-0.00787,1.84444-0.85929,2.22001c-7.30894,3.23072-15.59712,3.42932-22.98077,0.59777   c-3.03802,5.8676-4.91588,12.75574-5.58838,20.49728C24.63054,99.33876,23.89513,99.99945,23.0319,99.99945z"/>
    <path d="M59.0437,99.99945c-0.86913,0-1.60651-0.66856-1.6773-1.54948c-0.66069-8.28228-2.76076-15.61481-6.23727-21.79703   c-0.45619-0.81013-0.16911-1.83657,0.64103-2.29277c0.81407-0.46209,1.83657-0.16714,2.29277,0.64104   c3.71838,6.60891,5.96002,14.40943,6.66201,23.18134c0.07275,0.92616-0.61744,1.73826-1.54556,1.81298   C59.13415,99.99749,59.08892,99.99945,59.0437,99.99945z"/>
    <path d="M29.5366,77.51224c-0.70985,0-1.37055-0.45226-1.60061-1.16409c-1.37645-4.22766-2.45401-8.06008-2.95936-10.51212   c-0.1868-0.91239,0.39917-1.80118,1.30959-1.98995c0.92419-0.19467,1.80118,0.39917,1.98995,1.30959   c0.22613,1.10509,0.96155,4.30631,2.86104,10.15031c0.28905,0.88486-0.19467,1.83461-1.07953,2.1217   C29.88464,77.4847,29.70963,77.51224,29.5366,77.51224z"/>
    <path d="M52.59602,77.51224c-0.16714,0-0.33625-0.02557-0.50535-0.07866c-0.88683-0.27922-1.38038-1.22307-1.10116-2.11186   c1.53769-4.89426,2.48154-8.29998,2.80402-10.11885c0.16124-0.91829,1.05003-1.52589,1.95062-1.36465   c0.91632,0.16124,1.52785,1.03627,1.36465,1.95062c-0.35198,1.98995-1.3037,5.43893-2.90627,10.54359   C53.9764,77.05014,53.31178,77.51224,52.59602,77.51224z"/>
    <path d="M48.77147,90.12443H32.79091c-0.93009,0-1.6832-0.75311-1.6832-1.6832c0-0.93009,0.75311-1.6832,1.6832-1.6832h15.98055   c0.93008,0,1.6832,0.75311,1.6832,1.6832C50.45467,89.37132,49.70155,90.12443,48.77147,90.12443z"/>
    <path d="M76.45379,23.40212c-0.48569,0-0.96941-0.2104-1.30173-0.61645c-0.78457-0.95663-1.08936-2.06664-0.88486-3.21007   c0.70789-3.95335,7.33253-7.831,21.84619-16.32762l1.35088-0.79047c0.80227-0.46898,1.83461-0.20057,2.30457,0.60269   c0.46996,0.80227,0.20057,1.83362-0.60171,2.30358l-1.35285,0.79047c-11.06074,6.4752-19.79724,11.58969-20.2318,14.01518   c-0.0177,0.09832-0.0413,0.22023,0.17303,0.48077c0.5899,0.71968,0.48569,1.78053-0.23399,2.37044   C77.20887,23.27726,76.82936,23.40212,76.45379,23.40212z" style="fill: rgb(0, 114, 245);"/>
    <path d="M78.24317,24.29976c-1.39611,0-2.39108-0.70199-3.06358-1.48066c-0.6076-0.70395-0.53091-1.76775,0.17303-2.37535   c0.70396-0.60662,1.76775-0.52993,2.37536,0.17304c0.23989,0.2802,0.60367,0.69904,2.35962-0.47094   c0.77475-0.51617,1.81888-0.30478,2.33407,0.46701c0.51715,0.77376,0.30872,1.81888-0.46603,2.33504   C80.48482,23.9291,79.25781,24.29976,78.24317,24.29976z M84.331,20.60596c-0.45029,0-0.89862-0.17992-1.23093-0.53583   c-0.63513-0.67937-0.59777-1.74514,0.08259-2.37929c3.08128-2.87481,7.18309-7.44461,12.37623-13.22963l1.50426-1.67632   c0.62137-0.69117,1.6891-0.7482,2.37732-0.12683c0.69216,0.62137,0.74918,1.68615,0.12782,2.3783l-1.50426,1.67435   c-5.2482,5.84695-9.39524,10.46592-12.58466,13.44199C85.15491,20.45554,84.74197,20.60596,84.331,20.60596z" style="fill: rgb(0, 114, 245);"/>
    <path d="M62.5851,61.07352c-0.15534,0-0.31265-0.02163-0.46799-0.06882c-0.89469-0.25759-1.40791-1.19161-1.14835-2.08433   c0.69215-2.39109,0.07669-4.48329-0.63513-6.90387c-0.29495-1.00874-0.59581-2.03911-0.8239-3.12847   c-1.54359-7.65796,5.25409-9.06489,13.86279-10.84542c1.10313-0.22908,2.26131-0.46799,3.46471-0.73148   c2.24165-0.48569,3.77147-1.71859,4.55015-3.6643c1.33712-3.33985,0.33231-8.39633-2.50317-12.5827   c-0.52108-0.76983-0.32051-1.81691,0.45029-2.33799c0.77081-0.52305,1.81495-0.31855,2.338,0.45029   c3.48831,5.14988,4.60323,11.32128,2.84138,15.72296c-1.20341,3.0036-3.61022,4.97586-6.96089,5.70243   c-1.21323,0.26546-2.38322,0.50732-3.49814,0.73837c-9.67249,2.00076-12.03998,2.93675-11.24754,6.87142   c0.20647,0.98514,0.48569,1.93096,0.75901,2.85514c0.78654,2.68211,1.60257,5.45663,0.63513,8.7896   C63.98907,60.59373,63.31658,61.07352,62.5851,61.07352z" style="fill: rgb(0, 114, 245);"/>
    <path d="M83.81779,55.76437c-4.84903,0-16.1241-0.45816-16.1241-4.70745c0-4.25126,11.27507-4.7104,16.1241-4.7104   c4.86475,0,16.18112,0.45914,16.18112,4.7104C99.99891,55.30621,88.68254,55.76437,83.81779,55.76437z M72.06292,51.05692   c1.90343,0.63317,5.89709,1.34105,11.75487,1.34105c5.77321,0,9.818-0.71182,11.76665-1.34105   c-1.94865-0.6312-5.99148-1.34302-11.76665-1.34302C77.95805,49.71389,73.96635,50.42178,72.06292,51.05692z" style="fill: rgb(0, 114, 245);"/>
    <path d="M83.81779,83.44669h-1.37055c-0.93008,0-1.6832-0.75312-1.6832-1.6832s0.75311-1.6832,1.6832-1.6832h1.37055   c5.80074,0,9.85536-0.71772,11.79222-1.35088c-0.56238-0.1927-1.36662-0.41096-2.5071-0.6194   c-0.91435-0.16518-1.51999-1.04217-1.35285-1.95652c0.16518-0.91632,1.04217-1.52786,1.95849-1.35482   c4.29255,0.78064,6.29037,2.03321,6.29037,3.93861C99.99891,82.98853,88.68254,83.44669,83.81779,83.44669z" style="fill: rgb(0, 114, 245);"/>
    <path d="M92.83548,78.31058c-0.93008,0-1.6832-0.75311-1.6832-1.6832V53.56795c0-0.93008,0.75311-1.6832,1.6832-1.6832   s1.6832,0.75311,1.6832,1.6832v23.05943C94.51868,77.55746,93.76556,78.31058,92.83548,78.31058z" style="fill: rgb(0, 114, 245);"/>
    <path d="M74.85711,68.15043c-0.93008,0-1.6832-0.75311-1.6832-1.6832V53.56795c0-0.93008,0.75311-1.6832,1.6832-1.6832   s1.6832,0.75311,1.6832,1.6832v12.89928C76.54031,67.39732,75.78719,68.15043,74.85711,68.15043z" style="fill: rgb(0, 114, 245);"/>
    <path d="M74.85515,61.58674c-0.79244,0-1.49837-0.56041-1.65174-1.36858c-0.175-0.91239,0.42474-1.79528,1.33909-1.96832   l17.97837-3.42539c0.90845-0.17107,1.79528,0.42277,1.96832,1.33909c0.17501,0.91239-0.42473,1.79528-1.33908,1.96832   l-17.97837,3.42539C75.06554,61.57691,74.95936,61.58674,74.85515,61.58674z" style="fill: rgb(0, 114, 245);"/>
    <path d="M74.85515,67.12202c-0.79244,0-1.49837-0.56041-1.65174-1.36858c-0.175-0.91238,0.42474-1.79528,1.33909-1.96832   l17.97837-3.42342c0.90845-0.17697,1.79528,0.42473,1.96832,1.33909c0.17501,0.91239-0.42473,1.79528-1.33908,1.96832   l-17.97837,3.42342C75.06554,67.11219,74.95936,67.12202,74.85515,67.12202z" style="fill: rgb(0, 114, 245);"/>
    <path d="M77.53725,72.14606c-0.79244,0-1.49837-0.56041-1.65174-1.36858c-0.175-0.91238,0.42474-1.79528,1.33909-1.96832   l15.29626-2.91216c0.90845-0.17107,1.79528,0.42473,1.96832,1.33908c0.17501,0.91239-0.42473,1.79528-1.33908,1.96832   l-15.29626,2.91217C77.74765,72.13622,77.64147,72.14606,77.53725,72.14606z" style="fill: rgb(0, 114, 245);"/>
    <path d="M80.39043,77.1111c-0.7944,0-1.50032-0.56238-1.6537-1.37251c-0.17107-0.91436,0.43063-1.79332,1.34499-1.96635   l12.44308-2.33997c0.90256-0.16517,1.79332,0.42867,1.96635,1.34499c0.17107,0.91436-0.43063,1.79332-1.34499,1.96635   l-12.44308,2.33997C80.59886,77.10323,80.49464,77.1111,80.39043,77.1111z" style="fill: rgb(0, 114, 245);"/>
  </g>
</svg>