<svg xmlns="http://www.w3.org/2000/svg" viewBox="0 0 64 64" x="0px" y="0px"><g><path d="M47.07172,37.51422l-4.58686-1.9657a11.02866,11.02866,0,0,0,1.14868-2.7738l3.16724-2.37482A3.01563,3.01563,0,0,0,48,28V27a3.00328,3.00328,0,0,0-3-3H44V22a3,3,0,0,0,0-6h-.04309A11.9085,11.9085,0,0,0,36.9043,6.05322a4.99365,4.99365,0,0,0-9.8086,0A11.908,11.908,0,0,0,20.04309,16H20a3,3,0,0,0,0,6v2H19a3.00328,3.00328,0,0,0-3,3v1a3.01469,3.01469,0,0,0,1.19971,2.3999l3.16675,2.37482a11.02866,11.02866,0,0,0,1.14868,2.7738L14.667,38.4834A10.98831,10.98831,0,0,0,8,48.59375V62H56V48.59375a11.05844,11.05844,0,0,0-1-4.55481V42h3V36.58594l-5-5ZM22,29.41406l.707.707A2.97977,2.97977,0,0,0,24.82861,31h4.10108a2.994,2.994,0,0,0,2.49609-1.33594L32,28.80273l.57422.86133A2.994,2.994,0,0,0,35.07031,31h4.10108a2.97977,2.97977,0,0,0,2.12158-.87891l.707-.707v.58155a9.02739,9.02739,0,0,1-5.92432,8.458l-1,.36377a9.00932,9.00932,0,0,1-6.15136,0l-1-.36377A9.02739,9.02739,0,0,1,22,29.99561ZM45,26a1.0013,1.0013,0,0,1,1,1v1a1.00551,1.00551,0,0,1-.3999.80029l-1.60028,1.20008L44,29.99561V26Zm-3,.58594L39.87891,28.707a.99428.99428,0,0,1-.70752.293H35.07031a.99843.99843,0,0,1-.832-.44531l-.57422-.86133a1.9944,1.9944,0,0,0-.66351-.61438L33.00372,22H42ZM27,8.33478V13h2V7a2.99507,2.99507,0,0,1,2-2.81573V13h2V4.18427A2.99507,2.99507,0,0,1,35,7v6h2V8.335A9.91552,9.91552,0,0,1,41.94519,16H22.05481A9.91459,9.91459,0,0,1,27,8.33478ZM19,19a1.0013,1.0013,0,0,1,1-1H44a1,1,0,0,1,0,2H20A1.0013,1.0013,0,0,1,19,19Zm12.00372,3-.00317,5.07819a1.99343,1.99343,0,0,0-.66461.61517l-.57422.86133a.99843.99843,0,0,1-.832.44531H24.82861a.99428.99428,0,0,1-.70752-.293L22,26.58594V22ZM18.40039,28.80029A1.00457,1.00457,0,0,1,18,28V27a1.0013,1.0013,0,0,1,1-1h1v3.99561l.00018.00457ZM27.24072,40.3335l1,.36377a11.01847,11.01847,0,0,0,7.51856,0l1-.36377A10.95946,10.95946,0,0,0,41.285,37.21l4.26374,1.82721L38.58594,46H22.8197l-1.62744-8.13745L22.715,37.21A10.95932,10.95932,0,0,0,27.24072,40.3335ZM18.78088,46l-1.60412-6.41656,2.137-.91584L20.78027,46Zm.08631,2H36.58594l-.293.293L31.707,52.87891a3.00007,3.00007,0,0,0,0,4.24218L34.58594,60H17.15283ZM36.58594,59.17188,33.12109,55.707a1.00081,1.00081,0,0,1,0-1.41406L34,53.41406,35.87891,55.293a3.00244,3.00244,0,0,0,4.24218,0L41,54.41406l.87891.87891a1.00081,1.00081,0,0,1,0,1.41406l-2.46485,2.46485A2.00282,2.00282,0,0,1,36.58594,59.17188Zm2.12109-5.293a1.00142,1.00142,0,0,1-1.41406,0L35.41406,52,37,50.41406,39.58594,53ZM10,48.59375a8.98335,8.98335,0,0,1,5.31732-8.201l1.665,6.66028L15.13287,60H10ZM54,60H41.41406L43.293,58.12109a2.95891,2.95891,0,0,0,.51849-3.51849L45.41406,53H49V50h3V46h1.603A9.03379,9.03379,0,0,1,54,48.59375Zm2-20H53v4H50v4H47v3H44.58594L42.5,53.08594,38.41406,49,53,34.41406l3,3Z"/></g></svg>
